%TF.GenerationSoftware,KiCad,Pcbnew,(5.1.9)-1*%
%TF.CreationDate,2021-03-06T17:12:20-05:00*%
%TF.ProjectId,ya36,79613336-2e6b-4696-9361-645f70636258,rev?*%
%TF.SameCoordinates,Original*%
%TF.FileFunction,Copper,L1,Top*%
%TF.FilePolarity,Positive*%
%FSLAX46Y46*%
G04 Gerber Fmt 4.6, Leading zero omitted, Abs format (unit mm)*
G04 Created by KiCad (PCBNEW (5.1.9)-1) date 2021-03-06 17:12:20*
%MOMM*%
%LPD*%
G01*
G04 APERTURE LIST*
%TA.AperFunction,ComponentPad*%
%ADD10O,2.500000X1.700000*%
%TD*%
%TA.AperFunction,ComponentPad*%
%ADD11C,2.000000*%
%TD*%
%TA.AperFunction,ComponentPad*%
%ADD12C,1.524000*%
%TD*%
%TA.AperFunction,ComponentPad*%
%ADD13C,2.300000*%
%TD*%
%TA.AperFunction,ComponentPad*%
%ADD14C,0.800000*%
%TD*%
%TA.AperFunction,Conductor*%
%ADD15C,0.500000*%
%TD*%
%TA.AperFunction,Conductor*%
%ADD16C,0.250000*%
%TD*%
G04 APERTURE END LIST*
D10*
%TO.P,J1,A*%
%TO.N,Net-(J1-PadA)*%
X139200000Y-86400000D03*
%TO.P,J1,D*%
%TO.N,VCC*%
X140700000Y-90600000D03*
%TO.P,J1,C*%
%TO.N,DATA*%
X144700000Y-90600000D03*
%TO.P,J1,B*%
%TO.N,GND*%
X147700000Y-90600000D03*
%TD*%
%TO.P,J2,A*%
%TO.N,Net-(J2-PadA)*%
X165800000Y-90600000D03*
%TO.P,J2,D*%
%TO.N,VDD*%
X164300000Y-86400000D03*
%TO.P,J2,C*%
%TO.N,DATAR*%
X160300000Y-86400000D03*
%TO.P,J2,B*%
%TO.N,GND1*%
X157300000Y-86400000D03*
%TD*%
D11*
%TO.P,SWRST2,1*%
%TO.N,RESETR*%
X155850000Y-93250000D03*
%TO.P,SWRST2,2*%
%TO.N,GND1*%
X155850000Y-99750000D03*
%TD*%
%TO.P,SWRST1,2*%
%TO.N,GND*%
X149150000Y-99750000D03*
%TO.P,SWRST1,1*%
%TO.N,RESET*%
X149150000Y-93250000D03*
%TD*%
D12*
%TO.P,U2,24*%
%TO.N,Net-(U2-Pad24)*%
X155391400Y-55272000D03*
%TO.P,U2,23*%
%TO.N,GND1*%
X155391400Y-57812000D03*
%TO.P,U2,22*%
%TO.N,RESETR*%
X155391400Y-60352000D03*
%TO.P,U2,21*%
%TO.N,VDD*%
X155391400Y-62892000D03*
%TO.P,U2,20*%
%TO.N,Net-(U2-Pad20)*%
X155391400Y-65432000D03*
%TO.P,U2,19*%
%TO.N,COL5R*%
X155391400Y-67972000D03*
%TO.P,U2,18*%
%TO.N,COL4R*%
X155391400Y-70512000D03*
%TO.P,U2,17*%
%TO.N,COL3R*%
X155391400Y-73052000D03*
%TO.P,U2,16*%
%TO.N,COL2R*%
X155391400Y-75592000D03*
%TO.P,U2,15*%
%TO.N,COL1R*%
X155391400Y-78132000D03*
%TO.P,U2,14*%
%TO.N,Net-(U2-Pad14)*%
X155391400Y-80672000D03*
%TO.P,U2,13*%
%TO.N,Net-(U2-Pad13)*%
X155391400Y-83212000D03*
%TO.P,U2,12*%
%TO.N,Net-(U2-Pad12)*%
X170611400Y-83212000D03*
%TO.P,U2,11*%
%TO.N,Net-(U2-Pad11)*%
X170611400Y-80672000D03*
%TO.P,U2,10*%
%TO.N,ROW4R*%
X170611400Y-78132000D03*
%TO.P,U2,9*%
%TO.N,ROW3R*%
X170611400Y-75592000D03*
%TO.P,U2,8*%
%TO.N,ROW2R*%
X170611400Y-73052000D03*
%TO.P,U2,7*%
%TO.N,ROW1R*%
X170611400Y-70512000D03*
%TO.P,U2,6*%
%TO.N,Net-(U2-Pad6)*%
X170611400Y-67972000D03*
%TO.P,U2,5*%
%TO.N,Net-(U2-Pad5)*%
X170611400Y-65432000D03*
%TO.P,U2,4*%
%TO.N,GND1*%
X170611400Y-62892000D03*
%TO.P,U2,3*%
X170611400Y-60352000D03*
%TO.P,U2,2*%
%TO.N,DATAR*%
X170611400Y-57812000D03*
%TO.P,U2,1*%
%TO.N,Net-(U2-Pad1)*%
X170611400Y-55272000D03*
%TD*%
%TO.P,U1,24*%
%TO.N,Net-(U1-Pad24)*%
X134391400Y-55272000D03*
%TO.P,U1,23*%
%TO.N,GND*%
X134391400Y-57812000D03*
%TO.P,U1,22*%
%TO.N,RESET*%
X134391400Y-60352000D03*
%TO.P,U1,21*%
%TO.N,VCC*%
X134391400Y-62892000D03*
%TO.P,U1,20*%
%TO.N,Net-(U1-Pad20)*%
X134391400Y-65432000D03*
%TO.P,U1,19*%
%TO.N,COL1*%
X134391400Y-67972000D03*
%TO.P,U1,18*%
%TO.N,COL2*%
X134391400Y-70512000D03*
%TO.P,U1,17*%
%TO.N,COL3*%
X134391400Y-73052000D03*
%TO.P,U1,16*%
%TO.N,COL4*%
X134391400Y-75592000D03*
%TO.P,U1,15*%
%TO.N,COL5*%
X134391400Y-78132000D03*
%TO.P,U1,14*%
%TO.N,Net-(U1-Pad14)*%
X134391400Y-80672000D03*
%TO.P,U1,13*%
%TO.N,Net-(U1-Pad13)*%
X134391400Y-83212000D03*
%TO.P,U1,12*%
%TO.N,Net-(U1-Pad12)*%
X149611400Y-83212000D03*
%TO.P,U1,11*%
%TO.N,Net-(U1-Pad11)*%
X149611400Y-80672000D03*
%TO.P,U1,10*%
%TO.N,ROW4*%
X149611400Y-78132000D03*
%TO.P,U1,9*%
%TO.N,ROW3*%
X149611400Y-75592000D03*
%TO.P,U1,8*%
%TO.N,ROW2*%
X149611400Y-73052000D03*
%TO.P,U1,7*%
%TO.N,ROW1*%
X149611400Y-70512000D03*
%TO.P,U1,6*%
%TO.N,Net-(U1-Pad6)*%
X149611400Y-67972000D03*
%TO.P,U1,5*%
%TO.N,Net-(U1-Pad5)*%
X149611400Y-65432000D03*
%TO.P,U1,4*%
%TO.N,GND*%
X149611400Y-62892000D03*
%TO.P,U1,3*%
X149611400Y-60352000D03*
%TO.P,U1,2*%
%TO.N,DATA*%
X149611400Y-57812000D03*
%TO.P,U1,1*%
%TO.N,Net-(U1-Pad1)*%
X149611400Y-55272000D03*
%TD*%
D13*
%TO.P,Ref\u002A\u002A,*%
%TO.N,*%
X263000000Y-52000000D03*
%TD*%
%TO.P,Ref\u002A\u002A,*%
%TO.N,*%
X263000000Y-115000000D03*
%TD*%
%TO.P,Ref\u002A\u002A,*%
%TO.N,*%
X155000000Y-115000000D03*
%TD*%
%TO.P,Ref\u002A\u002A,*%
%TO.N,*%
X222500000Y-100500000D03*
%TD*%
%TO.P,Ref\u002A\u002A,*%
%TO.N,*%
X174000000Y-96500000D03*
%TD*%
%TO.P,Ref\u002A\u002A,*%
%TO.N,*%
X228000000Y-60000000D03*
%TD*%
%TO.P,Ref\u002A\u002A,*%
%TO.N,*%
X174000000Y-52000000D03*
%TD*%
%TO.P,Ref\u002A\u002A,*%
%TO.N,*%
X77000000Y-60000000D03*
%TD*%
%TO.P,Ref\u002A\u002A,*%
%TO.N,*%
X131000000Y-96500000D03*
%TD*%
%TO.P,Ref\u002A\u002A,*%
%TO.N,*%
X82500000Y-100500000D03*
%TD*%
%TO.P,Ref\u002A\u002A,*%
%TO.N,*%
X131000000Y-52000000D03*
%TD*%
%TO.P,Ref\u002A\u002A,*%
%TO.N,*%
X42000000Y-52000000D03*
%TD*%
%TO.P,Ref\u002A\u002A,*%
%TO.N,*%
X42000000Y-115000000D03*
%TD*%
%TO.P,Ref\u002A\u002A,*%
%TO.N,*%
X150000000Y-115000000D03*
%TD*%
D14*
%TO.P,SW13,1*%
%TO.N,COL3*%
X90275000Y-94000000D03*
%TD*%
%TO.P,SW12,1*%
%TO.N,COL2*%
X75144119Y-97364167D03*
%TD*%
%TO.P,SW14,1*%
%TO.N,COL4*%
X105726831Y-92275751D03*
%TD*%
%TO.P,SW1,1*%
%TO.N,COL1*%
X53672641Y-78542778D03*
%TD*%
%TO.P,SW2,1*%
%TO.N,COL2*%
X70968926Y-67656125D03*
%TD*%
%TO.P,SW3,1*%
%TO.N,COL3*%
X90275000Y-64000000D03*
%TD*%
%TO.P,SW4,1*%
%TO.N,COL4*%
X109902024Y-62567709D03*
%TD*%
%TO.P,SW5,1*%
%TO.N,COL5*%
X124756045Y-64655306D03*
%TD*%
%TO.P,SW6,1*%
%TO.N,COL1*%
X57807202Y-92961703D03*
%TD*%
%TO.P,SW7,1*%
%TO.N,COL2*%
X73056522Y-82510145D03*
%TD*%
%TO.P,SW8,1*%
%TO.N,COL3*%
X90275000Y-79000000D03*
%TD*%
%TO.P,SW9,1*%
%TO.N,COL4*%
X107814428Y-77421731D03*
%TD*%
%TO.P,SW10,1*%
%TO.N,COL5*%
X122668449Y-79509326D03*
%TD*%
%TO.P,SW11,1*%
%TO.N,COL1*%
X61941762Y-107380629D03*
%TD*%
%TO.P,SW15,1*%
%TO.N,COL5*%
X120580852Y-94363347D03*
%TD*%
%TO.P,SW16,1*%
%TO.N,COL3*%
X110644595Y-110706858D03*
%TD*%
%TO.P,SW17,1*%
%TO.N,COL4*%
X126275000Y-109912426D03*
%TD*%
%TO.P,SW18,1*%
%TO.N,COL5*%
X141805897Y-111844254D03*
%TD*%
%TO.P,SW19,1*%
%TO.N,COL5R*%
X257623623Y-80348202D03*
%TD*%
%TO.P,SW20,1*%
%TO.N,COL4R*%
X240517330Y-68567709D03*
%TD*%
%TO.P,SW21,1*%
%TO.N,COL3R*%
X221275000Y-64000000D03*
%TD*%
%TO.P,SW22,1*%
%TO.N,COL2R*%
X201584233Y-61656125D03*
%TD*%
%TO.P,SW23,1*%
%TO.N,COL1R*%
X186730212Y-63743722D03*
%TD*%
%TO.P,SW24,1*%
%TO.N,COL5R*%
X253489062Y-94767127D03*
%TD*%
%TO.P,SW25,1*%
%TO.N,COL4R*%
X238429734Y-83421729D03*
%TD*%
%TO.P,SW26,1*%
%TO.N,COL3R*%
X221275000Y-79000000D03*
%TD*%
%TO.P,SW27,1*%
%TO.N,COL2R*%
X203671829Y-76510147D03*
%TD*%
%TO.P,SW28,1*%
%TO.N,COL1R*%
X188817808Y-78597742D03*
%TD*%
%TO.P,SW29,1*%
%TO.N,COL5R*%
X249354502Y-109186053D03*
%TD*%
%TO.P,SW30,1*%
%TO.N,COL4R*%
X236342137Y-98275751D03*
%TD*%
%TO.P,SW31,1*%
%TO.N,COL3R*%
X221275000Y-94000000D03*
%TD*%
%TO.P,SW32,1*%
%TO.N,COL2R*%
X205759426Y-91364167D03*
%TD*%
%TO.P,SW33,1*%
%TO.N,COL1R*%
X190905405Y-93451763D03*
%TD*%
%TO.P,SW34,1*%
%TO.N,COL3R*%
X200805897Y-111844254D03*
%TD*%
%TO.P,SW35,1*%
%TO.N,COL2R*%
X185275000Y-109912426D03*
%TD*%
%TO.P,SW36,1*%
%TO.N,COL1R*%
X169644595Y-110706858D03*
%TD*%
D15*
%TO.N,VCC*%
X135603401Y-85503401D02*
X140700000Y-90600000D01*
X135603401Y-64104001D02*
X135603401Y-85503401D01*
X134391400Y-62892000D02*
X135603401Y-64104001D01*
D16*
%TO.N,DATA*%
X148524399Y-58899001D02*
X149611400Y-57812000D01*
X148524399Y-83733761D02*
X148524399Y-58899001D01*
X150475001Y-93886001D02*
X150475001Y-85684363D01*
X150475001Y-85684363D02*
X148524399Y-83733761D01*
X149786001Y-94575001D02*
X150475001Y-93886001D01*
X148513999Y-94575001D02*
X149786001Y-94575001D01*
X144700000Y-90761002D02*
X148513999Y-94575001D01*
X144700000Y-90600000D02*
X144700000Y-90761002D01*
D15*
%TO.N,GND1*%
X170611400Y-60352000D02*
X170611400Y-62892000D01*
X155550000Y-86400000D02*
X157300000Y-86400000D01*
X154179399Y-85029399D02*
X155550000Y-86400000D01*
X154179399Y-75010239D02*
X154179399Y-85029399D01*
X154809639Y-74379999D02*
X154179399Y-75010239D01*
X167278214Y-62892000D02*
X155790215Y-74379999D01*
X155790215Y-74379999D02*
X154809639Y-74379999D01*
X170611400Y-62892000D02*
X167278214Y-62892000D01*
X154399999Y-98299999D02*
X155850000Y-99750000D01*
X154399999Y-87100001D02*
X154399999Y-98299999D01*
X155100000Y-86400000D02*
X154399999Y-87100001D01*
X155550000Y-86400000D02*
X155100000Y-86400000D01*
X154179399Y-59024001D02*
X155391400Y-57812000D01*
X154179399Y-73749759D02*
X154179399Y-59024001D01*
X154809639Y-74379999D02*
X154179399Y-73749759D01*
D16*
%TO.N,COL1*%
X55733840Y-90888341D02*
X57807202Y-92961703D01*
X55733840Y-80603977D02*
X55733840Y-90888341D01*
X53672641Y-78542778D02*
X55733840Y-80603977D01*
X59868400Y-105307267D02*
X61941762Y-107380629D01*
X59868400Y-95022901D02*
X59868400Y-105307267D01*
X57807202Y-92961703D02*
X59868400Y-95022901D01*
X133304399Y-66884999D02*
X134391400Y-67972000D01*
X133304399Y-61637538D02*
X133304399Y-66884999D01*
X71070279Y-54393036D02*
X126059897Y-54393036D01*
X126059897Y-54393036D02*
X133304399Y-61637538D01*
X52599586Y-72863729D02*
X71070279Y-54393036D01*
X52599586Y-77469723D02*
X52599586Y-72863729D01*
X53672641Y-78542778D02*
X52599586Y-77469723D01*
%TO.N,COL2*%
X71368925Y-80822548D02*
X73056522Y-82510145D01*
X71368925Y-68056124D02*
X71368925Y-80822548D01*
X70968926Y-67656125D02*
X71368925Y-68056124D01*
X73456521Y-95676569D02*
X75144119Y-97364167D01*
X73456521Y-82910144D02*
X73456521Y-95676569D01*
X73056522Y-82510145D02*
X73456521Y-82910144D01*
X132854389Y-68974989D02*
X134391400Y-70512000D01*
X132854389Y-65166586D02*
X132854389Y-68974989D01*
X124168436Y-56480633D02*
X132854389Y-65166586D01*
X112952978Y-56480633D02*
X124168436Y-56480633D01*
X74889989Y-55479699D02*
X111952044Y-55479699D01*
X111952044Y-55479699D02*
X112952978Y-56480633D01*
X70968926Y-59400762D02*
X74889989Y-55479699D01*
X70968926Y-67656125D02*
X70968926Y-59400762D01*
%TO.N,COL3*%
X90275000Y-64000000D02*
X90275000Y-79000000D01*
X90275000Y-79000000D02*
X90275000Y-94000000D01*
X90275000Y-94565685D02*
X106416173Y-110706858D01*
X106416173Y-110706858D02*
X110644595Y-110706858D01*
X90275000Y-94000000D02*
X90275000Y-94565685D01*
X132404379Y-71064979D02*
X134391400Y-73052000D01*
X114285935Y-58450000D02*
X122657135Y-58450000D01*
X132404379Y-68197244D02*
X132404379Y-71064979D01*
X112285935Y-56450000D02*
X114285935Y-58450000D01*
X94809666Y-56450000D02*
X112285935Y-56450000D01*
X122657135Y-58450000D02*
X132404379Y-68197244D01*
X90275000Y-60984666D02*
X94809666Y-56450000D01*
X90275000Y-64000000D02*
X90275000Y-60984666D01*
%TO.N,COL4*%
X109328979Y-75907180D02*
X107814428Y-77421731D01*
X109328979Y-63140754D02*
X109328979Y-75907180D01*
X109902024Y-62567709D02*
X109328979Y-63140754D01*
X107241382Y-90761200D02*
X105726831Y-92275751D01*
X107241382Y-77994777D02*
X107241382Y-90761200D01*
X107814428Y-77421731D02*
X107241382Y-77994777D01*
X123363506Y-109912426D02*
X126275000Y-109912426D01*
X105726831Y-92275751D02*
X123363506Y-109912426D01*
X131954369Y-73154969D02*
X134391400Y-75592000D01*
X125255305Y-63930305D02*
X131954369Y-70629369D01*
X122178290Y-63930305D02*
X125255305Y-63930305D01*
X120174200Y-61926215D02*
X122178290Y-63930305D01*
X110543518Y-61926215D02*
X120174200Y-61926215D01*
X131954369Y-70629369D02*
X131954369Y-73154969D01*
X109902024Y-62567709D02*
X110543518Y-61926215D01*
%TO.N,COL5*%
X124183000Y-77994775D02*
X122668449Y-79509326D01*
X124183000Y-65228351D02*
X124183000Y-77994775D01*
X124756045Y-64655306D02*
X124183000Y-65228351D01*
X122095403Y-92848796D02*
X120580852Y-94363347D01*
X122095403Y-80082372D02*
X122095403Y-92848796D01*
X122668449Y-79509326D02*
X122095403Y-80082372D01*
X124756045Y-68496645D02*
X134391400Y-78132000D01*
X124756045Y-64655306D02*
X124756045Y-68496645D01*
X120580852Y-95787324D02*
X120580852Y-94363347D01*
X132843093Y-108049565D02*
X120580852Y-95787324D01*
X135559346Y-108049565D02*
X132843093Y-108049565D01*
X139354035Y-111844254D02*
X135559346Y-108049565D01*
X141805897Y-111844254D02*
X139354035Y-111844254D01*
%TO.N,COL5R*%
X253489062Y-90679543D02*
X253489062Y-94767127D01*
X257623623Y-86544982D02*
X253489062Y-90679543D01*
X257623623Y-80348202D02*
X257623623Y-86544982D01*
X249354502Y-105098469D02*
X249354502Y-109186053D01*
X253489062Y-100963909D02*
X249354502Y-105098469D01*
X253489062Y-94767127D02*
X253489062Y-100963909D01*
X169178401Y-54184999D02*
X155391400Y-67972000D01*
X175315001Y-54184999D02*
X169178401Y-54184999D01*
X176559931Y-52940069D02*
X175315001Y-54184999D01*
X236455812Y-52940069D02*
X176559931Y-52940069D01*
X257623623Y-74107880D02*
X236455812Y-52940069D01*
X257623623Y-80348202D02*
X257623623Y-74107880D01*
%TO.N,COL4R*%
X239944285Y-81907178D02*
X238429734Y-83421729D01*
X239944285Y-69140754D02*
X239944285Y-81907178D01*
X240517330Y-68567709D02*
X239944285Y-69140754D01*
X237856688Y-96761200D02*
X236342137Y-98275751D01*
X237856688Y-83994775D02*
X237856688Y-96761200D01*
X238429734Y-83421729D02*
X237856688Y-83994775D01*
X169178401Y-56724999D02*
X155391400Y-70512000D01*
X171000001Y-56724999D02*
X169178401Y-56724999D01*
X172697334Y-55027666D02*
X171000001Y-56724999D01*
X231161457Y-55027666D02*
X172697334Y-55027666D01*
X240517330Y-64383539D02*
X231161457Y-55027666D01*
X240517330Y-68567709D02*
X240517330Y-64383539D01*
%TO.N,COL3R*%
X221275000Y-64000000D02*
X221275000Y-79000000D01*
X221275000Y-79000000D02*
X221275000Y-94000000D01*
X200805897Y-109065568D02*
X200805897Y-111844254D01*
X215871465Y-94000000D02*
X200805897Y-109065568D01*
X221275000Y-94000000D02*
X215871465Y-94000000D01*
X169178401Y-59264999D02*
X155391400Y-73052000D01*
X170767163Y-59264999D02*
X169178401Y-59264999D01*
X171582162Y-58450000D02*
X170767163Y-59264999D01*
X186196663Y-58450000D02*
X171582162Y-58450000D01*
X188040185Y-56606478D02*
X186196663Y-58450000D01*
X217124940Y-56606478D02*
X188040185Y-56606478D01*
X221275000Y-60756538D02*
X217124940Y-56606478D01*
X221275000Y-64000000D02*
X221275000Y-60756538D01*
%TO.N,COL2R*%
X201981096Y-74819414D02*
X203671829Y-76510147D01*
X201981096Y-62052988D02*
X201981096Y-74819414D01*
X201584233Y-61656125D02*
X201981096Y-62052988D01*
X204071828Y-89676569D02*
X205759426Y-91364167D01*
X204071828Y-76910146D02*
X204071828Y-89676569D01*
X203671829Y-76510147D02*
X204071828Y-76910146D01*
X166638401Y-64344999D02*
X155391400Y-75592000D01*
X170880001Y-64344999D02*
X166638401Y-64344999D01*
X171907054Y-63317946D02*
X170880001Y-64344999D01*
X183434070Y-63317946D02*
X171907054Y-63317946D01*
X185521667Y-61230349D02*
X183434070Y-63317946D01*
X201158457Y-61230349D02*
X185521667Y-61230349D01*
X201584233Y-61656125D02*
X201158457Y-61230349D01*
X203038219Y-91364167D02*
X205759426Y-91364167D01*
X199813993Y-94588393D02*
X203038219Y-91364167D01*
X197583699Y-94588393D02*
X199813993Y-94588393D01*
X185275000Y-106897092D02*
X197583699Y-94588393D01*
X185275000Y-109912426D02*
X185275000Y-106897092D01*
%TO.N,COL1R*%
X187130211Y-76910145D02*
X188817808Y-78597742D01*
X187130211Y-64143721D02*
X187130211Y-76910145D01*
X186730212Y-63743722D02*
X187130211Y-64143721D01*
X189217807Y-91764165D02*
X190905405Y-93451763D01*
X189217807Y-78997741D02*
X189217807Y-91764165D01*
X188817808Y-78597742D02*
X189217807Y-78997741D01*
X169644595Y-110653125D02*
X169644595Y-110706858D01*
X186845957Y-93451763D02*
X169644595Y-110653125D01*
X190905405Y-93451763D02*
X186845957Y-93451763D01*
X164098401Y-69424999D02*
X155391400Y-78132000D01*
X178327728Y-69424999D02*
X164098401Y-69424999D01*
X184009005Y-63743722D02*
X178327728Y-69424999D01*
X186730212Y-63743722D02*
X184009005Y-63743722D01*
%TO.N,RESET*%
X149275010Y-93124990D02*
X149150000Y-93250000D01*
X147924990Y-88763275D02*
X149275010Y-90113295D01*
X149275010Y-90113295D02*
X149275010Y-93124990D01*
X147924990Y-73885590D02*
X147924990Y-88763275D01*
X134391400Y-60352000D02*
X147924990Y-73885590D01*
%TD*%
M02*
