%TF.GenerationSoftware,KiCad,Pcbnew,(5.1.9)-1*%
%TF.CreationDate,2021-03-06T17:12:20-05:00*%
%TF.ProjectId,ya36,79613336-2e6b-4696-9361-645f70636258,rev?*%
%TF.SameCoordinates,Original*%
%TF.FileFunction,Legend,Bot*%
%TF.FilePolarity,Positive*%
%FSLAX46Y46*%
G04 Gerber Fmt 4.6, Leading zero omitted, Abs format (unit mm)*
G04 Created by KiCad (PCBNEW (5.1.9)-1) date 2021-03-06 17:12:20*
%MOMM*%
%LPD*%
G01*
G04 APERTURE LIST*
%ADD10C,0.150000*%
G04 APERTURE END LIST*
D10*
%TO.C,SW13*%
X80000000Y-96100000D02*
X80000000Y-96700000D01*
X88500000Y-94200000D02*
X86000000Y-94200000D01*
X85500000Y-98700000D02*
X85000000Y-98200000D01*
X85000000Y-97200000D02*
X85000000Y-98200000D01*
X80000000Y-96700000D02*
X84500000Y-96700000D01*
X89000000Y-94700000D02*
X88500000Y-94200000D01*
X89000000Y-98200000D02*
X88500000Y-98700000D01*
X88500000Y-98700000D02*
X85500000Y-98700000D01*
X84500000Y-92700000D02*
X84500000Y-92000000D01*
X84500000Y-92000000D02*
X80000000Y-92000000D01*
X80000000Y-92000000D02*
X80000000Y-92500000D01*
X86000000Y-94200000D02*
G75*
G02*
X84500000Y-92700000I0J1500000D01*
G01*
X84500000Y-96700000D02*
G75*
G02*
X85000000Y-97200000I0J-500000D01*
G01*
%TO.C,SW12*%
X65261378Y-100873734D02*
X65344882Y-101467895D01*
X73414228Y-97809253D02*
X70938557Y-98157186D01*
X71069702Y-102682979D02*
X70504982Y-102257431D01*
X70365809Y-101267163D02*
X70504982Y-102257431D01*
X65344882Y-101467895D02*
X69801088Y-100841616D01*
X73978948Y-98234801D02*
X73414228Y-97809253D01*
X74466054Y-101700739D02*
X74040507Y-102265460D01*
X74040507Y-102265460D02*
X71069702Y-102682979D01*
X69244396Y-96880544D02*
X69146974Y-96187356D01*
X69146974Y-96187356D02*
X64690768Y-96813635D01*
X64690768Y-96813635D02*
X64760355Y-97308769D01*
X70938558Y-98157186D02*
G75*
G02*
X69244396Y-96880544I-208760J1485402D01*
G01*
X69801088Y-100841616D02*
G75*
G02*
X70365809Y-101267163I69587J-495134D01*
G01*
%TO.C,D19*%
X259138178Y-72980247D02*
X253947364Y-71491805D01*
X254360820Y-70049913D02*
X259551634Y-71538355D01*
X259551634Y-71538355D02*
X259138178Y-72980247D01*
X254360820Y-70049913D02*
X253947364Y-71491805D01*
X256406687Y-70896630D02*
X256131049Y-71857892D01*
X256131049Y-71857892D02*
X257134004Y-71625335D01*
X257134004Y-71625335D02*
X256406687Y-70896630D01*
X257367949Y-71172268D02*
X257092311Y-72133530D01*
%TO.C,D11*%
X59321756Y-100329656D02*
X54130942Y-101818098D01*
X53717486Y-100376206D02*
X58908300Y-98887764D01*
X58908300Y-98887764D02*
X59321756Y-100329656D01*
X53717486Y-100376206D02*
X54130942Y-101818098D01*
X55901171Y-100010119D02*
X56176809Y-100971381D01*
X56176809Y-100971381D02*
X56904126Y-100242676D01*
X56904126Y-100242676D02*
X55901171Y-100010119D01*
X56862433Y-99734481D02*
X57138071Y-100695743D01*
%TO.C,SW14*%
X95259563Y-92925310D02*
X95176059Y-93519471D01*
X103941271Y-92226773D02*
X101465600Y-91878840D01*
X100344187Y-96265460D02*
X99918640Y-95700739D01*
X100057813Y-94710471D02*
X99918640Y-95700739D01*
X95176059Y-93519471D02*
X99632266Y-94145750D01*
X104366818Y-92791493D02*
X103941271Y-92226773D01*
X103879712Y-96257431D02*
X103314992Y-96682979D01*
X103314992Y-96682979D02*
X100344187Y-96265460D01*
X100188958Y-90184678D02*
X100286379Y-89491490D01*
X100286379Y-89491490D02*
X95830173Y-88865211D01*
X95830173Y-88865211D02*
X95760586Y-89360345D01*
X101465600Y-91878840D02*
G75*
G02*
X100188958Y-90184678I208760J1485402D01*
G01*
X99632266Y-94145750D02*
G75*
G02*
X100057813Y-94710471I-69587J-495134D01*
G01*
%TO.C,D27*%
X202058626Y-69163161D02*
X196711178Y-69914695D01*
X196502418Y-68429293D02*
X201849866Y-67677759D01*
X201849866Y-67677759D02*
X202058626Y-69163161D01*
X196502418Y-68429293D02*
X196711178Y-69914695D01*
X198715801Y-68370680D02*
X198854975Y-69360948D01*
X198854975Y-69360948D02*
X199676629Y-68740558D01*
X199676629Y-68740558D02*
X198715801Y-68370680D01*
X199706069Y-68231506D02*
X199845243Y-69221774D01*
%TO.C,D1*%
X51052635Y-71491805D02*
X45861821Y-72980247D01*
X45448365Y-71538355D02*
X50639179Y-70049913D01*
X50639179Y-70049913D02*
X51052635Y-71491805D01*
X45448365Y-71538355D02*
X45861821Y-72980247D01*
X47632050Y-71172268D02*
X47907688Y-72133530D01*
X47907688Y-72133530D02*
X48635005Y-71404825D01*
X48635005Y-71404825D02*
X47632050Y-71172268D01*
X48593312Y-70896630D02*
X48868950Y-71857892D01*
%TO.C,D2*%
X69355723Y-60309139D02*
X64008275Y-61060673D01*
X63799515Y-59575271D02*
X69146963Y-58823737D01*
X69146963Y-58823737D02*
X69355723Y-60309139D01*
X63799515Y-59575271D02*
X64008275Y-61060673D01*
X66012898Y-59516658D02*
X66152072Y-60506926D01*
X66152072Y-60506926D02*
X66973726Y-59886536D01*
X66973726Y-59886536D02*
X66012898Y-59516658D01*
X67003166Y-59377484D02*
X67142340Y-60367752D01*
%TO.C,D3*%
X89700000Y-56500000D02*
X84300000Y-56500000D01*
X84300000Y-55000000D02*
X89700000Y-55000000D01*
X89700000Y-55000000D02*
X89700000Y-56500000D01*
X84300000Y-55000000D02*
X84300000Y-56500000D01*
X86500000Y-55250000D02*
X86500000Y-56250000D01*
X86500000Y-56250000D02*
X87400000Y-55750000D01*
X87400000Y-55750000D02*
X86500000Y-55250000D01*
X87500000Y-55250000D02*
X87500000Y-56250000D01*
%TO.C,D4*%
X110376418Y-55060673D02*
X105028970Y-54309139D01*
X105237730Y-52823737D02*
X110585178Y-53575271D01*
X110585178Y-53575271D02*
X110376418Y-55060673D01*
X105237730Y-52823737D02*
X105028970Y-54309139D01*
X107381527Y-53377484D02*
X107242353Y-54367752D01*
X107242353Y-54367752D02*
X108203181Y-53997874D01*
X108203181Y-53997874D02*
X107381527Y-53377484D01*
X108371795Y-53516658D02*
X108232621Y-54506926D01*
%TO.C,D5*%
X125230439Y-57148270D02*
X119882991Y-56396736D01*
X120091751Y-54911334D02*
X125439199Y-55662868D01*
X125439199Y-55662868D02*
X125230439Y-57148270D01*
X120091751Y-54911334D02*
X119882991Y-56396736D01*
X122235548Y-55465081D02*
X122096374Y-56455349D01*
X122096374Y-56455349D02*
X123057202Y-56085471D01*
X123057202Y-56085471D02*
X122235548Y-55465081D01*
X123225816Y-55604255D02*
X123086642Y-56594523D01*
%TO.C,D6*%
X55187196Y-85910730D02*
X49996382Y-87399172D01*
X49582926Y-85957280D02*
X54773740Y-84468838D01*
X54773740Y-84468838D02*
X55187196Y-85910730D01*
X49582926Y-85957280D02*
X49996382Y-87399172D01*
X51766611Y-85591193D02*
X52042249Y-86552455D01*
X52042249Y-86552455D02*
X52769566Y-85823750D01*
X52769566Y-85823750D02*
X51766611Y-85591193D01*
X52727873Y-85315555D02*
X53003511Y-86276817D01*
%TO.C,D7*%
X71443319Y-75163159D02*
X66095871Y-75914693D01*
X65887111Y-74429291D02*
X71234559Y-73677757D01*
X71234559Y-73677757D02*
X71443319Y-75163159D01*
X65887111Y-74429291D02*
X66095871Y-75914693D01*
X68100494Y-74370678D02*
X68239668Y-75360946D01*
X68239668Y-75360946D02*
X69061322Y-74740556D01*
X69061322Y-74740556D02*
X68100494Y-74370678D01*
X69090762Y-74231504D02*
X69229936Y-75221772D01*
%TO.C,D8*%
X89700000Y-71500000D02*
X84300000Y-71500000D01*
X84300000Y-70000000D02*
X89700000Y-70000000D01*
X89700000Y-70000000D02*
X89700000Y-71500000D01*
X84300000Y-70000000D02*
X84300000Y-71500000D01*
X86500000Y-70250000D02*
X86500000Y-71250000D01*
X86500000Y-71250000D02*
X87400000Y-70750000D01*
X87400000Y-70750000D02*
X86500000Y-70250000D01*
X87500000Y-70250000D02*
X87500000Y-71250000D01*
%TO.C,D9*%
X108288822Y-69914695D02*
X102941374Y-69163161D01*
X103150134Y-67677759D02*
X108497582Y-68429293D01*
X108497582Y-68429293D02*
X108288822Y-69914695D01*
X103150134Y-67677759D02*
X102941374Y-69163161D01*
X105293931Y-68231506D02*
X105154757Y-69221774D01*
X105154757Y-69221774D02*
X106115585Y-68851896D01*
X106115585Y-68851896D02*
X105293931Y-68231506D01*
X106284199Y-68370680D02*
X106145025Y-69360948D01*
%TO.C,D10*%
X123142843Y-72002290D02*
X117795395Y-71250756D01*
X118004155Y-69765354D02*
X123351603Y-70516888D01*
X123351603Y-70516888D02*
X123142843Y-72002290D01*
X118004155Y-69765354D02*
X117795395Y-71250756D01*
X120147952Y-70319101D02*
X120008778Y-71309369D01*
X120008778Y-71309369D02*
X120969606Y-70939491D01*
X120969606Y-70939491D02*
X120147952Y-70319101D01*
X121138220Y-70458275D02*
X120999046Y-71448543D01*
%TO.C,D12*%
X73530916Y-90017181D02*
X68183468Y-90768715D01*
X67974708Y-89283313D02*
X73322156Y-88531779D01*
X73322156Y-88531779D02*
X73530916Y-90017181D01*
X67974708Y-89283313D02*
X68183468Y-90768715D01*
X70188091Y-89224700D02*
X70327265Y-90214968D01*
X70327265Y-90214968D02*
X71148919Y-89594578D01*
X71148919Y-89594578D02*
X70188091Y-89224700D01*
X71178359Y-89085526D02*
X71317533Y-90075794D01*
%TO.C,D13*%
X89700000Y-86500000D02*
X84300000Y-86500000D01*
X84300000Y-85000000D02*
X89700000Y-85000000D01*
X89700000Y-85000000D02*
X89700000Y-86500000D01*
X84300000Y-85000000D02*
X84300000Y-86500000D01*
X86500000Y-85250000D02*
X86500000Y-86250000D01*
X86500000Y-86250000D02*
X87400000Y-85750000D01*
X87400000Y-85750000D02*
X86500000Y-85250000D01*
X87500000Y-85250000D02*
X87500000Y-86250000D01*
%TO.C,D14*%
X106201225Y-84768715D02*
X100853777Y-84017181D01*
X101062537Y-82531779D02*
X106409985Y-83283313D01*
X106409985Y-83283313D02*
X106201225Y-84768715D01*
X101062537Y-82531779D02*
X100853777Y-84017181D01*
X103206334Y-83085526D02*
X103067160Y-84075794D01*
X103067160Y-84075794D02*
X104027988Y-83705916D01*
X104027988Y-83705916D02*
X103206334Y-83085526D01*
X104196602Y-83224700D02*
X104057428Y-84214968D01*
%TO.C,D15*%
X121055246Y-86856311D02*
X115707798Y-86104777D01*
X115916558Y-84619375D02*
X121264006Y-85370909D01*
X121264006Y-85370909D02*
X121055246Y-86856311D01*
X115916558Y-84619375D02*
X115707798Y-86104777D01*
X118060355Y-85173122D02*
X117921181Y-86163390D01*
X117921181Y-86163390D02*
X118882009Y-85793512D01*
X118882009Y-85793512D02*
X118060355Y-85173122D01*
X119050623Y-85312296D02*
X118911449Y-86302564D01*
%TO.C,D16*%
X108775969Y-103420648D02*
X103458007Y-104358348D01*
X103197535Y-102881136D02*
X108515497Y-101943436D01*
X108515497Y-101943436D02*
X108775969Y-103420648D01*
X103197535Y-102881136D02*
X103458007Y-104358348D01*
X105407524Y-102745312D02*
X105581172Y-103730120D01*
X105581172Y-103730120D02*
X106380675Y-103081433D01*
X106380675Y-103081433D02*
X105407524Y-102745312D01*
X106392332Y-102571664D02*
X106565980Y-103556472D01*
%TO.C,D17*%
X125700000Y-102412426D02*
X120300000Y-102412426D01*
X120300000Y-100912426D02*
X125700000Y-100912426D01*
X125700000Y-100912426D02*
X125700000Y-102412426D01*
X120300000Y-100912426D02*
X120300000Y-102412426D01*
X122500000Y-101162426D02*
X122500000Y-102162426D01*
X122500000Y-102162426D02*
X123400000Y-101662426D01*
X123400000Y-101662426D02*
X122500000Y-101162426D01*
X123500000Y-101162426D02*
X123500000Y-102162426D01*
%TO.C,D18*%
X142541993Y-104358348D02*
X137224031Y-103420648D01*
X137484503Y-101943436D02*
X142802465Y-102881136D01*
X142802465Y-102881136D02*
X142541993Y-104358348D01*
X137484503Y-101943436D02*
X137224031Y-103420648D01*
X139607668Y-102571664D02*
X139434020Y-103556472D01*
X139434020Y-103556472D02*
X140407171Y-103220351D01*
X140407171Y-103220351D02*
X139607668Y-102571664D01*
X140592476Y-102745312D02*
X140418828Y-103730120D01*
%TO.C,D20*%
X240991724Y-61060673D02*
X235644276Y-60309139D01*
X235853036Y-58823737D02*
X241200484Y-59575271D01*
X241200484Y-59575271D02*
X240991724Y-61060673D01*
X235853036Y-58823737D02*
X235644276Y-60309139D01*
X237996833Y-59377484D02*
X237857659Y-60367752D01*
X237857659Y-60367752D02*
X238818487Y-59997874D01*
X238818487Y-59997874D02*
X237996833Y-59377484D01*
X238987101Y-59516658D02*
X238847927Y-60506926D01*
%TO.C,D21*%
X220700000Y-56500000D02*
X215300000Y-56500000D01*
X215300000Y-55000000D02*
X220700000Y-55000000D01*
X220700000Y-55000000D02*
X220700000Y-56500000D01*
X215300000Y-55000000D02*
X215300000Y-56500000D01*
X217500000Y-55250000D02*
X217500000Y-56250000D01*
X217500000Y-56250000D02*
X218400000Y-55750000D01*
X218400000Y-55750000D02*
X217500000Y-55250000D01*
X218500000Y-55250000D02*
X218500000Y-56250000D01*
%TO.C,D22*%
X199971030Y-54309139D02*
X194623582Y-55060673D01*
X194414822Y-53575271D02*
X199762270Y-52823737D01*
X199762270Y-52823737D02*
X199971030Y-54309139D01*
X194414822Y-53575271D02*
X194623582Y-55060673D01*
X196628205Y-53516658D02*
X196767379Y-54506926D01*
X196767379Y-54506926D02*
X197589033Y-53886536D01*
X197589033Y-53886536D02*
X196628205Y-53516658D01*
X197618473Y-53377484D02*
X197757647Y-54367752D01*
%TO.C,D23*%
X185117009Y-56396736D02*
X179769561Y-57148270D01*
X179560801Y-55662868D02*
X184908249Y-54911334D01*
X184908249Y-54911334D02*
X185117009Y-56396736D01*
X179560801Y-55662868D02*
X179769561Y-57148270D01*
X181774184Y-55604255D02*
X181913358Y-56594523D01*
X181913358Y-56594523D02*
X182735012Y-55974133D01*
X182735012Y-55974133D02*
X181774184Y-55604255D01*
X182764452Y-55465081D02*
X182903626Y-56455349D01*
%TO.C,D24*%
X255003617Y-87399172D02*
X249812803Y-85910730D01*
X250226259Y-84468838D02*
X255417073Y-85957280D01*
X255417073Y-85957280D02*
X255003617Y-87399172D01*
X250226259Y-84468838D02*
X249812803Y-85910730D01*
X252272126Y-85315555D02*
X251996488Y-86276817D01*
X251996488Y-86276817D02*
X252999443Y-86044260D01*
X252999443Y-86044260D02*
X252272126Y-85315555D01*
X253233388Y-85591193D02*
X252957750Y-86552455D01*
%TO.C,D25*%
X238904128Y-75914693D02*
X233556680Y-75163159D01*
X233765440Y-73677757D02*
X239112888Y-74429291D01*
X239112888Y-74429291D02*
X238904128Y-75914693D01*
X233765440Y-73677757D02*
X233556680Y-75163159D01*
X235909237Y-74231504D02*
X235770063Y-75221772D01*
X235770063Y-75221772D02*
X236730891Y-74851894D01*
X236730891Y-74851894D02*
X235909237Y-74231504D01*
X236899505Y-74370678D02*
X236760331Y-75360946D01*
%TO.C,D26*%
X220700000Y-71500000D02*
X215300000Y-71500000D01*
X215300000Y-70000000D02*
X220700000Y-70000000D01*
X220700000Y-70000000D02*
X220700000Y-71500000D01*
X215300000Y-70000000D02*
X215300000Y-71500000D01*
X217500000Y-70250000D02*
X217500000Y-71250000D01*
X217500000Y-71250000D02*
X218400000Y-70750000D01*
X218400000Y-70750000D02*
X217500000Y-70250000D01*
X218500000Y-70250000D02*
X218500000Y-71250000D01*
%TO.C,D28*%
X187204605Y-71250756D02*
X181857157Y-72002290D01*
X181648397Y-70516888D02*
X186995845Y-69765354D01*
X186995845Y-69765354D02*
X187204605Y-71250756D01*
X181648397Y-70516888D02*
X181857157Y-72002290D01*
X183861780Y-70458275D02*
X184000954Y-71448543D01*
X184000954Y-71448543D02*
X184822608Y-70828153D01*
X184822608Y-70828153D02*
X183861780Y-70458275D01*
X184852048Y-70319101D02*
X184991222Y-71309369D01*
%TO.C,D29*%
X250869057Y-101818098D02*
X245678243Y-100329656D01*
X246091699Y-98887764D02*
X251282513Y-100376206D01*
X251282513Y-100376206D02*
X250869057Y-101818098D01*
X246091699Y-98887764D02*
X245678243Y-100329656D01*
X248137566Y-99734481D02*
X247861928Y-100695743D01*
X247861928Y-100695743D02*
X248864883Y-100463186D01*
X248864883Y-100463186D02*
X248137566Y-99734481D01*
X249098828Y-100010119D02*
X248823190Y-100971381D01*
%TO.C,D30*%
X236816531Y-90768715D02*
X231469083Y-90017181D01*
X231677843Y-88531779D02*
X237025291Y-89283313D01*
X237025291Y-89283313D02*
X236816531Y-90768715D01*
X231677843Y-88531779D02*
X231469083Y-90017181D01*
X233821640Y-89085526D02*
X233682466Y-90075794D01*
X233682466Y-90075794D02*
X234643294Y-89705916D01*
X234643294Y-89705916D02*
X233821640Y-89085526D01*
X234811908Y-89224700D02*
X234672734Y-90214968D01*
%TO.C,D31*%
X220700000Y-86500000D02*
X215300000Y-86500000D01*
X215300000Y-85000000D02*
X220700000Y-85000000D01*
X220700000Y-85000000D02*
X220700000Y-86500000D01*
X215300000Y-85000000D02*
X215300000Y-86500000D01*
X217500000Y-85250000D02*
X217500000Y-86250000D01*
X217500000Y-86250000D02*
X218400000Y-85750000D01*
X218400000Y-85750000D02*
X217500000Y-85250000D01*
X218500000Y-85250000D02*
X218500000Y-86250000D01*
%TO.C,D32*%
X204146223Y-84017181D02*
X198798775Y-84768715D01*
X198590015Y-83283313D02*
X203937463Y-82531779D01*
X203937463Y-82531779D02*
X204146223Y-84017181D01*
X198590015Y-83283313D02*
X198798775Y-84768715D01*
X200803398Y-83224700D02*
X200942572Y-84214968D01*
X200942572Y-84214968D02*
X201764226Y-83594578D01*
X201764226Y-83594578D02*
X200803398Y-83224700D01*
X201793666Y-83085526D02*
X201932840Y-84075794D01*
%TO.C,D33*%
X189292202Y-86104777D02*
X183944754Y-86856311D01*
X183735994Y-85370909D02*
X189083442Y-84619375D01*
X189083442Y-84619375D02*
X189292202Y-86104777D01*
X183735994Y-85370909D02*
X183944754Y-86856311D01*
X185949377Y-85312296D02*
X186088551Y-86302564D01*
X186088551Y-86302564D02*
X186910205Y-85682174D01*
X186910205Y-85682174D02*
X185949377Y-85312296D01*
X186939645Y-85173122D02*
X187078819Y-86163390D01*
%TO.C,D34*%
X201541993Y-104358348D02*
X196224031Y-103420648D01*
X196484503Y-101943436D02*
X201802465Y-102881136D01*
X201802465Y-102881136D02*
X201541993Y-104358348D01*
X196484503Y-101943436D02*
X196224031Y-103420648D01*
X198607668Y-102571664D02*
X198434020Y-103556472D01*
X198434020Y-103556472D02*
X199407171Y-103220351D01*
X199407171Y-103220351D02*
X198607668Y-102571664D01*
X199592476Y-102745312D02*
X199418828Y-103730120D01*
%TO.C,D35*%
X184700000Y-102412426D02*
X179300000Y-102412426D01*
X179300000Y-100912426D02*
X184700000Y-100912426D01*
X184700000Y-100912426D02*
X184700000Y-102412426D01*
X179300000Y-100912426D02*
X179300000Y-102412426D01*
X181500000Y-101162426D02*
X181500000Y-102162426D01*
X181500000Y-102162426D02*
X182400000Y-101662426D01*
X182400000Y-101662426D02*
X181500000Y-101162426D01*
X182500000Y-101162426D02*
X182500000Y-102162426D01*
%TO.C,D36*%
X167775969Y-103420648D02*
X162458007Y-104358348D01*
X162197535Y-102881136D02*
X167515497Y-101943436D01*
X167515497Y-101943436D02*
X167775969Y-103420648D01*
X162197535Y-102881136D02*
X162458007Y-104358348D01*
X164407524Y-102745312D02*
X164581172Y-103730120D01*
X164581172Y-103730120D02*
X165380675Y-103081433D01*
X165380675Y-103081433D02*
X164407524Y-102745312D01*
X165392332Y-102571664D02*
X165565980Y-103556472D01*
%TO.C,SW1*%
X44374515Y-83393601D02*
X44539898Y-83970358D01*
X52021529Y-79224286D02*
X49618375Y-79913380D01*
X50378112Y-84376876D02*
X49759662Y-84034064D01*
X49484025Y-83072802D02*
X49759662Y-84034064D01*
X44539898Y-83970358D02*
X48865575Y-82729990D01*
X52639978Y-79567098D02*
X52021529Y-79224286D01*
X53604709Y-82931514D02*
X53261897Y-83549964D01*
X53261897Y-83549964D02*
X50378112Y-84376876D01*
X47763026Y-78884943D02*
X47570080Y-78212060D01*
X47570080Y-78212060D02*
X43244402Y-79452428D01*
X43244402Y-79452428D02*
X43382221Y-79933059D01*
X49618374Y-79913379D02*
G75*
G02*
X47763026Y-78884943I-413456J1441892D01*
G01*
X48865575Y-82729990D02*
G75*
G02*
X49484025Y-83072802I137819J-480631D01*
G01*
%TO.C,SW2*%
X61086185Y-71165692D02*
X61169689Y-71759853D01*
X69239035Y-68101211D02*
X66763364Y-68449144D01*
X66894509Y-72974937D02*
X66329789Y-72549389D01*
X66190616Y-71559121D02*
X66329789Y-72549389D01*
X61169689Y-71759853D02*
X65625895Y-71133574D01*
X69803755Y-68526759D02*
X69239035Y-68101211D01*
X70290861Y-71992697D02*
X69865314Y-72557418D01*
X69865314Y-72557418D02*
X66894509Y-72974937D01*
X65069203Y-67172502D02*
X64971781Y-66479314D01*
X64971781Y-66479314D02*
X60515575Y-67105593D01*
X60515575Y-67105593D02*
X60585162Y-67600727D01*
X66763365Y-68449144D02*
G75*
G02*
X65069203Y-67172502I-208760J1485402D01*
G01*
X65625895Y-71133574D02*
G75*
G02*
X66190616Y-71559121I69587J-495134D01*
G01*
%TO.C,SW3*%
X80000000Y-66100000D02*
X80000000Y-66700000D01*
X88500000Y-64200000D02*
X86000000Y-64200000D01*
X85500000Y-68700000D02*
X85000000Y-68200000D01*
X85000000Y-67200000D02*
X85000000Y-68200000D01*
X80000000Y-66700000D02*
X84500000Y-66700000D01*
X89000000Y-64700000D02*
X88500000Y-64200000D01*
X89000000Y-68200000D02*
X88500000Y-68700000D01*
X88500000Y-68700000D02*
X85500000Y-68700000D01*
X84500000Y-62700000D02*
X84500000Y-62000000D01*
X84500000Y-62000000D02*
X80000000Y-62000000D01*
X80000000Y-62000000D02*
X80000000Y-62500000D01*
X86000000Y-64200000D02*
G75*
G02*
X84500000Y-62700000I0J1500000D01*
G01*
X84500000Y-66700000D02*
G75*
G02*
X85000000Y-67200000I0J-500000D01*
G01*
%TO.C,SW4*%
X99434756Y-63217268D02*
X99351252Y-63811429D01*
X108116464Y-62518731D02*
X105640793Y-62170798D01*
X104519380Y-66557418D02*
X104093833Y-65992697D01*
X104233006Y-65002429D02*
X104093833Y-65992697D01*
X99351252Y-63811429D02*
X103807459Y-64437708D01*
X108542011Y-63083451D02*
X108116464Y-62518731D01*
X108054905Y-66549389D02*
X107490185Y-66974937D01*
X107490185Y-66974937D02*
X104519380Y-66557418D01*
X104364151Y-60476636D02*
X104461572Y-59783448D01*
X104461572Y-59783448D02*
X100005366Y-59157169D01*
X100005366Y-59157169D02*
X99935779Y-59652303D01*
X105640793Y-62170798D02*
G75*
G02*
X104364151Y-60476636I208760J1485402D01*
G01*
X103807459Y-64437708D02*
G75*
G02*
X104233006Y-65002429I-69587J-495134D01*
G01*
%TO.C,SW5*%
X114288777Y-65304865D02*
X114205273Y-65899026D01*
X122970485Y-64606328D02*
X120494814Y-64258395D01*
X119373401Y-68645015D02*
X118947854Y-68080294D01*
X119087027Y-67090026D02*
X118947854Y-68080294D01*
X114205273Y-65899026D02*
X118661480Y-66525305D01*
X123396032Y-65171048D02*
X122970485Y-64606328D01*
X122908926Y-68636986D02*
X122344206Y-69062534D01*
X122344206Y-69062534D02*
X119373401Y-68645015D01*
X119218172Y-62564233D02*
X119315593Y-61871045D01*
X119315593Y-61871045D02*
X114859387Y-61244766D01*
X114859387Y-61244766D02*
X114789800Y-61739900D01*
X120494814Y-64258395D02*
G75*
G02*
X119218172Y-62564233I208760J1485402D01*
G01*
X118661480Y-66525305D02*
G75*
G02*
X119087027Y-67090026I-69587J-495134D01*
G01*
%TO.C,SW6*%
X48509076Y-97812526D02*
X48674459Y-98389283D01*
X56156090Y-93643211D02*
X53752936Y-94332305D01*
X54512673Y-98795801D02*
X53894223Y-98452989D01*
X53618586Y-97491727D02*
X53894223Y-98452989D01*
X48674459Y-98389283D02*
X53000136Y-97148915D01*
X56774539Y-93986023D02*
X56156090Y-93643211D01*
X57739270Y-97350439D02*
X57396458Y-97968889D01*
X57396458Y-97968889D02*
X54512673Y-98795801D01*
X51897587Y-93303868D02*
X51704641Y-92630985D01*
X51704641Y-92630985D02*
X47378963Y-93871353D01*
X47378963Y-93871353D02*
X47516782Y-94351984D01*
X53752935Y-94332304D02*
G75*
G02*
X51897587Y-93303868I-413456J1441892D01*
G01*
X53000136Y-97148915D02*
G75*
G02*
X53618586Y-97491727I137819J-480631D01*
G01*
%TO.C,SW7*%
X63173781Y-86019712D02*
X63257285Y-86613873D01*
X71326631Y-82955231D02*
X68850960Y-83303164D01*
X68982105Y-87828957D02*
X68417385Y-87403409D01*
X68278212Y-86413141D02*
X68417385Y-87403409D01*
X63257285Y-86613873D02*
X67713491Y-85987594D01*
X71891351Y-83380779D02*
X71326631Y-82955231D01*
X72378457Y-86846717D02*
X71952910Y-87411438D01*
X71952910Y-87411438D02*
X68982105Y-87828957D01*
X67156799Y-82026522D02*
X67059377Y-81333334D01*
X67059377Y-81333334D02*
X62603171Y-81959613D01*
X62603171Y-81959613D02*
X62672758Y-82454747D01*
X68850961Y-83303164D02*
G75*
G02*
X67156799Y-82026522I-208760J1485402D01*
G01*
X67713491Y-85987594D02*
G75*
G02*
X68278212Y-86413141I69587J-495134D01*
G01*
%TO.C,SW8*%
X80000000Y-81100000D02*
X80000000Y-81700000D01*
X88500000Y-79200000D02*
X86000000Y-79200000D01*
X85500000Y-83700000D02*
X85000000Y-83200000D01*
X85000000Y-82200000D02*
X85000000Y-83200000D01*
X80000000Y-81700000D02*
X84500000Y-81700000D01*
X89000000Y-79700000D02*
X88500000Y-79200000D01*
X89000000Y-83200000D02*
X88500000Y-83700000D01*
X88500000Y-83700000D02*
X85500000Y-83700000D01*
X84500000Y-77700000D02*
X84500000Y-77000000D01*
X84500000Y-77000000D02*
X80000000Y-77000000D01*
X80000000Y-77000000D02*
X80000000Y-77500000D01*
X86000000Y-79200000D02*
G75*
G02*
X84500000Y-77700000I0J1500000D01*
G01*
X84500000Y-81700000D02*
G75*
G02*
X85000000Y-82200000I0J-500000D01*
G01*
%TO.C,SW9*%
X97347160Y-78071290D02*
X97263656Y-78665451D01*
X106028868Y-77372753D02*
X103553197Y-77024820D01*
X102431784Y-81411440D02*
X102006237Y-80846719D01*
X102145410Y-79856451D02*
X102006237Y-80846719D01*
X97263656Y-78665451D02*
X101719863Y-79291730D01*
X106454415Y-77937473D02*
X106028868Y-77372753D01*
X105967309Y-81403411D02*
X105402589Y-81828959D01*
X105402589Y-81828959D02*
X102431784Y-81411440D01*
X102276555Y-75330658D02*
X102373976Y-74637470D01*
X102373976Y-74637470D02*
X97917770Y-74011191D01*
X97917770Y-74011191D02*
X97848183Y-74506325D01*
X103553197Y-77024820D02*
G75*
G02*
X102276555Y-75330658I208760J1485402D01*
G01*
X101719863Y-79291730D02*
G75*
G02*
X102145410Y-79856451I-69587J-495134D01*
G01*
%TO.C,SW10*%
X112201181Y-80158885D02*
X112117677Y-80753046D01*
X120882889Y-79460348D02*
X118407218Y-79112415D01*
X117285805Y-83499035D02*
X116860258Y-82934314D01*
X116999431Y-81944046D02*
X116860258Y-82934314D01*
X112117677Y-80753046D02*
X116573884Y-81379325D01*
X121308436Y-80025068D02*
X120882889Y-79460348D01*
X120821330Y-83491006D02*
X120256610Y-83916554D01*
X120256610Y-83916554D02*
X117285805Y-83499035D01*
X117130576Y-77418253D02*
X117227997Y-76725065D01*
X117227997Y-76725065D02*
X112771791Y-76098786D01*
X112771791Y-76098786D02*
X112702204Y-76593920D01*
X118407218Y-79112415D02*
G75*
G02*
X117130576Y-77418253I208760J1485402D01*
G01*
X116573884Y-81379325D02*
G75*
G02*
X116999431Y-81944046I-69587J-495134D01*
G01*
%TO.C,SW11*%
X52643636Y-112231452D02*
X52809019Y-112808209D01*
X60290650Y-108062137D02*
X57887496Y-108751231D01*
X58647233Y-113214727D02*
X58028783Y-112871915D01*
X57753146Y-111910653D02*
X58028783Y-112871915D01*
X52809019Y-112808209D02*
X57134696Y-111567841D01*
X60909099Y-108404949D02*
X60290650Y-108062137D01*
X61873830Y-111769365D02*
X61531018Y-112387815D01*
X61531018Y-112387815D02*
X58647233Y-113214727D01*
X56032147Y-107722794D02*
X55839201Y-107049911D01*
X55839201Y-107049911D02*
X51513523Y-108290279D01*
X51513523Y-108290279D02*
X51651342Y-108770910D01*
X57887495Y-108751230D02*
G75*
G02*
X56032147Y-107722794I-413456J1441892D01*
G01*
X57134696Y-111567841D02*
G75*
G02*
X57753146Y-111910653I137819J-480631D01*
G01*
%TO.C,SW15*%
X110113584Y-95012906D02*
X110030080Y-95607067D01*
X118795292Y-94314369D02*
X116319621Y-93966436D01*
X115198208Y-98353056D02*
X114772661Y-97788335D01*
X114911834Y-96798067D02*
X114772661Y-97788335D01*
X110030080Y-95607067D02*
X114486287Y-96233346D01*
X119220839Y-94879089D02*
X118795292Y-94314369D01*
X118733733Y-98345027D02*
X118169013Y-98770575D01*
X118169013Y-98770575D02*
X115198208Y-98353056D01*
X115042979Y-92272274D02*
X115140400Y-91579086D01*
X115140400Y-91579086D02*
X110684194Y-90952807D01*
X110684194Y-90952807D02*
X110614607Y-91447941D01*
X116319621Y-93966436D02*
G75*
G02*
X115042979Y-92272274I208760J1485402D01*
G01*
X114486287Y-96233346D02*
G75*
G02*
X114911834Y-96798067I-69587J-495134D01*
G01*
%TO.C,SW16*%
X100890357Y-114559190D02*
X100994545Y-115150074D01*
X108931291Y-111212045D02*
X106469272Y-111646166D01*
X106758284Y-116164625D02*
X106179056Y-115759045D01*
X106005408Y-114774237D02*
X106179056Y-115759045D01*
X100994545Y-115150074D02*
X105426180Y-114368658D01*
X109510519Y-111617625D02*
X108931291Y-111212045D01*
X110118287Y-115064452D02*
X109712708Y-115643680D01*
X109712708Y-115643680D02*
X106758284Y-116164625D01*
X104731588Y-110429427D02*
X104610034Y-109740061D01*
X104610034Y-109740061D02*
X100178399Y-110521478D01*
X100178399Y-110521478D02*
X100265223Y-111013882D01*
X106469272Y-111646165D02*
G75*
G02*
X104731588Y-110429427I-260473J1477211D01*
G01*
X105426180Y-114368657D02*
G75*
G02*
X106005408Y-114774237I86824J-492404D01*
G01*
%TO.C,SW17*%
X116000000Y-112012426D02*
X116000000Y-112612426D01*
X124500000Y-110112426D02*
X122000000Y-110112426D01*
X121500000Y-114612426D02*
X121000000Y-114112426D01*
X121000000Y-113112426D02*
X121000000Y-114112426D01*
X116000000Y-112612426D02*
X120500000Y-112612426D01*
X125000000Y-110612426D02*
X124500000Y-110112426D01*
X125000000Y-114112426D02*
X124500000Y-114612426D01*
X124500000Y-114612426D02*
X121500000Y-114612426D01*
X120500000Y-108612426D02*
X120500000Y-107912426D01*
X120500000Y-107912426D02*
X116000000Y-107912426D01*
X116000000Y-107912426D02*
X116000000Y-108412426D01*
X122000000Y-110112426D02*
G75*
G02*
X120500000Y-108612426I0J1500000D01*
G01*
X120500000Y-112612426D02*
G75*
G02*
X121000000Y-113112426I0J-500000D01*
G01*
%TO.C,SW18*%
X131322336Y-112128115D02*
X131218147Y-112719000D01*
X140023133Y-111732990D02*
X137561114Y-111298870D01*
X136287293Y-115643680D02*
X135881714Y-115064452D01*
X136055362Y-114079645D02*
X135881714Y-115064452D01*
X131218147Y-112719000D02*
X135649782Y-113500417D01*
X140428713Y-112312218D02*
X140023133Y-111732990D01*
X139820945Y-115759045D02*
X139241717Y-116164625D01*
X139241717Y-116164625D02*
X136287293Y-115643680D01*
X136344375Y-109561186D02*
X136465928Y-108871820D01*
X136465928Y-108871820D02*
X132034293Y-108090403D01*
X132034293Y-108090403D02*
X131947469Y-108582807D01*
X137561114Y-111298869D02*
G75*
G02*
X136344375Y-109561186I260472J1477211D01*
G01*
X135649782Y-113500417D02*
G75*
G02*
X136055362Y-114079645I-86824J-492404D01*
G01*
%TO.C,SW19*%
X247167821Y-79534678D02*
X247002439Y-80111435D01*
X255862256Y-80051198D02*
X253459102Y-79362105D01*
X251738103Y-83549964D02*
X251395291Y-82931514D01*
X251670928Y-81970253D02*
X251395291Y-82931514D01*
X247002439Y-80111435D02*
X251328116Y-81351803D01*
X256205068Y-80669648D02*
X255862256Y-80051198D01*
X255240338Y-84034064D02*
X254621888Y-84376876D01*
X254621888Y-84376876D02*
X251738103Y-83549964D01*
X252430666Y-77506756D02*
X252623612Y-76833873D01*
X252623612Y-76833873D02*
X248297934Y-75593505D01*
X248297934Y-75593505D02*
X248160115Y-76074136D01*
X253459102Y-79362104D02*
G75*
G02*
X252430666Y-77506756I413456J1441892D01*
G01*
X251328116Y-81351803D02*
G75*
G02*
X251670928Y-81970253I-137819J-480631D01*
G01*
%TO.C,SW20*%
X230050062Y-69217268D02*
X229966558Y-69811429D01*
X238731770Y-68518731D02*
X236256099Y-68170798D01*
X235134686Y-72557418D02*
X234709139Y-71992697D01*
X234848312Y-71002429D02*
X234709139Y-71992697D01*
X229966558Y-69811429D02*
X234422765Y-70437708D01*
X239157317Y-69083451D02*
X238731770Y-68518731D01*
X238670211Y-72549389D02*
X238105491Y-72974937D01*
X238105491Y-72974937D02*
X235134686Y-72557418D01*
X234979457Y-66476636D02*
X235076878Y-65783448D01*
X235076878Y-65783448D02*
X230620672Y-65157169D01*
X230620672Y-65157169D02*
X230551085Y-65652303D01*
X236256099Y-68170798D02*
G75*
G02*
X234979457Y-66476636I208760J1485402D01*
G01*
X234422765Y-70437708D02*
G75*
G02*
X234848312Y-71002429I-69587J-495134D01*
G01*
%TO.C,SW21*%
X211000000Y-66100000D02*
X211000000Y-66700000D01*
X219500000Y-64200000D02*
X217000000Y-64200000D01*
X216500000Y-68700000D02*
X216000000Y-68200000D01*
X216000000Y-67200000D02*
X216000000Y-68200000D01*
X211000000Y-66700000D02*
X215500000Y-66700000D01*
X220000000Y-64700000D02*
X219500000Y-64200000D01*
X220000000Y-68200000D02*
X219500000Y-68700000D01*
X219500000Y-68700000D02*
X216500000Y-68700000D01*
X215500000Y-62700000D02*
X215500000Y-62000000D01*
X215500000Y-62000000D02*
X211000000Y-62000000D01*
X211000000Y-62000000D02*
X211000000Y-62500000D01*
X217000000Y-64200000D02*
G75*
G02*
X215500000Y-62700000I0J1500000D01*
G01*
X215500000Y-66700000D02*
G75*
G02*
X216000000Y-67200000I0J-500000D01*
G01*
%TO.C,SW22*%
X191701492Y-65165692D02*
X191784996Y-65759853D01*
X199854342Y-62101211D02*
X197378671Y-62449144D01*
X197509816Y-66974937D02*
X196945096Y-66549389D01*
X196805923Y-65559121D02*
X196945096Y-66549389D01*
X191784996Y-65759853D02*
X196241202Y-65133574D01*
X200419062Y-62526759D02*
X199854342Y-62101211D01*
X200906168Y-65992697D02*
X200480621Y-66557418D01*
X200480621Y-66557418D02*
X197509816Y-66974937D01*
X195684510Y-61172502D02*
X195587088Y-60479314D01*
X195587088Y-60479314D02*
X191130882Y-61105593D01*
X191130882Y-61105593D02*
X191200469Y-61600727D01*
X197378672Y-62449144D02*
G75*
G02*
X195684510Y-61172502I-208760J1485402D01*
G01*
X196241202Y-65133574D02*
G75*
G02*
X196805923Y-65559121I69587J-495134D01*
G01*
%TO.C,SW23*%
X176847471Y-67253289D02*
X176930975Y-67847450D01*
X185000321Y-64188808D02*
X182524650Y-64536741D01*
X182655795Y-69062534D02*
X182091075Y-68636986D01*
X181951902Y-67646718D02*
X182091075Y-68636986D01*
X176930975Y-67847450D02*
X181387181Y-67221171D01*
X185565041Y-64614356D02*
X185000321Y-64188808D01*
X186052147Y-68080294D02*
X185626600Y-68645015D01*
X185626600Y-68645015D02*
X182655795Y-69062534D01*
X180830489Y-63260099D02*
X180733067Y-62566911D01*
X180733067Y-62566911D02*
X176276861Y-63193190D01*
X176276861Y-63193190D02*
X176346448Y-63688324D01*
X182524651Y-64536741D02*
G75*
G02*
X180830489Y-63260099I-208760J1485402D01*
G01*
X181387181Y-67221171D02*
G75*
G02*
X181951902Y-67646718I69587J-495134D01*
G01*
%TO.C,SW24*%
X243033260Y-93953603D02*
X242867878Y-94530360D01*
X251727695Y-94470123D02*
X249324541Y-93781030D01*
X247603542Y-97968889D02*
X247260730Y-97350439D01*
X247536367Y-96389178D02*
X247260730Y-97350439D01*
X242867878Y-94530360D02*
X247193555Y-95770728D01*
X252070507Y-95088573D02*
X251727695Y-94470123D01*
X251105777Y-98452989D02*
X250487327Y-98795801D01*
X250487327Y-98795801D02*
X247603542Y-97968889D01*
X248296105Y-91925681D02*
X248489051Y-91252798D01*
X248489051Y-91252798D02*
X244163373Y-90012430D01*
X244163373Y-90012430D02*
X244025554Y-90493061D01*
X249324541Y-93781029D02*
G75*
G02*
X248296105Y-91925681I413456J1441892D01*
G01*
X247193555Y-95770728D02*
G75*
G02*
X247536367Y-96389178I-137819J-480631D01*
G01*
%TO.C,SW25*%
X227962466Y-84071288D02*
X227878962Y-84665449D01*
X236644174Y-83372751D02*
X234168503Y-83024818D01*
X233047090Y-87411438D02*
X232621543Y-86846717D01*
X232760716Y-85856449D02*
X232621543Y-86846717D01*
X227878962Y-84665449D02*
X232335169Y-85291728D01*
X237069721Y-83937471D02*
X236644174Y-83372751D01*
X236582615Y-87403409D02*
X236017895Y-87828957D01*
X236017895Y-87828957D02*
X233047090Y-87411438D01*
X232891861Y-81330656D02*
X232989282Y-80637468D01*
X232989282Y-80637468D02*
X228533076Y-80011189D01*
X228533076Y-80011189D02*
X228463489Y-80506323D01*
X234168503Y-83024818D02*
G75*
G02*
X232891861Y-81330656I208760J1485402D01*
G01*
X232335169Y-85291728D02*
G75*
G02*
X232760716Y-85856449I-69587J-495134D01*
G01*
%TO.C,SW26*%
X211000000Y-81100000D02*
X211000000Y-81700000D01*
X219500000Y-79200000D02*
X217000000Y-79200000D01*
X216500000Y-83700000D02*
X216000000Y-83200000D01*
X216000000Y-82200000D02*
X216000000Y-83200000D01*
X211000000Y-81700000D02*
X215500000Y-81700000D01*
X220000000Y-79700000D02*
X219500000Y-79200000D01*
X220000000Y-83200000D02*
X219500000Y-83700000D01*
X219500000Y-83700000D02*
X216500000Y-83700000D01*
X215500000Y-77700000D02*
X215500000Y-77000000D01*
X215500000Y-77000000D02*
X211000000Y-77000000D01*
X211000000Y-77000000D02*
X211000000Y-77500000D01*
X217000000Y-79200000D02*
G75*
G02*
X215500000Y-77700000I0J1500000D01*
G01*
X215500000Y-81700000D02*
G75*
G02*
X216000000Y-82200000I0J-500000D01*
G01*
%TO.C,SW27*%
X193789088Y-80019714D02*
X193872592Y-80613875D01*
X201941938Y-76955233D02*
X199466267Y-77303166D01*
X199597412Y-81828959D02*
X199032692Y-81403411D01*
X198893519Y-80413143D02*
X199032692Y-81403411D01*
X193872592Y-80613875D02*
X198328798Y-79987596D01*
X202506658Y-77380781D02*
X201941938Y-76955233D01*
X202993764Y-80846719D02*
X202568217Y-81411440D01*
X202568217Y-81411440D02*
X199597412Y-81828959D01*
X197772106Y-76026524D02*
X197674684Y-75333336D01*
X197674684Y-75333336D02*
X193218478Y-75959615D01*
X193218478Y-75959615D02*
X193288065Y-76454749D01*
X199466268Y-77303166D02*
G75*
G02*
X197772106Y-76026524I-208760J1485402D01*
G01*
X198328798Y-79987596D02*
G75*
G02*
X198893519Y-80413143I69587J-495134D01*
G01*
%TO.C,SW28*%
X178935067Y-82107309D02*
X179018571Y-82701470D01*
X187087917Y-79042828D02*
X184612246Y-79390761D01*
X184743391Y-83916554D02*
X184178671Y-83491006D01*
X184039498Y-82500738D02*
X184178671Y-83491006D01*
X179018571Y-82701470D02*
X183474777Y-82075191D01*
X187652637Y-79468376D02*
X187087917Y-79042828D01*
X188139743Y-82934314D02*
X187714196Y-83499035D01*
X187714196Y-83499035D02*
X184743391Y-83916554D01*
X182918085Y-78114119D02*
X182820663Y-77420931D01*
X182820663Y-77420931D02*
X178364457Y-78047210D01*
X178364457Y-78047210D02*
X178434044Y-78542344D01*
X184612247Y-79390761D02*
G75*
G02*
X182918085Y-78114119I-208760J1485402D01*
G01*
X183474777Y-82075191D02*
G75*
G02*
X184039498Y-82500738I69587J-495134D01*
G01*
%TO.C,SW29*%
X238898700Y-108372529D02*
X238733318Y-108949286D01*
X247593135Y-108889049D02*
X245189981Y-108199956D01*
X243468982Y-112387815D02*
X243126170Y-111769365D01*
X243401807Y-110808104D02*
X243126170Y-111769365D01*
X238733318Y-108949286D02*
X243058995Y-110189654D01*
X247935947Y-109507499D02*
X247593135Y-108889049D01*
X246971217Y-112871915D02*
X246352767Y-113214727D01*
X246352767Y-113214727D02*
X243468982Y-112387815D01*
X244161545Y-106344607D02*
X244354491Y-105671724D01*
X244354491Y-105671724D02*
X240028813Y-104431356D01*
X240028813Y-104431356D02*
X239890994Y-104911987D01*
X245189981Y-108199955D02*
G75*
G02*
X244161545Y-106344607I413456J1441892D01*
G01*
X243058995Y-110189654D02*
G75*
G02*
X243401807Y-110808104I-137819J-480631D01*
G01*
%TO.C,SW30*%
X225874869Y-98925310D02*
X225791365Y-99519471D01*
X234556577Y-98226773D02*
X232080906Y-97878840D01*
X230959493Y-102265460D02*
X230533946Y-101700739D01*
X230673119Y-100710471D02*
X230533946Y-101700739D01*
X225791365Y-99519471D02*
X230247572Y-100145750D01*
X234982124Y-98791493D02*
X234556577Y-98226773D01*
X234495018Y-102257431D02*
X233930298Y-102682979D01*
X233930298Y-102682979D02*
X230959493Y-102265460D01*
X230804264Y-96184678D02*
X230901685Y-95491490D01*
X230901685Y-95491490D02*
X226445479Y-94865211D01*
X226445479Y-94865211D02*
X226375892Y-95360345D01*
X232080906Y-97878840D02*
G75*
G02*
X230804264Y-96184678I208760J1485402D01*
G01*
X230247572Y-100145750D02*
G75*
G02*
X230673119Y-100710471I-69587J-495134D01*
G01*
%TO.C,SW31*%
X211000000Y-96100000D02*
X211000000Y-96700000D01*
X219500000Y-94200000D02*
X217000000Y-94200000D01*
X216500000Y-98700000D02*
X216000000Y-98200000D01*
X216000000Y-97200000D02*
X216000000Y-98200000D01*
X211000000Y-96700000D02*
X215500000Y-96700000D01*
X220000000Y-94700000D02*
X219500000Y-94200000D01*
X220000000Y-98200000D02*
X219500000Y-98700000D01*
X219500000Y-98700000D02*
X216500000Y-98700000D01*
X215500000Y-92700000D02*
X215500000Y-92000000D01*
X215500000Y-92000000D02*
X211000000Y-92000000D01*
X211000000Y-92000000D02*
X211000000Y-92500000D01*
X217000000Y-94200000D02*
G75*
G02*
X215500000Y-92700000I0J1500000D01*
G01*
X215500000Y-96700000D02*
G75*
G02*
X216000000Y-97200000I0J-500000D01*
G01*
%TO.C,SW32*%
X195876685Y-94873734D02*
X195960189Y-95467895D01*
X204029535Y-91809253D02*
X201553864Y-92157186D01*
X201685009Y-96682979D02*
X201120289Y-96257431D01*
X200981116Y-95267163D02*
X201120289Y-96257431D01*
X195960189Y-95467895D02*
X200416395Y-94841616D01*
X204594255Y-92234801D02*
X204029535Y-91809253D01*
X205081361Y-95700739D02*
X204655814Y-96265460D01*
X204655814Y-96265460D02*
X201685009Y-96682979D01*
X199859703Y-90880544D02*
X199762281Y-90187356D01*
X199762281Y-90187356D02*
X195306075Y-90813635D01*
X195306075Y-90813635D02*
X195375662Y-91308769D01*
X201553865Y-92157186D02*
G75*
G02*
X199859703Y-90880544I-208760J1485402D01*
G01*
X200416395Y-94841616D02*
G75*
G02*
X200981116Y-95267163I69587J-495134D01*
G01*
%TO.C,SW33*%
X181022664Y-96961330D02*
X181106168Y-97555491D01*
X189175514Y-93896849D02*
X186699843Y-94244782D01*
X186830988Y-98770575D02*
X186266268Y-98345027D01*
X186127095Y-97354759D02*
X186266268Y-98345027D01*
X181106168Y-97555491D02*
X185562374Y-96929212D01*
X189740234Y-94322397D02*
X189175514Y-93896849D01*
X190227340Y-97788335D02*
X189801793Y-98353056D01*
X189801793Y-98353056D02*
X186830988Y-98770575D01*
X185005682Y-92968140D02*
X184908260Y-92274952D01*
X184908260Y-92274952D02*
X180452054Y-92901231D01*
X180452054Y-92901231D02*
X180521641Y-93396365D01*
X186699844Y-94244782D02*
G75*
G02*
X185005682Y-92968140I-208760J1485402D01*
G01*
X185562374Y-96929212D02*
G75*
G02*
X186127095Y-97354759I69587J-495134D01*
G01*
%TO.C,SW34*%
X190322336Y-112128115D02*
X190218147Y-112719000D01*
X199023133Y-111732990D02*
X196561114Y-111298870D01*
X195287293Y-115643680D02*
X194881714Y-115064452D01*
X195055362Y-114079645D02*
X194881714Y-115064452D01*
X190218147Y-112719000D02*
X194649782Y-113500417D01*
X199428713Y-112312218D02*
X199023133Y-111732990D01*
X198820945Y-115759045D02*
X198241717Y-116164625D01*
X198241717Y-116164625D02*
X195287293Y-115643680D01*
X195344375Y-109561186D02*
X195465928Y-108871820D01*
X195465928Y-108871820D02*
X191034293Y-108090403D01*
X191034293Y-108090403D02*
X190947469Y-108582807D01*
X196561114Y-111298869D02*
G75*
G02*
X195344375Y-109561186I260472J1477211D01*
G01*
X194649782Y-113500417D02*
G75*
G02*
X195055362Y-114079645I-86824J-492404D01*
G01*
%TO.C,SW35*%
X175000000Y-112012426D02*
X175000000Y-112612426D01*
X183500000Y-110112426D02*
X181000000Y-110112426D01*
X180500000Y-114612426D02*
X180000000Y-114112426D01*
X180000000Y-113112426D02*
X180000000Y-114112426D01*
X175000000Y-112612426D02*
X179500000Y-112612426D01*
X184000000Y-110612426D02*
X183500000Y-110112426D01*
X184000000Y-114112426D02*
X183500000Y-114612426D01*
X183500000Y-114612426D02*
X180500000Y-114612426D01*
X179500000Y-108612426D02*
X179500000Y-107912426D01*
X179500000Y-107912426D02*
X175000000Y-107912426D01*
X175000000Y-107912426D02*
X175000000Y-108412426D01*
X181000000Y-110112426D02*
G75*
G02*
X179500000Y-108612426I0J1500000D01*
G01*
X179500000Y-112612426D02*
G75*
G02*
X180000000Y-113112426I0J-500000D01*
G01*
%TO.C,SW36*%
X159890357Y-114559190D02*
X159994545Y-115150074D01*
X167931291Y-111212045D02*
X165469272Y-111646166D01*
X165758284Y-116164625D02*
X165179056Y-115759045D01*
X165005408Y-114774237D02*
X165179056Y-115759045D01*
X159994545Y-115150074D02*
X164426180Y-114368658D01*
X168510519Y-111617625D02*
X167931291Y-111212045D01*
X169118287Y-115064452D02*
X168712708Y-115643680D01*
X168712708Y-115643680D02*
X165758284Y-116164625D01*
X163731588Y-110429427D02*
X163610034Y-109740061D01*
X163610034Y-109740061D02*
X159178399Y-110521478D01*
X159178399Y-110521478D02*
X159265223Y-111013882D01*
X165469272Y-111646165D02*
G75*
G02*
X163731588Y-110429427I-260473J1477211D01*
G01*
X164426180Y-114368657D02*
G75*
G02*
X165005408Y-114774237I86824J-492404D01*
G01*
%TO.C,U2*%
%TO.C,U1*%
%TD*%
M02*
