M48
; DRILL file {KiCad (5.1.9)-1} date 03/06/21 17:22:12
; FORMAT={-:-/ absolute / inch / decimal}
; #@! TF.CreationDate,2021-03-06T17:22:12-05:00
; #@! TF.GenerationSoftware,Kicad,Pcbnew,(5.1.9)-1
; #@! TF.FileFunction,Plated,1,2,PTH
FMAT,2
INCH
T1C0.0157
T2C0.0320
T3C0.0394
T4C0.0512
T5C0.0906
%
G90
G05
T1
X2.1131Y-3.0922
X2.2759Y-3.6599
X2.4387Y-4.2276
X2.7941Y-2.6636
X2.8762Y-3.2484
X2.9584Y-3.8332
X3.5541Y-2.5197
X3.5541Y-3.1102
X3.5541Y-3.7008
X4.1625Y-3.6329
X4.2447Y-3.0481
X4.3269Y-2.4633
X4.3561Y-4.3585
X4.7473Y-3.7151
X4.8295Y-3.1303
X4.9117Y-2.5455
X4.9715Y-4.3273
X5.5829Y-4.4033
X6.6789Y-4.3585
X7.2943Y-4.3273
X7.3516Y-2.5096
X7.4338Y-3.0944
X7.516Y-3.6792
X7.9057Y-4.4033
X7.9364Y-2.4274
X8.0186Y-3.0122
X8.1008Y-3.597
X8.7116Y-2.5197
X8.7116Y-3.1102
X8.7116Y-3.7008
X9.3048Y-3.8691
X9.387Y-3.2843
X9.4692Y-2.6995
X9.8171Y-4.2987
X9.9799Y-3.731
X10.1427Y-3.1633
T2
X5.291Y-2.1761
X5.291Y-2.2761
X5.291Y-2.3761
X5.291Y-2.4761
X5.291Y-2.5761
X5.291Y-2.6761
X5.291Y-2.7761
X5.291Y-2.8761
X5.291Y-2.9761
X5.291Y-3.0761
X5.291Y-3.1761
X5.291Y-3.2761
X5.8902Y-2.1761
X5.8902Y-2.2761
X5.8902Y-2.3761
X5.8902Y-2.4761
X5.8902Y-2.5761
X5.8902Y-2.6761
X5.8902Y-2.7761
X5.8902Y-2.8761
X5.8902Y-2.9761
X5.8902Y-3.0761
X5.8902Y-3.1761
X5.8902Y-3.2761
X6.1178Y-2.1761
X6.1178Y-2.2761
X6.1178Y-2.3761
X6.1178Y-2.4761
X6.1178Y-2.5761
X6.1178Y-2.6761
X6.1178Y-2.7761
X6.1178Y-2.8761
X6.1178Y-2.9761
X6.1178Y-3.0761
X6.1178Y-3.1761
X6.1178Y-3.2761
X6.717Y-2.1761
X6.717Y-2.2761
X6.717Y-2.3761
X6.717Y-2.4761
X6.717Y-2.5761
X6.717Y-2.6761
X6.717Y-2.7761
X6.717Y-2.8761
X6.717Y-2.9761
X6.717Y-3.0761
X6.717Y-3.1761
X6.717Y-3.2761
T4
X5.872Y-3.6713
X5.872Y-3.9272
X6.1358Y-3.6713
X6.1358Y-3.9272
T5
X1.6535Y-2.0472
X1.6535Y-4.5276
X3.0315Y-2.3622
X3.248Y-3.9567
X5.1575Y-2.0472
X5.1575Y-3.7992
X5.9055Y-4.5276
X6.1024Y-4.5276
X6.8504Y-2.0472
X6.8504Y-3.7992
X8.7598Y-3.9567
X8.9764Y-2.3622
X10.3543Y-2.0472
X10.3543Y-4.5276
T3
G00X5.4902Y-3.4016
M15
G01X5.4705Y-3.4016
M16
G05
G00X5.5492Y-3.5669
M15
G01X5.5295Y-3.5669
M16
G05
G00X5.7067Y-3.5669
M15
G01X5.687Y-3.5669
M16
G05
G00X5.8248Y-3.5669
M15
G01X5.8051Y-3.5669
M16
G05
G00X6.1831Y-3.4016
M15
G01X6.2028Y-3.4016
M16
G05
G00X6.3012Y-3.4016
M15
G01X6.3209Y-3.4016
M16
G05
G00X6.4587Y-3.4016
M15
G01X6.4783Y-3.4016
M16
G05
G00X6.5177Y-3.5669
M15
G01X6.5374Y-3.5669
M16
G05
T0
M30
