%TF.GenerationSoftware,KiCad,Pcbnew,(5.1.9)-1*%
%TF.CreationDate,2021-03-06T17:12:20-05:00*%
%TF.ProjectId,ya36,79613336-2e6b-4696-9361-645f70636258,rev?*%
%TF.SameCoordinates,Original*%
%TF.FileFunction,Soldermask,Top*%
%TF.FilePolarity,Negative*%
%FSLAX46Y46*%
G04 Gerber Fmt 4.6, Leading zero omitted, Abs format (unit mm)*
G04 Created by KiCad (PCBNEW (5.1.9)-1) date 2021-03-06 17:12:20*
%MOMM*%
%LPD*%
G01*
G04 APERTURE LIST*
%ADD10C,0.300000*%
%ADD11C,1.200000*%
%ADD12C,2.000000*%
%ADD13C,2.300000*%
%ADD14C,0.990600*%
%ADD15C,3.000000*%
%ADD16C,3.429000*%
%ADD17C,1.701800*%
%ADD18C,0.800000*%
G04 APERTURE END LIST*
D10*
X61571428Y-114464285D02*
X61571428Y-115178571D01*
X61071428Y-113678571D02*
X61571428Y-114464285D01*
X62071428Y-113678571D01*
X62500000Y-114750000D02*
X63214285Y-114750000D01*
X62357142Y-115178571D02*
X62857142Y-113678571D01*
X63357142Y-115178571D01*
X63714285Y-113678571D02*
X64642857Y-113678571D01*
X64142857Y-114250000D01*
X64357142Y-114250000D01*
X64500000Y-114321428D01*
X64571428Y-114392857D01*
X64642857Y-114535714D01*
X64642857Y-114892857D01*
X64571428Y-115035714D01*
X64500000Y-115107142D01*
X64357142Y-115178571D01*
X63928571Y-115178571D01*
X63785714Y-115107142D01*
X63714285Y-115035714D01*
X65928571Y-113678571D02*
X65642857Y-113678571D01*
X65500000Y-113750000D01*
X65428571Y-113821428D01*
X65285714Y-114035714D01*
X65214285Y-114321428D01*
X65214285Y-114892857D01*
X65285714Y-115035714D01*
X65357142Y-115107142D01*
X65500000Y-115178571D01*
X65785714Y-115178571D01*
X65928571Y-115107142D01*
X66000000Y-115035714D01*
X66071428Y-114892857D01*
X66071428Y-114535714D01*
X66000000Y-114392857D01*
X65928571Y-114321428D01*
X65785714Y-114250000D01*
X65500000Y-114250000D01*
X65357142Y-114321428D01*
X65285714Y-114392857D01*
X65214285Y-114535714D01*
X67714285Y-114178571D02*
X68071428Y-115178571D01*
X68428571Y-114178571D01*
X69785714Y-115178571D02*
X68928571Y-115178571D01*
X69357142Y-115178571D02*
X69357142Y-113678571D01*
X69214285Y-113892857D01*
X69071428Y-114035714D01*
X68928571Y-114107142D01*
X70428571Y-115035714D02*
X70500000Y-115107142D01*
X70428571Y-115178571D01*
X70357142Y-115107142D01*
X70428571Y-115035714D01*
X70428571Y-115178571D01*
X71428571Y-113678571D02*
X71571428Y-113678571D01*
X71714285Y-113750000D01*
X71785714Y-113821428D01*
X71857142Y-113964285D01*
X71928571Y-114250000D01*
X71928571Y-114607142D01*
X71857142Y-114892857D01*
X71785714Y-115035714D01*
X71714285Y-115107142D01*
X71571428Y-115178571D01*
X71428571Y-115178571D01*
X71285714Y-115107142D01*
X71214285Y-115035714D01*
X71142857Y-114892857D01*
X71071428Y-114607142D01*
X71071428Y-114250000D01*
X71142857Y-113964285D01*
X71214285Y-113821428D01*
X71285714Y-113750000D01*
X71428571Y-113678571D01*
X73714285Y-115178571D02*
X73714285Y-113678571D01*
X73714285Y-114250000D02*
X73857142Y-114178571D01*
X74142857Y-114178571D01*
X74285714Y-114250000D01*
X74357142Y-114321428D01*
X74428571Y-114464285D01*
X74428571Y-114892857D01*
X74357142Y-115035714D01*
X74285714Y-115107142D01*
X74142857Y-115178571D01*
X73857142Y-115178571D01*
X73714285Y-115107142D01*
X74928571Y-114178571D02*
X75285714Y-115178571D01*
X75642857Y-114178571D02*
X75285714Y-115178571D01*
X75142857Y-115535714D01*
X75071428Y-115607142D01*
X74928571Y-115678571D01*
X77285714Y-115107142D02*
X77428571Y-115178571D01*
X77714285Y-115178571D01*
X77857142Y-115107142D01*
X77928571Y-114964285D01*
X77928571Y-114892857D01*
X77857142Y-114750000D01*
X77714285Y-114678571D01*
X77500000Y-114678571D01*
X77357142Y-114607142D01*
X77285714Y-114464285D01*
X77285714Y-114392857D01*
X77357142Y-114250000D01*
X77500000Y-114178571D01*
X77714285Y-114178571D01*
X77857142Y-114250000D01*
X79142857Y-115107142D02*
X79000000Y-115178571D01*
X78714285Y-115178571D01*
X78571428Y-115107142D01*
X78500000Y-114964285D01*
X78500000Y-114392857D01*
X78571428Y-114250000D01*
X78714285Y-114178571D01*
X79000000Y-114178571D01*
X79142857Y-114250000D01*
X79214285Y-114392857D01*
X79214285Y-114535714D01*
X78500000Y-114678571D01*
X79500000Y-115321428D02*
X80642857Y-115321428D01*
X81214285Y-115178571D02*
X81071428Y-115107142D01*
X81000000Y-114964285D01*
X81000000Y-113678571D01*
X82357142Y-115107142D02*
X82214285Y-115178571D01*
X81928571Y-115178571D01*
X81785714Y-115107142D01*
X81714285Y-114964285D01*
X81714285Y-114392857D01*
X81785714Y-114250000D01*
X81928571Y-114178571D01*
X82214285Y-114178571D01*
X82357142Y-114250000D01*
X82428571Y-114392857D01*
X82428571Y-114535714D01*
X81714285Y-114678571D01*
X82714285Y-115321428D02*
X83857142Y-115321428D01*
X84071428Y-115178571D02*
X84857142Y-114178571D01*
X84071428Y-114178571D02*
X84857142Y-115178571D01*
X220571428Y-114464285D02*
X220571428Y-115178571D01*
X220071428Y-113678571D02*
X220571428Y-114464285D01*
X221071428Y-113678571D01*
X221500000Y-114750000D02*
X222214285Y-114750000D01*
X221357142Y-115178571D02*
X221857142Y-113678571D01*
X222357142Y-115178571D01*
X222714285Y-113678571D02*
X223642857Y-113678571D01*
X223142857Y-114250000D01*
X223357142Y-114250000D01*
X223500000Y-114321428D01*
X223571428Y-114392857D01*
X223642857Y-114535714D01*
X223642857Y-114892857D01*
X223571428Y-115035714D01*
X223500000Y-115107142D01*
X223357142Y-115178571D01*
X222928571Y-115178571D01*
X222785714Y-115107142D01*
X222714285Y-115035714D01*
X224928571Y-113678571D02*
X224642857Y-113678571D01*
X224500000Y-113750000D01*
X224428571Y-113821428D01*
X224285714Y-114035714D01*
X224214285Y-114321428D01*
X224214285Y-114892857D01*
X224285714Y-115035714D01*
X224357142Y-115107142D01*
X224500000Y-115178571D01*
X224785714Y-115178571D01*
X224928571Y-115107142D01*
X225000000Y-115035714D01*
X225071428Y-114892857D01*
X225071428Y-114535714D01*
X225000000Y-114392857D01*
X224928571Y-114321428D01*
X224785714Y-114250000D01*
X224500000Y-114250000D01*
X224357142Y-114321428D01*
X224285714Y-114392857D01*
X224214285Y-114535714D01*
X226714285Y-114178571D02*
X227071428Y-115178571D01*
X227428571Y-114178571D01*
X228785714Y-115178571D02*
X227928571Y-115178571D01*
X228357142Y-115178571D02*
X228357142Y-113678571D01*
X228214285Y-113892857D01*
X228071428Y-114035714D01*
X227928571Y-114107142D01*
X229428571Y-115035714D02*
X229500000Y-115107142D01*
X229428571Y-115178571D01*
X229357142Y-115107142D01*
X229428571Y-115035714D01*
X229428571Y-115178571D01*
X230428571Y-113678571D02*
X230571428Y-113678571D01*
X230714285Y-113750000D01*
X230785714Y-113821428D01*
X230857142Y-113964285D01*
X230928571Y-114250000D01*
X230928571Y-114607142D01*
X230857142Y-114892857D01*
X230785714Y-115035714D01*
X230714285Y-115107142D01*
X230571428Y-115178571D01*
X230428571Y-115178571D01*
X230285714Y-115107142D01*
X230214285Y-115035714D01*
X230142857Y-114892857D01*
X230071428Y-114607142D01*
X230071428Y-114250000D01*
X230142857Y-113964285D01*
X230214285Y-113821428D01*
X230285714Y-113750000D01*
X230428571Y-113678571D01*
X232714285Y-115178571D02*
X232714285Y-113678571D01*
X232714285Y-114250000D02*
X232857142Y-114178571D01*
X233142857Y-114178571D01*
X233285714Y-114250000D01*
X233357142Y-114321428D01*
X233428571Y-114464285D01*
X233428571Y-114892857D01*
X233357142Y-115035714D01*
X233285714Y-115107142D01*
X233142857Y-115178571D01*
X232857142Y-115178571D01*
X232714285Y-115107142D01*
X233928571Y-114178571D02*
X234285714Y-115178571D01*
X234642857Y-114178571D02*
X234285714Y-115178571D01*
X234142857Y-115535714D01*
X234071428Y-115607142D01*
X233928571Y-115678571D01*
X236285714Y-115107142D02*
X236428571Y-115178571D01*
X236714285Y-115178571D01*
X236857142Y-115107142D01*
X236928571Y-114964285D01*
X236928571Y-114892857D01*
X236857142Y-114750000D01*
X236714285Y-114678571D01*
X236500000Y-114678571D01*
X236357142Y-114607142D01*
X236285714Y-114464285D01*
X236285714Y-114392857D01*
X236357142Y-114250000D01*
X236500000Y-114178571D01*
X236714285Y-114178571D01*
X236857142Y-114250000D01*
X238142857Y-115107142D02*
X238000000Y-115178571D01*
X237714285Y-115178571D01*
X237571428Y-115107142D01*
X237500000Y-114964285D01*
X237500000Y-114392857D01*
X237571428Y-114250000D01*
X237714285Y-114178571D01*
X238000000Y-114178571D01*
X238142857Y-114250000D01*
X238214285Y-114392857D01*
X238214285Y-114535714D01*
X237500000Y-114678571D01*
X238500000Y-115321428D02*
X239642857Y-115321428D01*
X240214285Y-115178571D02*
X240071428Y-115107142D01*
X240000000Y-114964285D01*
X240000000Y-113678571D01*
X241357142Y-115107142D02*
X241214285Y-115178571D01*
X240928571Y-115178571D01*
X240785714Y-115107142D01*
X240714285Y-114964285D01*
X240714285Y-114392857D01*
X240785714Y-114250000D01*
X240928571Y-114178571D01*
X241214285Y-114178571D01*
X241357142Y-114250000D01*
X241428571Y-114392857D01*
X241428571Y-114535714D01*
X240714285Y-114678571D01*
X241714285Y-115321428D02*
X242857142Y-115321428D01*
X243071428Y-115178571D02*
X243857142Y-114178571D01*
X243071428Y-114178571D02*
X243857142Y-115178571D01*
D11*
%TO.C,J1*%
X142500000Y-88500000D03*
X149500000Y-88500000D03*
%TD*%
%TO.C,J2*%
X162500000Y-88500000D03*
X155500000Y-88500000D03*
%TD*%
D12*
%TO.C,SWRST2*%
X155850000Y-93250000D03*
X155850000Y-99750000D03*
%TD*%
%TO.C,SWRST1*%
X149150000Y-99750000D03*
X149150000Y-93250000D03*
%TD*%
D13*
%TO.C,Ref\u002A\u002A*%
X263000000Y-52000000D03*
%TD*%
%TO.C,Ref\u002A\u002A*%
X263000000Y-115000000D03*
%TD*%
%TO.C,Ref\u002A\u002A*%
X155000000Y-115000000D03*
%TD*%
%TO.C,Ref\u002A\u002A*%
X222500000Y-100500000D03*
%TD*%
%TO.C,Ref\u002A\u002A*%
X174000000Y-96500000D03*
%TD*%
%TO.C,Ref\u002A\u002A*%
X228000000Y-60000000D03*
%TD*%
%TO.C,Ref\u002A\u002A*%
X174000000Y-52000000D03*
%TD*%
%TO.C,Ref\u002A\u002A*%
X77000000Y-60000000D03*
%TD*%
%TO.C,Ref\u002A\u002A*%
X131000000Y-96500000D03*
%TD*%
%TO.C,Ref\u002A\u002A*%
X82500000Y-100500000D03*
%TD*%
%TO.C,Ref\u002A\u002A*%
X131000000Y-52000000D03*
%TD*%
%TO.C,Ref\u002A\u002A*%
X42000000Y-52000000D03*
%TD*%
%TO.C,Ref\u002A\u002A*%
X42000000Y-115000000D03*
%TD*%
%TO.C,Ref\u002A\u002A*%
X150000000Y-115000000D03*
%TD*%
D14*
%TO.C,SW13*%
X92220000Y-86300000D03*
D15*
X87000000Y-96450000D03*
D16*
X87000000Y-90500000D03*
D15*
X82000000Y-94250000D03*
D17*
X81500000Y-90500000D03*
D18*
X90275000Y-94000000D03*
%TD*%
D14*
%TO.C,SW12*%
X75998557Y-89468412D03*
D15*
X72241965Y-100246116D03*
D16*
X71413885Y-94354021D03*
D15*
X66984444Y-98763392D03*
D17*
X65967411Y-95119473D03*
D18*
X75144119Y-97364167D03*
%TD*%
D14*
%TO.C,SW14*%
X108724535Y-84921379D03*
D15*
X102142729Y-94246116D03*
D16*
X102970809Y-88354021D03*
D15*
X97497570Y-91371661D03*
D17*
X108417283Y-89119473D03*
X97524335Y-87588569D03*
D18*
X105726831Y-92275751D03*
%TD*%
D14*
%TO.C,SW1*%
X53419887Y-70604948D03*
D15*
X51199820Y-81800581D03*
D16*
X49559778Y-76081074D03*
D15*
X45787110Y-81063992D03*
D17*
X54846717Y-74565069D03*
X44272839Y-77597079D03*
D18*
X53672641Y-78542778D03*
%TD*%
D14*
%TO.C,SW2*%
X71823364Y-59760370D03*
D15*
X68066772Y-70538074D03*
D16*
X67238692Y-64645979D03*
D15*
X62809251Y-69055350D03*
D17*
X72685166Y-63880527D03*
X61792218Y-65411431D03*
D18*
X70968926Y-67656125D03*
%TD*%
D14*
%TO.C,SW3*%
X92220000Y-56300000D03*
D15*
X87000000Y-66450000D03*
D16*
X87000000Y-60500000D03*
D15*
X82000000Y-64250000D03*
D17*
X92500000Y-60500000D03*
X81500000Y-60500000D03*
D18*
X90275000Y-64000000D03*
%TD*%
D14*
%TO.C,SW4*%
X112899728Y-55213337D03*
D15*
X106317922Y-64538074D03*
D16*
X107146002Y-58645979D03*
D15*
X101672763Y-61663619D03*
D17*
X112592476Y-59411431D03*
X101699528Y-57880527D03*
D18*
X109902024Y-62567709D03*
%TD*%
D14*
%TO.C,SW5*%
X127753749Y-57300934D03*
D15*
X121171943Y-66625671D03*
D16*
X122000023Y-60733576D03*
D15*
X116526784Y-63751216D03*
D17*
X127446497Y-61499028D03*
X116553549Y-59968124D03*
D18*
X124756045Y-64655306D03*
%TD*%
D14*
%TO.C,SW6*%
X57554448Y-85023873D03*
D15*
X55334381Y-96219506D03*
D16*
X53694339Y-90499999D03*
D15*
X49921671Y-95482917D03*
D17*
X58981278Y-88983994D03*
X48407400Y-92016004D03*
D18*
X57807202Y-92961703D03*
%TD*%
D14*
%TO.C,SW7*%
X73910960Y-74614390D03*
D15*
X70154368Y-85392094D03*
D16*
X69326288Y-79499999D03*
D15*
X64896847Y-83909370D03*
D17*
X74772762Y-78734547D03*
X63879814Y-80265451D03*
D18*
X73056522Y-82510145D03*
%TD*%
D14*
%TO.C,SW8*%
X92220000Y-71300000D03*
D15*
X87000000Y-81450000D03*
D16*
X87000000Y-75500000D03*
D15*
X82000000Y-79250000D03*
D17*
X92500000Y-75500000D03*
X81500000Y-75500000D03*
D18*
X90275000Y-79000000D03*
%TD*%
D14*
%TO.C,SW9*%
X110812132Y-70067359D03*
D15*
X104230326Y-79392096D03*
D16*
X105058406Y-73500001D03*
D15*
X99585167Y-76517641D03*
D17*
X110504880Y-74265453D03*
X99611932Y-72734549D03*
D18*
X107814428Y-77421731D03*
%TD*%
D14*
%TO.C,SW10*%
X125666153Y-72154954D03*
D15*
X119084347Y-81479691D03*
D16*
X119912427Y-75587596D03*
D15*
X114439188Y-78605236D03*
D17*
X125358901Y-76353048D03*
X114465953Y-74822144D03*
D18*
X122668449Y-79509326D03*
%TD*%
D14*
%TO.C,SW11*%
X61689008Y-99442799D03*
D15*
X59468941Y-110638432D03*
D16*
X57828899Y-104918925D03*
D15*
X54056231Y-109901843D03*
D17*
X63115838Y-103402920D03*
X52541960Y-106434930D03*
D18*
X61941762Y-107380629D03*
%TD*%
D14*
%TO.C,SW15*%
X123578556Y-87008975D03*
D15*
X116996750Y-96333712D03*
D16*
X117824830Y-90441617D03*
D15*
X112351591Y-93459257D03*
D17*
X123271304Y-91207069D03*
X112378356Y-89676165D03*
D18*
X120580852Y-94363347D03*
%TD*%
D14*
%TO.C,SW16*%
X111222955Y-102786093D03*
D15*
X107844788Y-113688335D03*
D16*
X106811581Y-107828729D03*
D15*
X102538723Y-112389999D03*
D17*
X112228024Y-106873664D03*
X101395138Y-108783794D03*
D18*
X110644595Y-110706858D03*
%TD*%
D14*
%TO.C,SW17*%
X128220000Y-102212426D03*
D15*
X123000000Y-112362426D03*
D16*
X123000000Y-106412426D03*
D15*
X118000000Y-110162426D03*
D17*
X128500000Y-106412426D03*
X117500000Y-106412426D03*
D18*
X126275000Y-109912426D03*
%TD*%
D14*
%TO.C,SW18*%
X145058439Y-104598980D03*
D15*
X138155213Y-113688335D03*
D16*
X139188420Y-107828729D03*
D15*
X133613201Y-110653517D03*
D17*
X144604863Y-108783794D03*
X133771977Y-106873664D03*
D18*
X141805897Y-111844254D03*
%TD*%
D14*
%TO.C,SW19*%
X261615685Y-73482602D03*
D15*
X253800180Y-81800581D03*
D16*
X255440222Y-76081074D03*
D15*
X249600273Y-78307619D03*
D17*
X260727161Y-77597079D03*
X250153283Y-74565069D03*
D18*
X257623623Y-80348202D03*
%TD*%
D14*
%TO.C,SW20*%
X243515034Y-61213337D03*
D15*
X236933228Y-70538074D03*
D16*
X237761308Y-64645979D03*
D15*
X232288069Y-67663619D03*
D17*
X243207782Y-65411431D03*
X232314834Y-63880527D03*
D18*
X240517330Y-68567709D03*
%TD*%
D14*
%TO.C,SW21*%
X223220000Y-56300000D03*
D15*
X218000000Y-66450000D03*
D16*
X218000000Y-60500000D03*
D15*
X213000000Y-64250000D03*
D17*
X223500000Y-60500000D03*
X212500000Y-60500000D03*
D18*
X221275000Y-64000000D03*
%TD*%
D14*
%TO.C,SW22*%
X202438671Y-53760370D03*
D15*
X198682079Y-64538074D03*
D16*
X197853999Y-58645979D03*
D15*
X193424558Y-63055350D03*
D17*
X203300473Y-57880527D03*
X192407525Y-59411431D03*
D18*
X201584233Y-61656125D03*
%TD*%
D14*
%TO.C,SW23*%
X187584650Y-55847967D03*
D15*
X183828058Y-66625671D03*
D16*
X182999978Y-60733576D03*
D15*
X178570537Y-65142947D03*
D17*
X188446452Y-59968124D03*
X177553504Y-61499028D03*
D18*
X186730212Y-63743722D03*
%TD*%
D14*
%TO.C,SW24*%
X257481124Y-87901527D03*
D15*
X249665619Y-96219506D03*
D16*
X251305661Y-90499999D03*
D15*
X245465712Y-92726544D03*
D17*
X256592600Y-92016004D03*
X246018722Y-88983994D03*
D18*
X253489062Y-94767127D03*
%TD*%
D14*
%TO.C,SW25*%
X241427438Y-76067357D03*
D15*
X234845632Y-85392094D03*
D16*
X235673712Y-79499999D03*
D15*
X230200473Y-82517639D03*
D17*
X241120186Y-80265451D03*
X230227238Y-78734547D03*
D18*
X238429734Y-83421729D03*
%TD*%
D14*
%TO.C,SW26*%
X223220000Y-71300000D03*
D15*
X218000000Y-81450000D03*
D16*
X218000000Y-75500000D03*
D15*
X213000000Y-79250000D03*
D17*
X223500000Y-75500000D03*
X212500000Y-75500000D03*
D18*
X221275000Y-79000000D03*
%TD*%
D14*
%TO.C,SW27*%
X204526267Y-68614392D03*
D15*
X200769675Y-79392096D03*
D16*
X199941595Y-73500001D03*
D15*
X195512154Y-77909372D03*
D17*
X205388069Y-72734549D03*
X194495121Y-74265453D03*
D18*
X203671829Y-76510147D03*
%TD*%
D14*
%TO.C,SW28*%
X189672246Y-70701987D03*
D15*
X185915654Y-81479691D03*
D16*
X185087574Y-75587596D03*
D15*
X180658133Y-79996967D03*
D17*
X190534048Y-74822144D03*
X179641100Y-76353048D03*
D18*
X188817808Y-78597742D03*
%TD*%
D14*
%TO.C,SW29*%
X253346564Y-102320453D03*
D15*
X245531059Y-110638432D03*
D16*
X247171101Y-104918925D03*
D15*
X241331152Y-107145470D03*
D17*
X252458040Y-106434930D03*
X241884162Y-103402920D03*
D18*
X249354502Y-109186053D03*
%TD*%
D14*
%TO.C,SW30*%
X239339841Y-90921379D03*
D15*
X232758035Y-100246116D03*
D16*
X233586115Y-94354021D03*
D15*
X228112876Y-97371661D03*
D17*
X239032589Y-95119473D03*
X228139641Y-93588569D03*
D18*
X236342137Y-98275751D03*
%TD*%
D14*
%TO.C,SW31*%
X223220000Y-86300000D03*
D15*
X218000000Y-96450000D03*
D16*
X218000000Y-90500000D03*
D15*
X213000000Y-94250000D03*
D17*
X223500000Y-90500000D03*
X212500000Y-90500000D03*
D18*
X221275000Y-94000000D03*
%TD*%
D14*
%TO.C,SW32*%
X206613864Y-83468412D03*
D15*
X202857272Y-94246116D03*
D16*
X202029192Y-88354021D03*
D15*
X197599751Y-92763392D03*
D17*
X207475666Y-87588569D03*
X196582718Y-89119473D03*
D18*
X205759426Y-91364167D03*
%TD*%
D14*
%TO.C,SW33*%
X191759843Y-85556008D03*
D15*
X188003251Y-96333712D03*
D16*
X187175171Y-90441617D03*
D15*
X182745730Y-94850988D03*
D17*
X192621645Y-89676165D03*
X181728697Y-91207069D03*
D18*
X190905405Y-93451763D03*
%TD*%
D14*
%TO.C,SW34*%
X204058439Y-104598980D03*
D15*
X197155213Y-113688335D03*
D16*
X198188420Y-107828729D03*
D15*
X192613201Y-110653517D03*
D17*
X203604863Y-108783794D03*
X192771977Y-106873664D03*
D18*
X200805897Y-111844254D03*
%TD*%
D14*
%TO.C,SW35*%
X187220000Y-102212426D03*
D15*
X182000000Y-112362426D03*
D16*
X182000000Y-106412426D03*
D15*
X177000000Y-110162426D03*
D17*
X187500000Y-106412426D03*
X176500000Y-106412426D03*
D18*
X185275000Y-109912426D03*
%TD*%
D14*
%TO.C,SW36*%
X170222955Y-102786093D03*
D15*
X166844788Y-113688335D03*
D16*
X165811581Y-107828729D03*
D15*
X161538723Y-112389999D03*
D17*
X171228024Y-106873664D03*
X160395138Y-108783794D03*
D18*
X169644595Y-110706858D03*
%TD*%
M02*
