M48
; DRILL file {KiCad (5.1.9)-1} date 03/06/21 17:13:10
; FORMAT={-:-/ absolute / inch / decimal}
; #@! TF.CreationDate,2021-03-06T17:13:10-05:00
; #@! TF.GenerationSoftware,Kicad,Pcbnew,(5.1.9)-1
FMAT,2
INCH
T1C0.0157
T2C0.0320
T3C0.0394
T4C0.0512
T5C0.0906
T6C0.0390
T7C0.0472
T8C0.0670
T9C0.1181
T10C0.1350
%
G90
G05
T1
X2.1131Y-3.0922
X2.2759Y-3.6599
X2.4387Y-4.2276
X2.7941Y-2.6636
X2.8762Y-3.2484
X2.9584Y-3.8332
X3.5541Y-2.5197
X3.5541Y-3.1102
X3.5541Y-3.7008
X4.1625Y-3.6329
X4.2447Y-3.0481
X4.3269Y-2.4633
X4.3561Y-4.3585
X4.7473Y-3.7151
X4.8295Y-3.1303
X4.9117Y-2.5455
X4.9715Y-4.3273
X5.5829Y-4.4033
X6.6789Y-4.3585
X7.2943Y-4.3273
X7.3516Y-2.5096
X7.4338Y-3.0944
X7.516Y-3.6792
X7.9057Y-4.4033
X7.9364Y-2.4274
X8.0186Y-3.0122
X8.1008Y-3.597
X8.7116Y-2.5197
X8.7116Y-3.1102
X8.7116Y-3.7008
X9.3048Y-3.8691
X9.387Y-3.2843
X9.4692Y-2.6995
X9.8171Y-4.2987
X9.9799Y-3.731
X10.1427Y-3.1633
T2
X5.291Y-2.1761
X5.291Y-2.2761
X5.291Y-2.3761
X5.291Y-2.4761
X5.291Y-2.5761
X5.291Y-2.6761
X5.291Y-2.7761
X5.291Y-2.8761
X5.291Y-2.9761
X5.291Y-3.0761
X5.291Y-3.1761
X5.291Y-3.2761
X5.8902Y-2.1761
X5.8902Y-2.2761
X5.8902Y-2.3761
X5.8902Y-2.4761
X5.8902Y-2.5761
X5.8902Y-2.6761
X5.8902Y-2.7761
X5.8902Y-2.8761
X5.8902Y-2.9761
X5.8902Y-3.0761
X5.8902Y-3.1761
X5.8902Y-3.2761
X6.1178Y-2.1761
X6.1178Y-2.2761
X6.1178Y-2.3761
X6.1178Y-2.4761
X6.1178Y-2.5761
X6.1178Y-2.6761
X6.1178Y-2.7761
X6.1178Y-2.8761
X6.1178Y-2.9761
X6.1178Y-3.0761
X6.1178Y-3.1761
X6.1178Y-3.2761
X6.717Y-2.1761
X6.717Y-2.2761
X6.717Y-2.3761
X6.717Y-2.4761
X6.717Y-2.5761
X6.717Y-2.6761
X6.717Y-2.7761
X6.717Y-2.8761
X6.717Y-2.9761
X6.717Y-3.0761
X6.717Y-3.1761
X6.717Y-3.2761
T4
X5.872Y-3.6713
X5.872Y-3.9272
X6.1358Y-3.6713
X6.1358Y-3.9272
T5
X1.6535Y-2.0472
X1.6535Y-4.5276
X3.0315Y-2.3622
X3.248Y-3.9567
X5.1575Y-2.0472
X5.1575Y-3.7992
X5.9055Y-4.5276
X6.1024Y-4.5276
X6.8504Y-2.0472
X6.8504Y-3.7992
X8.7598Y-3.9567
X8.9764Y-2.3622
X10.3543Y-2.0472
X10.3543Y-4.5276
T6
X2.1031Y-2.7797
X2.2659Y-3.3474
X2.4287Y-3.9151
X2.8277Y-2.3528
X2.9099Y-2.9376
X2.9921Y-3.5224
X3.6307Y-2.2165
X3.6307Y-2.8071
X3.6307Y-3.3976
X4.2805Y-3.3434
X4.3627Y-2.7586
X4.3789Y-4.0467
X4.4449Y-2.1738
X4.8653Y-3.4256
X4.9475Y-2.8407
X5.0297Y-2.2559
X5.048Y-4.0241
X5.711Y-4.1181
X6.7017Y-4.0467
X7.3709Y-4.0241
X7.3852Y-2.1987
X7.4674Y-2.7835
X7.5496Y-3.3683
X7.97Y-2.1166
X8.0338Y-4.1181
X8.0522Y-2.7014
X8.1344Y-3.2862
X8.7882Y-2.2165
X8.7882Y-2.8071
X8.7882Y-3.3976
X9.4228Y-3.5796
X9.505Y-2.9948
X9.5872Y-2.41
X9.9743Y-4.0284
X10.1371Y-3.4607
X10.2998Y-2.893
T7
X5.6102Y-3.4843
X5.8858Y-3.4843
X6.122Y-3.4843
X6.3976Y-3.4843
T8
X1.743Y-3.055
X1.9058Y-3.6227
X2.0686Y-4.1904
X2.1593Y-2.9356
X2.3221Y-3.5033
X2.4328Y-2.5753
X2.4849Y-4.071
X2.515Y-3.1601
X2.5971Y-3.7449
X2.8616Y-2.515
X2.9438Y-3.0998
X3.2087Y-2.3819
X3.2087Y-2.9724
X3.2087Y-3.563
X3.6417Y-2.3819
X3.6417Y-2.9724
X3.8395Y-3.4484
X3.9217Y-2.8636
X3.9919Y-4.2828
X4.0039Y-2.2788
X4.2684Y-3.5086
X4.3506Y-2.9238
X4.4184Y-4.2076
X4.4243Y-3.5306
X4.4328Y-2.339
X4.5065Y-2.9458
X4.5887Y-2.3609
X4.626Y-4.1895
X4.8532Y-3.5908
X4.9354Y-3.006
X5.0176Y-2.4212
X5.0591Y-4.1895
X5.2666Y-4.2076
X5.6931Y-4.2828
X6.3148Y-4.2828
X6.7413Y-4.2076
X6.9488Y-4.1895
X6.9903Y-2.4212
X7.0725Y-3.006
X7.1547Y-3.5908
X7.3819Y-4.1895
X7.4192Y-2.3609
X7.5013Y-2.9458
X7.5751Y-2.339
X7.5835Y-3.5306
X7.5894Y-4.2076
X7.6573Y-2.9238
X7.7395Y-3.5086
X8.004Y-2.2788
X8.0159Y-4.2828
X8.0861Y-2.8636
X8.1683Y-3.4484
X8.3661Y-2.3819
X8.3661Y-2.9724
X8.3661Y-3.563
X8.7992Y-2.3819
X8.7992Y-2.9724
X8.7992Y-3.563
X8.9819Y-3.6846
X9.0641Y-3.0998
X9.1463Y-2.515
X9.4107Y-3.7449
X9.4929Y-3.1601
X9.523Y-4.071
X9.5751Y-2.5753
X9.6858Y-3.5033
X9.8486Y-2.9356
X9.9393Y-4.1904
X10.1021Y-3.6227
X10.2648Y-3.055
T9
X1.8026Y-3.1915
X1.9654Y-3.7592
X2.0157Y-3.2205
X2.1282Y-4.3268
X2.1785Y-3.7882
X2.3413Y-4.3558
X2.4728Y-2.7187
X2.555Y-3.3035
X2.6372Y-3.8883
X2.6798Y-2.7771
X2.762Y-3.3619
X2.8442Y-3.9467
X3.2283Y-2.5295
X3.2283Y-3.1201
X3.2283Y-3.7106
X3.4252Y-2.6161
X3.4252Y-3.2067
X3.4252Y-3.7972
X3.8385Y-3.5973
X3.9207Y-3.0125
X4.0029Y-2.4277
X4.0214Y-3.7105
X4.037Y-4.4248
X4.1036Y-3.1257
X4.1857Y-2.5409
X4.2459Y-4.4759
X4.4233Y-3.6795
X4.5055Y-3.0947
X4.5877Y-2.5099
X4.6062Y-3.7927
X4.6457Y-4.3371
X4.6884Y-3.2079
X4.7705Y-2.6231
X4.8425Y-4.4237
X5.2604Y-4.3564
X5.4392Y-4.4759
X6.3598Y-4.4248
X6.5687Y-4.4759
X6.9685Y-4.3371
X7.0303Y-2.5647
X7.1125Y-3.1495
X7.1654Y-4.4237
X7.1947Y-3.7343
X7.2373Y-2.6231
X7.3195Y-3.2079
X7.4017Y-3.7927
X7.5832Y-4.3564
X7.6151Y-2.4825
X7.6973Y-3.0673
X7.762Y-4.4759
X7.7795Y-3.6521
X7.8221Y-2.5409
X7.9043Y-3.1257
X7.9865Y-3.7105
X8.3858Y-2.5295
X8.3858Y-3.1201
X8.3858Y-3.7106
X8.5827Y-2.6161
X8.5827Y-3.2067
X8.5827Y-3.7972
X8.9808Y-3.8335
X9.063Y-3.2487
X9.1452Y-2.6639
X9.1637Y-3.9467
X9.2459Y-3.3619
X9.3281Y-2.7771
X9.5012Y-4.2183
X9.664Y-3.6507
X9.6666Y-4.3558
X9.8268Y-3.083
X9.8294Y-3.7882
X9.9921Y-3.2205
T10
X1.9512Y-2.9953
X2.114Y-3.563
X2.2767Y-4.1307
X2.6472Y-2.5451
X2.7294Y-3.1299
X2.8116Y-3.7147
X3.4252Y-2.3819
X3.4252Y-2.9724
X3.4252Y-3.563
X4.054Y-3.4785
X4.1362Y-2.8937
X4.2052Y-4.2452
X4.2183Y-2.3089
X4.6388Y-3.5607
X4.721Y-2.9759
X4.8032Y-2.3911
X4.8425Y-4.1895
X5.4799Y-4.2452
X6.528Y-4.2452
X7.1654Y-4.1895
X7.2047Y-2.3911
X7.2869Y-2.9759
X7.3691Y-3.5607
X7.7895Y-2.3089
X7.8027Y-4.2452
X7.8717Y-2.8937
X7.9539Y-3.4785
X8.5827Y-2.3819
X8.5827Y-2.9724
X8.5827Y-3.563
X9.1963Y-3.7147
X9.2785Y-3.1299
X9.3607Y-2.5451
X9.7311Y-4.1307
X9.8939Y-3.563
X10.0567Y-2.9953
T3
G00X5.4902Y-3.4016
M15
G01X5.4705Y-3.4016
M16
G05
G00X5.5492Y-3.5669
M15
G01X5.5295Y-3.5669
M16
G05
G00X5.7067Y-3.5669
M15
G01X5.687Y-3.5669
M16
G05
G00X5.8248Y-3.5669
M15
G01X5.8051Y-3.5669
M16
G05
G00X6.1831Y-3.4016
M15
G01X6.2028Y-3.4016
M16
G05
G00X6.3012Y-3.4016
M15
G01X6.3209Y-3.4016
M16
G05
G00X6.4587Y-3.4016
M15
G01X6.4783Y-3.4016
M16
G05
G00X6.5177Y-3.5669
M15
G01X6.5374Y-3.5669
M16
G05
T0
M30
