G04 #@! TF.GenerationSoftware,KiCad,Pcbnew,(5.1.9)-1*
G04 #@! TF.CreationDate,2021-03-06T18:05:25-05:00*
G04 #@! TF.ProjectId,ya36,79613336-2e6b-4696-9361-645f70636258,rev?*
G04 #@! TF.SameCoordinates,Original*
G04 #@! TF.FileFunction,Copper,L2,Bot*
G04 #@! TF.FilePolarity,Positive*
%FSLAX46Y46*%
G04 Gerber Fmt 4.6, Leading zero omitted, Abs format (unit mm)*
G04 Created by KiCad (PCBNEW (5.1.9)-1) date 2021-03-06 18:05:25*
%MOMM*%
%LPD*%
G01*
G04 APERTURE LIST*
G04 #@! TA.AperFunction,SMDPad,CuDef*
%ADD10C,0.100000*%
G04 #@! TD*
G04 #@! TA.AperFunction,SMDPad,CuDef*
%ADD11R,1.400000X1.000000*%
G04 #@! TD*
G04 #@! TA.AperFunction,ComponentPad*
%ADD12C,0.800000*%
G04 #@! TD*
G04 #@! TA.AperFunction,SMDPad,CuDef*
%ADD13R,2.600000X2.600000*%
G04 #@! TD*
G04 #@! TA.AperFunction,ComponentPad*
%ADD14C,2.300000*%
G04 #@! TD*
G04 #@! TA.AperFunction,ComponentPad*
%ADD15C,2.000000*%
G04 #@! TD*
G04 #@! TA.AperFunction,ComponentPad*
%ADD16C,1.524000*%
G04 #@! TD*
G04 #@! TA.AperFunction,ComponentPad*
%ADD17O,2.500000X1.700000*%
G04 #@! TD*
G04 #@! TA.AperFunction,Conductor*
%ADD18C,0.250000*%
G04 #@! TD*
G04 #@! TA.AperFunction,Conductor*
%ADD19C,0.500000*%
G04 #@! TD*
G04 APERTURE END LIST*
G04 #@! TA.AperFunction,SMDPad,CuDef*
D10*
G36*
X251719400Y-85157064D02*
G01*
X251443763Y-86118326D01*
X250097996Y-85732434D01*
X250373633Y-84771172D01*
X251719400Y-85157064D01*
G37*
G04 #@! TD.AperFunction*
G04 #@! TA.AperFunction,SMDPad,CuDef*
G36*
X255131880Y-86135576D02*
G01*
X254856243Y-87096838D01*
X253510476Y-86710946D01*
X253786113Y-85749684D01*
X255131880Y-86135576D01*
G37*
G04 #@! TD.AperFunction*
G04 #@! TA.AperFunction,SMDPad,CuDef*
G36*
X235339832Y-74151480D02*
G01*
X235200659Y-75141748D01*
X233814284Y-74946906D01*
X233953457Y-73956638D01*
X235339832Y-74151480D01*
G37*
G04 #@! TD.AperFunction*
G04 #@! TA.AperFunction,SMDPad,CuDef*
G36*
X238855284Y-74645544D02*
G01*
X238716111Y-75635812D01*
X237329736Y-75440970D01*
X237468909Y-74450702D01*
X238855284Y-74645544D01*
G37*
G04 #@! TD.AperFunction*
D11*
X216225000Y-70750000D03*
X219775000Y-70750000D03*
G04 #@! TA.AperFunction,SMDPad,CuDef*
D10*
G36*
X237427428Y-59297460D02*
G01*
X237288255Y-60287728D01*
X235901880Y-60092886D01*
X236041053Y-59102618D01*
X237427428Y-59297460D01*
G37*
G04 #@! TD.AperFunction*
G04 #@! TA.AperFunction,SMDPad,CuDef*
G36*
X240942880Y-59791524D02*
G01*
X240803707Y-60781792D01*
X239417332Y-60586950D01*
X239556505Y-59596682D01*
X240942880Y-59791524D01*
G37*
G04 #@! TD.AperFunction*
D11*
X216225000Y-55750000D03*
X219775000Y-55750000D03*
G04 #@! TA.AperFunction,SMDPad,CuDef*
D10*
G36*
X196058801Y-53596682D02*
G01*
X196197974Y-54586950D01*
X194811599Y-54781792D01*
X194672426Y-53791524D01*
X196058801Y-53596682D01*
G37*
G04 #@! TD.AperFunction*
G04 #@! TA.AperFunction,SMDPad,CuDef*
G36*
X199574253Y-53102618D02*
G01*
X199713426Y-54092886D01*
X198327051Y-54287728D01*
X198187878Y-53297460D01*
X199574253Y-53102618D01*
G37*
G04 #@! TD.AperFunction*
G04 #@! TA.AperFunction,SMDPad,CuDef*
G36*
X181204780Y-55684279D02*
G01*
X181343953Y-56674547D01*
X179957578Y-56869389D01*
X179818405Y-55879121D01*
X181204780Y-55684279D01*
G37*
G04 #@! TD.AperFunction*
G04 #@! TA.AperFunction,SMDPad,CuDef*
G36*
X184720232Y-55190215D02*
G01*
X184859405Y-56180483D01*
X183473030Y-56375325D01*
X183333857Y-55385057D01*
X184720232Y-55190215D01*
G37*
G04 #@! TD.AperFunction*
G04 #@! TA.AperFunction,SMDPad,CuDef*
G36*
X193250200Y-94687458D02*
G01*
X192888349Y-92112761D01*
X195463046Y-91750910D01*
X195824897Y-94325607D01*
X193250200Y-94687458D01*
G37*
G04 #@! TD.AperFunction*
G04 #@! TA.AperFunction,SMDPad,CuDef*
G36*
X204993977Y-95258598D02*
G01*
X204632126Y-92683901D01*
X207206823Y-92322050D01*
X207568674Y-94896747D01*
X204993977Y-95258598D01*
G37*
G04 #@! TD.AperFunction*
D12*
X205759426Y-91364167D03*
G04 #@! TA.AperFunction,SMDPad,CuDef*
D10*
G36*
X178396179Y-96775054D02*
G01*
X178034328Y-94200357D01*
X180609025Y-93838506D01*
X180970876Y-96413203D01*
X178396179Y-96775054D01*
G37*
G04 #@! TD.AperFunction*
G04 #@! TA.AperFunction,SMDPad,CuDef*
G36*
X190139956Y-97346194D02*
G01*
X189778105Y-94771497D01*
X192352802Y-94409646D01*
X192714653Y-96984343D01*
X190139956Y-97346194D01*
G37*
G04 #@! TD.AperFunction*
D12*
X190905405Y-93451763D03*
D13*
X173725000Y-110162426D03*
X185275000Y-112362426D03*
D12*
X185275000Y-109912426D03*
D13*
X209725000Y-94250000D03*
X221275000Y-96450000D03*
D12*
X221275000Y-94000000D03*
G04 #@! TA.AperFunction,SMDPad,CuDef*
D10*
G36*
X157258971Y-114464690D02*
G01*
X156807485Y-111904190D01*
X159367985Y-111452704D01*
X159819471Y-114013204D01*
X157258971Y-114464690D01*
G37*
G04 #@! TD.AperFunction*
G04 #@! TA.AperFunction,SMDPad,CuDef*
G36*
X169015526Y-114625630D02*
G01*
X168564040Y-112065130D01*
X171124540Y-111613644D01*
X171576026Y-114174144D01*
X169015526Y-114625630D01*
G37*
G04 #@! TD.AperFunction*
D12*
X169644595Y-110706858D03*
G04 #@! TA.AperFunction,SMDPad,CuDef*
D10*
G36*
X187881962Y-111139326D02*
G01*
X188333448Y-108578826D01*
X190893948Y-109030312D01*
X190442462Y-111590812D01*
X187881962Y-111139326D01*
G37*
G04 #@! TD.AperFunction*
G04 #@! TA.AperFunction,SMDPad,CuDef*
G36*
X198874466Y-115311540D02*
G01*
X199325952Y-112751040D01*
X201886452Y-113202526D01*
X201434966Y-115763026D01*
X198874466Y-115311540D01*
G37*
G04 #@! TD.AperFunction*
D12*
X200805897Y-111844254D03*
G04 #@! TA.AperFunction,SMDPad,CuDef*
D10*
G36*
X255853961Y-70738139D02*
G01*
X255578324Y-71699401D01*
X254232557Y-71313509D01*
X254508194Y-70352247D01*
X255853961Y-70738139D01*
G37*
G04 #@! TD.AperFunction*
G04 #@! TA.AperFunction,SMDPad,CuDef*
G36*
X259266441Y-71716651D02*
G01*
X258990804Y-72677913D01*
X257645037Y-72292021D01*
X257920674Y-71330759D01*
X259266441Y-71716651D01*
G37*
G04 #@! TD.AperFunction*
G04 #@! TA.AperFunction,SMDPad,CuDef*
G36*
X198146397Y-68450704D02*
G01*
X198285570Y-69440972D01*
X196899195Y-69635814D01*
X196760022Y-68645546D01*
X198146397Y-68450704D01*
G37*
G04 #@! TD.AperFunction*
G04 #@! TA.AperFunction,SMDPad,CuDef*
G36*
X201661849Y-67956640D02*
G01*
X201801022Y-68946908D01*
X200414647Y-69141750D01*
X200275474Y-68151482D01*
X201661849Y-67956640D01*
G37*
G04 #@! TD.AperFunction*
G04 #@! TA.AperFunction,SMDPad,CuDef*
G36*
X163841259Y-102845160D02*
G01*
X164014908Y-103829968D01*
X162636177Y-104073076D01*
X162462528Y-103088268D01*
X163841259Y-102845160D01*
G37*
G04 #@! TD.AperFunction*
G04 #@! TA.AperFunction,SMDPad,CuDef*
G36*
X167337327Y-102228708D02*
G01*
X167510976Y-103213516D01*
X166132245Y-103456624D01*
X165958596Y-102471816D01*
X167337327Y-102228708D01*
G37*
G04 #@! TD.AperFunction*
G04 #@! TA.AperFunction,SMDPad,CuDef*
G36*
X233252235Y-89005502D02*
G01*
X233113062Y-89995770D01*
X231726687Y-89800928D01*
X231865860Y-88810660D01*
X233252235Y-89005502D01*
G37*
G04 #@! TD.AperFunction*
G04 #@! TA.AperFunction,SMDPad,CuDef*
G36*
X236767687Y-89499566D02*
G01*
X236628514Y-90489834D01*
X235242139Y-90294992D01*
X235381312Y-89304724D01*
X236767687Y-89499566D01*
G37*
G04 #@! TD.AperFunction*
D11*
X216225000Y-85750000D03*
X219775000Y-85750000D03*
G04 #@! TA.AperFunction,SMDPad,CuDef*
D10*
G36*
X185379973Y-85392320D02*
G01*
X185519146Y-86382588D01*
X184132771Y-86577430D01*
X183993598Y-85587162D01*
X185379973Y-85392320D01*
G37*
G04 #@! TD.AperFunction*
G04 #@! TA.AperFunction,SMDPad,CuDef*
G36*
X188895425Y-84898256D02*
G01*
X189034598Y-85888524D01*
X187648223Y-86083366D01*
X187509050Y-85093098D01*
X188895425Y-84898256D01*
G37*
G04 #@! TD.AperFunction*
G04 #@! TA.AperFunction,SMDPad,CuDef*
G36*
X247584840Y-99575990D02*
G01*
X247309203Y-100537252D01*
X245963436Y-100151360D01*
X246239073Y-99190098D01*
X247584840Y-99575990D01*
G37*
G04 #@! TD.AperFunction*
G04 #@! TA.AperFunction,SMDPad,CuDef*
G36*
X250997320Y-100554502D02*
G01*
X250721683Y-101515764D01*
X249375916Y-101129872D01*
X249651553Y-100168610D01*
X250997320Y-100554502D01*
G37*
G04 #@! TD.AperFunction*
G04 #@! TA.AperFunction,SMDPad,CuDef*
G36*
X198041404Y-102471816D02*
G01*
X197867755Y-103456624D01*
X196489024Y-103213516D01*
X196662673Y-102228708D01*
X198041404Y-102471816D01*
G37*
G04 #@! TD.AperFunction*
G04 #@! TA.AperFunction,SMDPad,CuDef*
G36*
X201537472Y-103088268D02*
G01*
X201363823Y-104073076D01*
X199985092Y-103829968D01*
X200158741Y-102845160D01*
X201537472Y-103088268D01*
G37*
G04 #@! TD.AperFunction*
D11*
X180225000Y-101662426D03*
X183775000Y-101662426D03*
G04 #@! TA.AperFunction,SMDPad,CuDef*
D10*
G36*
X183292376Y-70538299D02*
G01*
X183431549Y-71528567D01*
X182045174Y-71723409D01*
X181906001Y-70733141D01*
X183292376Y-70538299D01*
G37*
G04 #@! TD.AperFunction*
G04 #@! TA.AperFunction,SMDPad,CuDef*
G36*
X186807828Y-70044235D02*
G01*
X186947001Y-71034503D01*
X185560626Y-71229345D01*
X185421453Y-70239077D01*
X186807828Y-70044235D01*
G37*
G04 #@! TD.AperFunction*
G04 #@! TA.AperFunction,SMDPad,CuDef*
G36*
X200233994Y-83304724D02*
G01*
X200373167Y-84294992D01*
X198986792Y-84489834D01*
X198847619Y-83499566D01*
X200233994Y-83304724D01*
G37*
G04 #@! TD.AperFunction*
G04 #@! TA.AperFunction,SMDPad,CuDef*
G36*
X203749446Y-82810660D02*
G01*
X203888619Y-83800928D01*
X202502244Y-83995770D01*
X202363071Y-83005502D01*
X203749446Y-82810660D01*
G37*
G04 #@! TD.AperFunction*
D14*
X263000000Y-52000000D03*
D15*
X155850000Y-93250000D03*
X155850000Y-99750000D03*
D16*
X155391400Y-55272000D03*
X155391400Y-57812000D03*
X155391400Y-60352000D03*
X155391400Y-62892000D03*
X155391400Y-65432000D03*
X155391400Y-67972000D03*
X155391400Y-70512000D03*
X155391400Y-73052000D03*
X155391400Y-75592000D03*
X155391400Y-78132000D03*
X155391400Y-80672000D03*
X155391400Y-83212000D03*
X170611400Y-83212000D03*
X170611400Y-80672000D03*
X170611400Y-78132000D03*
X170611400Y-75592000D03*
X170611400Y-73052000D03*
X170611400Y-70512000D03*
X170611400Y-67972000D03*
X170611400Y-65432000D03*
X170611400Y-62892000D03*
X170611400Y-60352000D03*
X170611400Y-57812000D03*
X170611400Y-55272000D03*
D14*
X263000000Y-115000000D03*
X222500000Y-100500000D03*
X174000000Y-52000000D03*
X228000000Y-60000000D03*
D17*
X165800000Y-90600000D03*
X164300000Y-86400000D03*
X160300000Y-86400000D03*
X157300000Y-86400000D03*
D14*
X174000000Y-96500000D03*
X155000000Y-115000000D03*
D13*
X209725000Y-64250000D03*
X221275000Y-66450000D03*
D12*
X221275000Y-64000000D03*
G04 #@! TA.AperFunction,SMDPad,CuDef*
D10*
G36*
X225489071Y-83168270D02*
G01*
X225850922Y-80593573D01*
X228425619Y-80955424D01*
X228063768Y-83530121D01*
X225489071Y-83168270D01*
G37*
G04 #@! TD.AperFunction*
G04 #@! TA.AperFunction,SMDPad,CuDef*
G36*
X236620486Y-86954309D02*
G01*
X236982337Y-84379612D01*
X239557034Y-84741463D01*
X239195183Y-87316160D01*
X236620486Y-86954309D01*
G37*
G04 #@! TD.AperFunction*
D12*
X238429734Y-83421729D03*
G04 #@! TA.AperFunction,SMDPad,CuDef*
D10*
G36*
X176308582Y-81921033D02*
G01*
X175946731Y-79346336D01*
X178521428Y-78984485D01*
X178883279Y-81559182D01*
X176308582Y-81921033D01*
G37*
G04 #@! TD.AperFunction*
G04 #@! TA.AperFunction,SMDPad,CuDef*
G36*
X188052359Y-82492173D02*
G01*
X187690508Y-79917476D01*
X190265205Y-79555625D01*
X190627056Y-82130322D01*
X188052359Y-82492173D01*
G37*
G04 #@! TD.AperFunction*
D12*
X188817808Y-78597742D03*
G04 #@! TA.AperFunction,SMDPad,CuDef*
D10*
G36*
X223401474Y-98022292D02*
G01*
X223763325Y-95447595D01*
X226338022Y-95809446D01*
X225976171Y-98384143D01*
X223401474Y-98022292D01*
G37*
G04 #@! TD.AperFunction*
G04 #@! TA.AperFunction,SMDPad,CuDef*
G36*
X234532889Y-101808331D02*
G01*
X234894740Y-99233634D01*
X237469437Y-99595485D01*
X237107586Y-102170182D01*
X234532889Y-101808331D01*
G37*
G04 #@! TD.AperFunction*
D12*
X236342137Y-98275751D03*
G04 #@! TA.AperFunction,SMDPad,CuDef*
D10*
G36*
X236575051Y-107134069D02*
G01*
X237291708Y-104634788D01*
X239790989Y-105351445D01*
X239074332Y-107850726D01*
X236575051Y-107134069D01*
G37*
G04 #@! TD.AperFunction*
G04 #@! TA.AperFunction,SMDPad,CuDef*
G36*
X247071222Y-112432456D02*
G01*
X247787879Y-109933175D01*
X250287160Y-110649832D01*
X249570503Y-113149113D01*
X247071222Y-112432456D01*
G37*
G04 #@! TD.AperFunction*
D12*
X249354502Y-109186053D03*
D13*
X209725000Y-79250000D03*
X221275000Y-81450000D03*
D12*
X221275000Y-79000000D03*
G04 #@! TA.AperFunction,SMDPad,CuDef*
D10*
G36*
X191162603Y-79833438D02*
G01*
X190800752Y-77258741D01*
X193375449Y-76896890D01*
X193737300Y-79471587D01*
X191162603Y-79833438D01*
G37*
G04 #@! TD.AperFunction*
G04 #@! TA.AperFunction,SMDPad,CuDef*
G36*
X202906380Y-80404578D02*
G01*
X202544529Y-77829881D01*
X205119226Y-77468030D01*
X205481077Y-80042727D01*
X202906380Y-80404578D01*
G37*
G04 #@! TD.AperFunction*
D12*
X203671829Y-76510147D03*
G04 #@! TA.AperFunction,SMDPad,CuDef*
D10*
G36*
X174220986Y-67067013D02*
G01*
X173859135Y-64492316D01*
X176433832Y-64130465D01*
X176795683Y-66705162D01*
X174220986Y-67067013D01*
G37*
G04 #@! TD.AperFunction*
G04 #@! TA.AperFunction,SMDPad,CuDef*
G36*
X185964763Y-67638153D02*
G01*
X185602912Y-65063456D01*
X188177609Y-64701605D01*
X188539460Y-67276302D01*
X185964763Y-67638153D01*
G37*
G04 #@! TD.AperFunction*
D12*
X186730212Y-63743722D03*
G04 #@! TA.AperFunction,SMDPad,CuDef*
D10*
G36*
X227576667Y-68314250D02*
G01*
X227938518Y-65739553D01*
X230513215Y-66101404D01*
X230151364Y-68676101D01*
X227576667Y-68314250D01*
G37*
G04 #@! TD.AperFunction*
G04 #@! TA.AperFunction,SMDPad,CuDef*
G36*
X238708082Y-72100289D02*
G01*
X239069933Y-69525592D01*
X241644630Y-69887443D01*
X241282779Y-72462140D01*
X238708082Y-72100289D01*
G37*
G04 #@! TD.AperFunction*
D12*
X240517330Y-68567709D03*
G04 #@! TA.AperFunction,SMDPad,CuDef*
D10*
G36*
X244844172Y-78296218D02*
G01*
X245560829Y-75796937D01*
X248060110Y-76513594D01*
X247343453Y-79012875D01*
X244844172Y-78296218D01*
G37*
G04 #@! TD.AperFunction*
G04 #@! TA.AperFunction,SMDPad,CuDef*
G36*
X255340343Y-83594605D02*
G01*
X256057000Y-81095324D01*
X258556281Y-81811981D01*
X257839624Y-84311262D01*
X255340343Y-83594605D01*
G37*
G04 #@! TD.AperFunction*
D12*
X257623623Y-80348202D03*
G04 #@! TA.AperFunction,SMDPad,CuDef*
D10*
G36*
X189075007Y-64979416D02*
G01*
X188713156Y-62404719D01*
X191287853Y-62042868D01*
X191649704Y-64617565D01*
X189075007Y-64979416D01*
G37*
G04 #@! TD.AperFunction*
G04 #@! TA.AperFunction,SMDPad,CuDef*
G36*
X200818784Y-65550556D02*
G01*
X200456933Y-62975859D01*
X203031630Y-62614008D01*
X203393481Y-65188705D01*
X200818784Y-65550556D01*
G37*
G04 #@! TD.AperFunction*
D12*
X201584233Y-61656125D03*
G04 #@! TA.AperFunction,SMDPad,CuDef*
D10*
G36*
X240709611Y-92715143D02*
G01*
X241426268Y-90215862D01*
X243925549Y-90932519D01*
X243208892Y-93431800D01*
X240709611Y-92715143D01*
G37*
G04 #@! TD.AperFunction*
G04 #@! TA.AperFunction,SMDPad,CuDef*
G36*
X251205782Y-98013530D02*
G01*
X251922439Y-95514249D01*
X254421720Y-96230906D01*
X253705063Y-98730187D01*
X251205782Y-98013530D01*
G37*
G04 #@! TD.AperFunction*
D12*
X253489062Y-94767127D03*
D18*
X216965069Y-52940069D02*
X219775000Y-55750000D01*
X198950652Y-53695173D02*
X199705756Y-52940069D01*
X171698401Y-69424999D02*
X171698401Y-63539489D01*
X186607729Y-53271672D02*
X198527151Y-53271672D01*
X199705756Y-52940069D02*
X216965069Y-52940069D01*
X220045301Y-55479699D02*
X235470568Y-55479699D01*
X245764695Y-60189237D02*
X257579794Y-72004336D01*
X170611400Y-70512000D02*
X171698401Y-69424999D01*
X171698401Y-63539489D02*
X179878621Y-55359269D01*
X183673130Y-55359269D02*
X184096631Y-55782770D01*
X184096631Y-55782770D02*
X186607729Y-53271672D01*
X198527151Y-53271672D02*
X198950652Y-53695173D01*
X235470568Y-55479699D02*
X240180106Y-60189237D01*
X240180106Y-60189237D02*
X245764695Y-60189237D01*
X257579794Y-72004336D02*
X258455739Y-72004336D01*
X179878621Y-55359269D02*
X183673130Y-55359269D01*
X219775000Y-55750000D02*
X220045301Y-55479699D01*
X251478834Y-71025824D02*
X255043259Y-71025824D01*
X246452141Y-77404906D02*
X246452141Y-76052517D01*
X246452141Y-76052517D02*
X251478834Y-71025824D01*
X234759854Y-59695173D02*
X236664654Y-59695173D01*
X229044941Y-65410086D02*
X234759854Y-59695173D01*
X229044941Y-67207827D02*
X229044941Y-65410086D01*
X215509666Y-55750000D02*
X216225000Y-55750000D01*
X209725000Y-61534666D02*
X215509666Y-55750000D01*
X209725000Y-64250000D02*
X209725000Y-61534666D01*
X190181430Y-63511142D02*
X190181430Y-59443007D01*
X190181430Y-59443007D02*
X195435200Y-54189237D01*
X175327409Y-65598739D02*
X175327409Y-61530604D01*
X175327409Y-61530604D02*
X180581179Y-56276834D01*
X242317580Y-91823831D02*
X242317580Y-90471442D01*
X242317580Y-90471442D02*
X247344273Y-85444749D01*
X247344273Y-85444749D02*
X250908698Y-85444749D01*
X201038248Y-68549195D02*
X201793352Y-67794091D01*
X188714518Y-68106499D02*
X200595552Y-68106499D01*
X200595552Y-68106499D02*
X201038248Y-68549195D01*
X216643089Y-67794091D02*
X219598998Y-70750000D01*
X186184227Y-70636790D02*
X188714518Y-68106499D01*
X170611400Y-73052000D02*
X173469306Y-70194094D01*
X173469306Y-70194094D02*
X185741531Y-70194094D01*
X185741531Y-70194094D02*
X186184227Y-70636790D01*
X201793352Y-67794091D02*
X216643089Y-67794091D01*
X220045301Y-70479699D02*
X233528952Y-70479699D01*
X254321178Y-86423261D02*
X253592969Y-86423261D01*
X253592969Y-86423261D02*
X246507593Y-79337885D01*
X219775000Y-70750000D02*
X220045301Y-70479699D01*
X233528952Y-70479699D02*
X238092510Y-75043257D01*
X246507593Y-79337885D02*
X242387138Y-79337885D01*
X219598998Y-70750000D02*
X219775000Y-70750000D01*
X242387138Y-79337885D02*
X238092510Y-75043257D01*
X226957345Y-82061847D02*
X226957345Y-80264106D01*
X232672258Y-74549193D02*
X234577058Y-74549193D01*
X226957345Y-80264106D02*
X232672258Y-74549193D01*
X209725000Y-79250000D02*
X209725000Y-76534666D01*
X209725000Y-76534666D02*
X215509666Y-70750000D01*
X215509666Y-70750000D02*
X216225000Y-70750000D01*
X192269026Y-74297029D02*
X197522796Y-69043259D01*
X192269026Y-78365164D02*
X192269026Y-74297029D01*
X177415005Y-76384624D02*
X182668775Y-71130854D01*
X177415005Y-80452759D02*
X177415005Y-76384624D01*
X243209713Y-99863675D02*
X246774138Y-99863675D01*
X238183020Y-106242757D02*
X238183020Y-104890368D01*
X238183020Y-104890368D02*
X243209713Y-99863675D01*
X219598998Y-85750000D02*
X219775000Y-85750000D01*
X250186618Y-100842187D02*
X249458409Y-100842187D01*
X203880949Y-82648111D02*
X216497109Y-82648111D01*
X202683149Y-82960519D02*
X203125845Y-83403215D01*
X170611400Y-75592000D02*
X175621721Y-80602321D01*
X175621721Y-81693807D02*
X178976029Y-85048115D01*
X187829128Y-85048115D02*
X188271824Y-85490811D01*
X190802116Y-82960519D02*
X202683149Y-82960519D01*
X249458409Y-100842187D02*
X242373032Y-93756810D01*
X242373032Y-93756810D02*
X239864444Y-93756810D01*
X188271824Y-85490811D02*
X190802116Y-82960519D01*
X178976029Y-85048115D02*
X187829128Y-85048115D01*
X220045301Y-85479699D02*
X231587333Y-85479699D01*
X203125845Y-83403215D02*
X203880949Y-82648111D01*
X231587333Y-85479699D02*
X236004913Y-89897279D01*
X219775000Y-85750000D02*
X220045301Y-85479699D01*
X175621721Y-80602321D02*
X175621721Y-81693807D01*
X239864444Y-93756810D02*
X236004913Y-89897279D01*
X216497109Y-82648111D02*
X219598998Y-85750000D01*
X230584661Y-89403215D02*
X232489461Y-89403215D01*
X224869748Y-96915869D02*
X224869748Y-95118128D01*
X224869748Y-95118128D02*
X230584661Y-89403215D01*
X209725000Y-94250000D02*
X209725000Y-91534666D01*
X209725000Y-91534666D02*
X215509666Y-85750000D01*
X215509666Y-85750000D02*
X216225000Y-85750000D01*
X194356623Y-93219184D02*
X194356623Y-89151049D01*
X194356623Y-89151049D02*
X199610393Y-83897279D01*
X179502602Y-95306780D02*
X179502602Y-91238645D01*
X179502602Y-91238645D02*
X184756372Y-85984875D01*
X198694289Y-101392125D02*
X200761282Y-103459118D01*
X166734786Y-102842666D02*
X168740027Y-100837425D01*
X182949999Y-100837425D02*
X183775000Y-101662426D01*
X177709318Y-85229918D02*
X177709318Y-100790532D01*
X184045301Y-101392125D02*
X198694289Y-101392125D01*
X168740027Y-100837425D02*
X177662425Y-100837425D01*
X177662425Y-100837425D02*
X182949999Y-100837425D01*
X170611400Y-78132000D02*
X177709318Y-85229918D01*
X177709318Y-100790532D02*
X177662425Y-100837425D01*
X183775000Y-101662426D02*
X184045301Y-101392125D01*
X189387955Y-110084819D02*
X189387955Y-108517352D01*
X189387955Y-108517352D02*
X195062641Y-102842666D01*
X195062641Y-102842666D02*
X197265214Y-102842666D01*
X173725000Y-107212426D02*
X179275000Y-101662426D01*
X179275000Y-101662426D02*
X180225000Y-101662426D01*
X173725000Y-110162426D02*
X173725000Y-107212426D01*
X158313478Y-112958697D02*
X158313478Y-108384358D01*
X158313478Y-108384358D02*
X163238718Y-103459118D01*
D19*
X164300000Y-71800600D02*
X164300000Y-86400000D01*
X155391400Y-62892000D02*
X164300000Y-71800600D01*
D18*
X165186705Y-87575010D02*
X169524399Y-83237316D01*
X169524399Y-83237316D02*
X169524399Y-58899001D01*
X169524399Y-58899001D02*
X170611400Y-57812000D01*
X160300000Y-86400000D02*
X162238285Y-86400000D01*
X163413295Y-87575010D02*
X165186705Y-87575010D01*
X162238285Y-86400000D02*
X163413295Y-87575010D01*
X257623623Y-82027982D02*
X256948312Y-82703293D01*
X249354502Y-110865833D02*
X248679191Y-111541144D01*
X257623623Y-80348202D02*
X257623623Y-82027982D01*
X253489062Y-94767127D02*
X253489062Y-96446907D01*
X253489062Y-96446907D02*
X252813751Y-97122218D01*
X249354502Y-109186053D02*
X249354502Y-110865833D01*
X240517330Y-68567709D02*
X240517330Y-70652892D01*
X238429734Y-83421729D02*
X238429734Y-85506912D01*
X240517330Y-70652892D02*
X240176356Y-70993866D01*
X236342137Y-98275751D02*
X236342137Y-100360934D01*
X236342137Y-100360934D02*
X236001163Y-100701908D01*
X238429734Y-85506912D02*
X238088760Y-85847886D01*
X200380459Y-114257033D02*
X200380459Y-112269692D01*
X200380459Y-112269692D02*
X200805897Y-111844254D01*
X221275000Y-94000000D02*
X221275000Y-96450000D01*
X221275000Y-79000000D02*
X221275000Y-81450000D01*
X221275000Y-64000000D02*
X221275000Y-66450000D01*
X185275000Y-112362426D02*
X185275000Y-109912426D01*
X205759426Y-91364167D02*
X205759426Y-93449350D01*
X205759426Y-93449350D02*
X206100400Y-93790324D01*
X203671829Y-78595330D02*
X204012803Y-78936304D01*
X201584233Y-61656125D02*
X201584233Y-63741308D01*
X201584233Y-63741308D02*
X201925207Y-64082282D01*
X203671829Y-76510147D02*
X203671829Y-78595330D01*
X186730212Y-65828905D02*
X187071186Y-66169879D01*
X188817808Y-80682925D02*
X189158782Y-81023899D01*
X188817808Y-78597742D02*
X188817808Y-80682925D01*
X190905405Y-95536946D02*
X191246379Y-95877920D01*
X186730212Y-63743722D02*
X186730212Y-65828905D01*
X170070033Y-113119637D02*
X170070033Y-111132296D01*
X190905405Y-93451763D02*
X190905405Y-95536946D01*
X170070033Y-111132296D02*
X169644595Y-110706858D01*
X154304399Y-61439001D02*
X155391400Y-60352000D01*
X155850000Y-93250000D02*
X154304399Y-91704399D01*
X154304399Y-91704399D02*
X154304399Y-61439001D01*
M02*
