M48
; DRILL file {KiCad (5.1.9)-1} date 03/06/21 18:05:28
; FORMAT={-:-/ absolute / inch / decimal}
; #@! TF.CreationDate,2021-03-06T18:05:28-05:00
; #@! TF.GenerationSoftware,Kicad,Pcbnew,(5.1.9)-1
; #@! TF.FileFunction,NonPlated,1,2,NPTH
FMAT,2
INCH
T1C0.0390
T2C0.0472
T3C0.0670
T4C0.1181
T5C0.1350
%
G90
G05
T1
X6.7017Y-4.0467
X7.3709Y-4.0241
X7.3852Y-2.1987
X7.4674Y-2.7835
X7.5496Y-3.3683
X7.97Y-2.1166
X8.0338Y-4.1181
X8.0522Y-2.7014
X8.1344Y-3.2862
X8.7882Y-2.2165
X8.7882Y-2.8071
X8.7882Y-3.3976
X9.4228Y-3.5796
X9.505Y-2.9948
X9.5872Y-2.41
X9.9743Y-4.0284
X10.1371Y-3.4607
X10.2998Y-2.893
T2
X6.122Y-3.4843
X6.3976Y-3.4843
T3
X6.3148Y-4.2828
X6.7413Y-4.2076
X6.9488Y-4.1895
X6.9903Y-2.4212
X7.0725Y-3.006
X7.1547Y-3.5908
X7.3819Y-4.1895
X7.4192Y-2.3609
X7.5013Y-2.9458
X7.5751Y-2.339
X7.5835Y-3.5306
X7.5894Y-4.2076
X7.6573Y-2.9238
X7.7395Y-3.5086
X8.004Y-2.2788
X8.0159Y-4.2828
X8.0861Y-2.8636
X8.1683Y-3.4484
X8.3661Y-2.3819
X8.3661Y-2.9724
X8.3661Y-3.563
X8.7992Y-2.3819
X8.7992Y-2.9724
X8.7992Y-3.563
X8.9819Y-3.6846
X9.0641Y-3.0998
X9.1463Y-2.515
X9.4107Y-3.7449
X9.4929Y-3.1601
X9.523Y-4.071
X9.5751Y-2.5753
X9.6858Y-3.5033
X9.8486Y-2.9356
X9.9393Y-4.1904
X10.1021Y-3.6227
X10.2648Y-3.055
T4
X6.3598Y-4.4248
X6.5687Y-4.4759
X6.9685Y-4.3371
X7.0303Y-2.5647
X7.1125Y-3.1495
X7.1654Y-4.4237
X7.1947Y-3.7343
X7.2373Y-2.6231
X7.3195Y-3.2079
X7.4017Y-3.7927
X7.5832Y-4.3564
X7.6151Y-2.4825
X7.6973Y-3.0673
X7.762Y-4.4759
X7.7795Y-3.6521
X7.8221Y-2.5409
X7.9043Y-3.1257
X7.9865Y-3.7105
X8.3858Y-2.5295
X8.3858Y-3.1201
X8.3858Y-3.7106
X8.5827Y-2.6161
X8.5827Y-3.2067
X8.5827Y-3.7972
X8.9808Y-3.8335
X9.063Y-3.2487
X9.1452Y-2.6639
X9.1637Y-3.9467
X9.2459Y-3.3619
X9.3281Y-2.7771
X9.5012Y-4.2183
X9.664Y-3.6507
X9.6666Y-4.3558
X9.8268Y-3.083
X9.8294Y-3.7882
X9.9921Y-3.2205
T5
X6.528Y-4.2452
X7.1654Y-4.1895
X7.2047Y-2.3911
X7.2869Y-2.9759
X7.3691Y-3.5607
X7.7895Y-2.3089
X7.8027Y-4.2452
X7.8717Y-2.8937
X7.9539Y-3.4785
X8.5827Y-2.3819
X8.5827Y-2.9724
X8.5827Y-3.563
X9.1963Y-3.7147
X9.2785Y-3.1299
X9.3607Y-2.5451
X9.7311Y-4.1307
X9.8939Y-3.563
X10.0567Y-2.9953
T0
M30
