G04 #@! TF.GenerationSoftware,KiCad,Pcbnew,(5.1.9)-1*
G04 #@! TF.CreationDate,2021-03-06T18:05:25-05:00*
G04 #@! TF.ProjectId,ya36,79613336-2e6b-4696-9361-645f70636258,rev?*
G04 #@! TF.SameCoordinates,Original*
G04 #@! TF.FileFunction,Legend,Top*
G04 #@! TF.FilePolarity,Positive*
%FSLAX46Y46*%
G04 Gerber Fmt 4.6, Leading zero omitted, Abs format (unit mm)*
G04 Created by KiCad (PCBNEW (5.1.9)-1) date 2021-03-06 18:05:25*
%MOMM*%
%LPD*%
G01*
G04 APERTURE LIST*
%ADD10C,0.100000*%
%ADD11C,0.150000*%
G04 APERTURE END LIST*
D10*
X156800000Y-93250000D02*
G75*
G03*
X156800000Y-93250000I-950000J0D01*
G01*
X156800000Y-99750000D02*
G75*
G03*
X156800000Y-99750000I-950000J0D01*
G01*
X156103400Y-55272000D02*
G75*
G03*
X156103400Y-55272000I-712000J0D01*
G01*
X156103400Y-57812000D02*
G75*
G03*
X156103400Y-57812000I-712000J0D01*
G01*
X156103400Y-60352000D02*
G75*
G03*
X156103400Y-60352000I-712000J0D01*
G01*
X156103400Y-62892000D02*
G75*
G03*
X156103400Y-62892000I-712000J0D01*
G01*
X156103400Y-65432000D02*
G75*
G03*
X156103400Y-65432000I-712000J0D01*
G01*
X156103400Y-67972000D02*
G75*
G03*
X156103400Y-67972000I-712000J0D01*
G01*
X156103400Y-70512000D02*
G75*
G03*
X156103400Y-70512000I-712000J0D01*
G01*
X156103400Y-73052000D02*
G75*
G03*
X156103400Y-73052000I-712000J0D01*
G01*
X156103400Y-75592000D02*
G75*
G03*
X156103400Y-75592000I-712000J0D01*
G01*
X156103400Y-78132000D02*
G75*
G03*
X156103400Y-78132000I-712000J0D01*
G01*
X156103400Y-80672000D02*
G75*
G03*
X156103400Y-80672000I-712000J0D01*
G01*
X156103400Y-83212000D02*
G75*
G03*
X156103400Y-83212000I-712000J0D01*
G01*
X171323400Y-83212000D02*
G75*
G03*
X171323400Y-83212000I-712000J0D01*
G01*
X171323400Y-80672000D02*
G75*
G03*
X171323400Y-80672000I-712000J0D01*
G01*
X171323400Y-78132000D02*
G75*
G03*
X171323400Y-78132000I-712000J0D01*
G01*
X171323400Y-75592000D02*
G75*
G03*
X171323400Y-75592000I-712000J0D01*
G01*
X171323400Y-73052000D02*
G75*
G03*
X171323400Y-73052000I-712000J0D01*
G01*
X171323400Y-70512000D02*
G75*
G03*
X171323400Y-70512000I-712000J0D01*
G01*
X171323400Y-67972000D02*
G75*
G03*
X171323400Y-67972000I-712000J0D01*
G01*
X171323400Y-65432000D02*
G75*
G03*
X171323400Y-65432000I-712000J0D01*
G01*
X171323400Y-62892000D02*
G75*
G03*
X171323400Y-62892000I-712000J0D01*
G01*
X171323400Y-60352000D02*
G75*
G03*
X171323400Y-60352000I-712000J0D01*
G01*
X171323400Y-57812000D02*
G75*
G03*
X171323400Y-57812000I-712000J0D01*
G01*
X171323400Y-55272000D02*
G75*
G03*
X171323400Y-55272000I-712000J0D01*
G01*
D11*
M02*
