M48
; DRILL file {KiCad (5.1.9)-1} date 03/06/21 18:04:38
; FORMAT={-:-/ absolute / inch / decimal}
; #@! TF.CreationDate,2021-03-06T18:04:38-05:00
; #@! TF.GenerationSoftware,Kicad,Pcbnew,(5.1.9)-1
; #@! TF.FileFunction,NonPlated,1,2,NPTH
FMAT,2
INCH
T1C0.0390
T2C0.0472
T3C0.0670
T4C0.1181
T5C0.1350
%
G90
G05
T1
X2.1031Y-2.7797
X2.2659Y-3.3474
X2.4287Y-3.9151
X2.8277Y-2.3528
X2.9099Y-2.9376
X2.9921Y-3.5224
X3.6307Y-2.2165
X3.6307Y-2.8071
X3.6307Y-3.3976
X4.2805Y-3.3434
X4.3627Y-2.7586
X4.3789Y-4.0467
X4.4449Y-2.1738
X4.8653Y-3.4256
X4.9475Y-2.8407
X5.0297Y-2.2559
X5.048Y-4.0241
X5.711Y-4.1181
T2
X5.6102Y-3.4843
X5.8858Y-3.4843
T3
X1.743Y-3.055
X1.9058Y-3.6227
X2.0686Y-4.1904
X2.1593Y-2.9356
X2.3221Y-3.5033
X2.4328Y-2.5753
X2.4849Y-4.071
X2.515Y-3.1601
X2.5971Y-3.7449
X2.8616Y-2.515
X2.9438Y-3.0998
X3.2087Y-2.3819
X3.2087Y-2.9724
X3.2087Y-3.563
X3.6417Y-2.3819
X3.6417Y-2.9724
X3.8395Y-3.4484
X3.9217Y-2.8636
X3.9919Y-4.2828
X4.0039Y-2.2788
X4.2684Y-3.5086
X4.3506Y-2.9238
X4.4184Y-4.2076
X4.4243Y-3.5306
X4.4328Y-2.339
X4.5065Y-2.9458
X4.5887Y-2.3609
X4.626Y-4.1895
X4.8532Y-3.5908
X4.9354Y-3.006
X5.0176Y-2.4212
X5.0591Y-4.1895
X5.2666Y-4.2076
X5.6931Y-4.2828
T4
X1.8026Y-3.1915
X1.9654Y-3.7592
X2.0157Y-3.2205
X2.1282Y-4.3268
X2.1785Y-3.7882
X2.3413Y-4.3558
X2.4728Y-2.7187
X2.555Y-3.3035
X2.6372Y-3.8883
X2.6798Y-2.7771
X2.762Y-3.3619
X2.8442Y-3.9467
X3.2283Y-2.5295
X3.2283Y-3.1201
X3.2283Y-3.7106
X3.4252Y-2.6161
X3.4252Y-3.2067
X3.4252Y-3.7972
X3.8385Y-3.5973
X3.9207Y-3.0125
X4.0029Y-2.4277
X4.0214Y-3.7105
X4.037Y-4.4248
X4.1036Y-3.1257
X4.1857Y-2.5409
X4.2459Y-4.4759
X4.4233Y-3.6795
X4.5055Y-3.0947
X4.5877Y-2.5099
X4.6062Y-3.7927
X4.6457Y-4.3371
X4.6884Y-3.2079
X4.7705Y-2.6231
X4.8425Y-4.4237
X5.2604Y-4.3564
X5.4392Y-4.4759
T5
X1.9512Y-2.9953
X2.114Y-3.563
X2.2767Y-4.1307
X2.6472Y-2.5451
X2.7294Y-3.1299
X2.8116Y-3.7147
X3.4252Y-2.3819
X3.4252Y-2.9724
X3.4252Y-3.563
X4.054Y-3.4785
X4.1362Y-2.8937
X4.2052Y-4.2452
X4.2183Y-2.3089
X4.6388Y-3.5607
X4.721Y-2.9759
X4.8032Y-2.3911
X4.8425Y-4.1895
X5.4799Y-4.2452
T0
M30
