G04 #@! TF.GenerationSoftware,KiCad,Pcbnew,(5.1.9)-1*
G04 #@! TF.CreationDate,2021-03-07T06:52:57-05:00*
G04 #@! TF.ProjectId,ya36,79613336-2e6b-4696-9361-645f70636258,rev?*
G04 #@! TF.SameCoordinates,Original*
G04 #@! TF.FileFunction,Legend,Top*
G04 #@! TF.FilePolarity,Positive*
%FSLAX46Y46*%
G04 Gerber Fmt 4.6, Leading zero omitted, Abs format (unit mm)*
G04 Created by KiCad (PCBNEW (5.1.9)-1) date 2021-03-07 06:52:57*
%MOMM*%
%LPD*%
G01*
G04 APERTURE LIST*
%ADD10C,0.180000*%
%ADD11C,0.100000*%
%ADD12C,0.150000*%
G04 APERTURE END LIST*
D10*
X237071428Y-114964285D02*
X237071428Y-115678571D01*
X236571428Y-114178571D02*
X237071428Y-114964285D01*
X237571428Y-114178571D01*
X238000000Y-115250000D02*
X238714285Y-115250000D01*
X237857142Y-115678571D02*
X238357142Y-114178571D01*
X238857142Y-115678571D01*
X239214285Y-114178571D02*
X240142857Y-114178571D01*
X239642857Y-114750000D01*
X239857142Y-114750000D01*
X240000000Y-114821428D01*
X240071428Y-114892857D01*
X240142857Y-115035714D01*
X240142857Y-115392857D01*
X240071428Y-115535714D01*
X240000000Y-115607142D01*
X239857142Y-115678571D01*
X239428571Y-115678571D01*
X239285714Y-115607142D01*
X239214285Y-115535714D01*
X241428571Y-114178571D02*
X241142857Y-114178571D01*
X241000000Y-114250000D01*
X240928571Y-114321428D01*
X240785714Y-114535714D01*
X240714285Y-114821428D01*
X240714285Y-115392857D01*
X240785714Y-115535714D01*
X240857142Y-115607142D01*
X241000000Y-115678571D01*
X241285714Y-115678571D01*
X241428571Y-115607142D01*
X241500000Y-115535714D01*
X241571428Y-115392857D01*
X241571428Y-115035714D01*
X241500000Y-114892857D01*
X241428571Y-114821428D01*
X241285714Y-114750000D01*
X241000000Y-114750000D01*
X240857142Y-114821428D01*
X240785714Y-114892857D01*
X240714285Y-115035714D01*
X243214285Y-114678571D02*
X243571428Y-115678571D01*
X243928571Y-114678571D01*
X245285714Y-115678571D02*
X244428571Y-115678571D01*
X244857142Y-115678571D02*
X244857142Y-114178571D01*
X244714285Y-114392857D01*
X244571428Y-114535714D01*
X244428571Y-114607142D01*
X245928571Y-115535714D02*
X246000000Y-115607142D01*
X245928571Y-115678571D01*
X245857142Y-115607142D01*
X245928571Y-115535714D01*
X245928571Y-115678571D01*
X246928571Y-114178571D02*
X247071428Y-114178571D01*
X247214285Y-114250000D01*
X247285714Y-114321428D01*
X247357142Y-114464285D01*
X247428571Y-114750000D01*
X247428571Y-115107142D01*
X247357142Y-115392857D01*
X247285714Y-115535714D01*
X247214285Y-115607142D01*
X247071428Y-115678571D01*
X246928571Y-115678571D01*
X246785714Y-115607142D01*
X246714285Y-115535714D01*
X246642857Y-115392857D01*
X246571428Y-115107142D01*
X246571428Y-114750000D01*
X246642857Y-114464285D01*
X246714285Y-114321428D01*
X246785714Y-114250000D01*
X246928571Y-114178571D01*
X249214285Y-115678571D02*
X249214285Y-114178571D01*
X249214285Y-114750000D02*
X249357142Y-114678571D01*
X249642857Y-114678571D01*
X249785714Y-114750000D01*
X249857142Y-114821428D01*
X249928571Y-114964285D01*
X249928571Y-115392857D01*
X249857142Y-115535714D01*
X249785714Y-115607142D01*
X249642857Y-115678571D01*
X249357142Y-115678571D01*
X249214285Y-115607142D01*
X250428571Y-114678571D02*
X250785714Y-115678571D01*
X251142857Y-114678571D02*
X250785714Y-115678571D01*
X250642857Y-116035714D01*
X250571428Y-116107142D01*
X250428571Y-116178571D01*
X252785714Y-115607142D02*
X252928571Y-115678571D01*
X253214285Y-115678571D01*
X253357142Y-115607142D01*
X253428571Y-115464285D01*
X253428571Y-115392857D01*
X253357142Y-115250000D01*
X253214285Y-115178571D01*
X253000000Y-115178571D01*
X252857142Y-115107142D01*
X252785714Y-114964285D01*
X252785714Y-114892857D01*
X252857142Y-114750000D01*
X253000000Y-114678571D01*
X253214285Y-114678571D01*
X253357142Y-114750000D01*
X254642857Y-115607142D02*
X254500000Y-115678571D01*
X254214285Y-115678571D01*
X254071428Y-115607142D01*
X254000000Y-115464285D01*
X254000000Y-114892857D01*
X254071428Y-114750000D01*
X254214285Y-114678571D01*
X254500000Y-114678571D01*
X254642857Y-114750000D01*
X254714285Y-114892857D01*
X254714285Y-115035714D01*
X254000000Y-115178571D01*
X255000000Y-115821428D02*
X256142857Y-115821428D01*
X256714285Y-115678571D02*
X256571428Y-115607142D01*
X256500000Y-115464285D01*
X256500000Y-114178571D01*
X257857142Y-115607142D02*
X257714285Y-115678571D01*
X257428571Y-115678571D01*
X257285714Y-115607142D01*
X257214285Y-115464285D01*
X257214285Y-114892857D01*
X257285714Y-114750000D01*
X257428571Y-114678571D01*
X257714285Y-114678571D01*
X257857142Y-114750000D01*
X257928571Y-114892857D01*
X257928571Y-115035714D01*
X257214285Y-115178571D01*
X258214285Y-115821428D02*
X259357142Y-115821428D01*
X259571428Y-115678571D02*
X260357142Y-114678571D01*
X259571428Y-114678571D02*
X260357142Y-115678571D01*
D11*
X156103400Y-55272000D02*
G75*
G03*
X156103400Y-55272000I-712000J0D01*
G01*
X156103400Y-57812000D02*
G75*
G03*
X156103400Y-57812000I-712000J0D01*
G01*
X156103400Y-60352000D02*
G75*
G03*
X156103400Y-60352000I-712000J0D01*
G01*
X156103400Y-62892000D02*
G75*
G03*
X156103400Y-62892000I-712000J0D01*
G01*
X156103400Y-65432000D02*
G75*
G03*
X156103400Y-65432000I-712000J0D01*
G01*
X156103400Y-67972000D02*
G75*
G03*
X156103400Y-67972000I-712000J0D01*
G01*
X156103400Y-70512000D02*
G75*
G03*
X156103400Y-70512000I-712000J0D01*
G01*
X156103400Y-73052000D02*
G75*
G03*
X156103400Y-73052000I-712000J0D01*
G01*
X156103400Y-75592000D02*
G75*
G03*
X156103400Y-75592000I-712000J0D01*
G01*
X156103400Y-78132000D02*
G75*
G03*
X156103400Y-78132000I-712000J0D01*
G01*
X156103400Y-80672000D02*
G75*
G03*
X156103400Y-80672000I-712000J0D01*
G01*
X156103400Y-83212000D02*
G75*
G03*
X156103400Y-83212000I-712000J0D01*
G01*
X171323400Y-83212000D02*
G75*
G03*
X171323400Y-83212000I-712000J0D01*
G01*
X171323400Y-80672000D02*
G75*
G03*
X171323400Y-80672000I-712000J0D01*
G01*
X171323400Y-78132000D02*
G75*
G03*
X171323400Y-78132000I-712000J0D01*
G01*
X171323400Y-75592000D02*
G75*
G03*
X171323400Y-75592000I-712000J0D01*
G01*
X171323400Y-73052000D02*
G75*
G03*
X171323400Y-73052000I-712000J0D01*
G01*
X171323400Y-70512000D02*
G75*
G03*
X171323400Y-70512000I-712000J0D01*
G01*
X171323400Y-67972000D02*
G75*
G03*
X171323400Y-67972000I-712000J0D01*
G01*
X171323400Y-65432000D02*
G75*
G03*
X171323400Y-65432000I-712000J0D01*
G01*
X171323400Y-62892000D02*
G75*
G03*
X171323400Y-62892000I-712000J0D01*
G01*
X171323400Y-60352000D02*
G75*
G03*
X171323400Y-60352000I-712000J0D01*
G01*
X171323400Y-57812000D02*
G75*
G03*
X171323400Y-57812000I-712000J0D01*
G01*
X171323400Y-55272000D02*
G75*
G03*
X171323400Y-55272000I-712000J0D01*
G01*
X156800000Y-93250000D02*
G75*
G03*
X156800000Y-93250000I-950000J0D01*
G01*
X156800000Y-99750000D02*
G75*
G03*
X156800000Y-99750000I-950000J0D01*
G01*
D12*
M02*
