G04 #@! TF.GenerationSoftware,KiCad,Pcbnew,(5.1.9)-1*
G04 #@! TF.CreationDate,2021-03-07T06:52:57-05:00*
G04 #@! TF.ProjectId,ya36,79613336-2e6b-4696-9361-645f70636258,rev?*
G04 #@! TF.SameCoordinates,Original*
G04 #@! TF.FileFunction,Soldermask,Bot*
G04 #@! TF.FilePolarity,Negative*
%FSLAX46Y46*%
G04 Gerber Fmt 4.6, Leading zero omitted, Abs format (unit mm)*
G04 Created by KiCad (PCBNEW (5.1.9)-1) date 2021-03-07 06:52:57*
%MOMM*%
%LPD*%
G01*
G04 APERTURE LIST*
%ADD10C,0.990600*%
%ADD11C,0.100000*%
%ADD12C,3.000000*%
%ADD13C,3.429000*%
%ADD14C,1.701800*%
%ADD15C,0.800000*%
%ADD16R,2.600000X2.600000*%
%ADD17C,1.524000*%
%ADD18C,2.300000*%
%ADD19R,1.400000X1.000000*%
%ADD20C,2.000000*%
%ADD21O,2.500000X1.700000*%
%ADD22C,1.200000*%
G04 APERTURE END LIST*
D10*
X253346564Y-102320453D03*
D11*
G36*
X236575051Y-107134069D02*
G01*
X237291708Y-104634788D01*
X239790989Y-105351445D01*
X239074332Y-107850726D01*
X236575051Y-107134069D01*
G37*
D12*
X245531059Y-110638432D03*
D13*
X247171101Y-104918925D03*
D12*
X241331152Y-107145470D03*
D11*
G36*
X247071222Y-112432456D02*
G01*
X247787879Y-109933175D01*
X250287160Y-110649832D01*
X249570503Y-113149113D01*
X247071222Y-112432456D01*
G37*
D14*
X252458040Y-106434930D03*
X241884162Y-103402920D03*
D15*
X249354502Y-109186053D03*
D11*
G36*
X255853961Y-70738139D02*
G01*
X255578324Y-71699401D01*
X254232557Y-71313509D01*
X254508194Y-70352247D01*
X255853961Y-70738139D01*
G37*
G36*
X259266441Y-71716651D02*
G01*
X258990804Y-72677913D01*
X257645037Y-72292021D01*
X257920674Y-71330759D01*
X259266441Y-71716651D01*
G37*
G36*
X237427428Y-59297460D02*
G01*
X237288255Y-60287728D01*
X235901880Y-60092886D01*
X236041053Y-59102618D01*
X237427428Y-59297460D01*
G37*
G36*
X240942880Y-59791524D02*
G01*
X240803707Y-60781792D01*
X239417332Y-60586950D01*
X239556505Y-59596682D01*
X240942880Y-59791524D01*
G37*
G36*
X251719400Y-85157064D02*
G01*
X251443763Y-86118326D01*
X250097996Y-85732434D01*
X250373633Y-84771172D01*
X251719400Y-85157064D01*
G37*
G36*
X255131880Y-86135576D02*
G01*
X254856243Y-87096838D01*
X253510476Y-86710946D01*
X253786113Y-85749684D01*
X255131880Y-86135576D01*
G37*
D10*
X189672246Y-70701987D03*
D11*
G36*
X176308582Y-81921033D02*
G01*
X175946731Y-79346336D01*
X178521428Y-78984485D01*
X178883279Y-81559182D01*
X176308582Y-81921033D01*
G37*
D12*
X185915654Y-81479691D03*
D13*
X185087574Y-75587596D03*
D12*
X180658133Y-79996967D03*
D11*
G36*
X188052359Y-82492173D02*
G01*
X187690508Y-79917476D01*
X190265205Y-79555625D01*
X190627056Y-82130322D01*
X188052359Y-82492173D01*
G37*
D14*
X190534048Y-74822144D03*
X179641100Y-76353048D03*
D15*
X188817808Y-78597742D03*
D10*
X243515034Y-61213337D03*
D11*
G36*
X227576667Y-68314250D02*
G01*
X227938518Y-65739553D01*
X230513215Y-66101404D01*
X230151364Y-68676101D01*
X227576667Y-68314250D01*
G37*
D12*
X236933228Y-70538074D03*
D13*
X237761308Y-64645979D03*
D12*
X232288069Y-67663619D03*
D11*
G36*
X238708082Y-72100289D02*
G01*
X239069933Y-69525592D01*
X241644630Y-69887443D01*
X241282779Y-72462140D01*
X238708082Y-72100289D01*
G37*
D14*
X243207782Y-65411431D03*
X232314834Y-63880527D03*
D15*
X240517330Y-68567709D03*
D11*
G36*
X235339832Y-74151480D02*
G01*
X235200659Y-75141748D01*
X233814284Y-74946906D01*
X233953457Y-73956638D01*
X235339832Y-74151480D01*
G37*
G36*
X238855284Y-74645544D02*
G01*
X238716111Y-75635812D01*
X237329736Y-75440970D01*
X237468909Y-74450702D01*
X238855284Y-74645544D01*
G37*
D10*
X170222955Y-102786093D03*
D11*
G36*
X157258971Y-114464690D02*
G01*
X156807485Y-111904190D01*
X159367985Y-111452704D01*
X159819471Y-114013204D01*
X157258971Y-114464690D01*
G37*
D12*
X166844788Y-113688335D03*
D13*
X165811581Y-107828729D03*
D12*
X161538723Y-112389999D03*
D11*
G36*
X169015526Y-114625630D02*
G01*
X168564040Y-112065130D01*
X171124540Y-111613644D01*
X171576026Y-114174144D01*
X169015526Y-114625630D01*
G37*
D14*
X171228024Y-106873664D03*
X160395138Y-108783794D03*
D15*
X169644595Y-110706858D03*
D11*
G36*
X198146397Y-68450704D02*
G01*
X198285570Y-69440972D01*
X196899195Y-69635814D01*
X196760022Y-68645546D01*
X198146397Y-68450704D01*
G37*
G36*
X201661849Y-67956640D02*
G01*
X201801022Y-68946908D01*
X200414647Y-69141750D01*
X200275474Y-68151482D01*
X201661849Y-67956640D01*
G37*
D10*
X223220000Y-71300000D03*
D16*
X209725000Y-79250000D03*
D12*
X218000000Y-81450000D03*
D13*
X218000000Y-75500000D03*
D12*
X213000000Y-79250000D03*
D16*
X221275000Y-81450000D03*
D14*
X223500000Y-75500000D03*
X212500000Y-75500000D03*
D15*
X221275000Y-79000000D03*
D10*
X257481124Y-87901527D03*
D11*
G36*
X240709611Y-92715143D02*
G01*
X241426268Y-90215862D01*
X243925549Y-90932519D01*
X243208892Y-93431800D01*
X240709611Y-92715143D01*
G37*
D12*
X249665619Y-96219506D03*
D13*
X251305661Y-90499999D03*
D12*
X245465712Y-92726544D03*
D11*
G36*
X251205782Y-98013530D02*
G01*
X251922439Y-95514249D01*
X254421720Y-96230906D01*
X253705063Y-98730187D01*
X251205782Y-98013530D01*
G37*
D14*
X256592600Y-92016004D03*
X246018722Y-88983994D03*
D15*
X253489062Y-94767127D03*
D10*
X187584650Y-55847967D03*
D11*
G36*
X174220986Y-67067013D02*
G01*
X173859135Y-64492316D01*
X176433832Y-64130465D01*
X176795683Y-66705162D01*
X174220986Y-67067013D01*
G37*
D12*
X183828058Y-66625671D03*
D13*
X182999978Y-60733576D03*
D12*
X178570537Y-65142947D03*
D11*
G36*
X185964763Y-67638153D02*
G01*
X185602912Y-65063456D01*
X188177609Y-64701605D01*
X188539460Y-67276302D01*
X185964763Y-67638153D01*
G37*
D14*
X188446452Y-59968124D03*
X177553504Y-61499028D03*
D15*
X186730212Y-63743722D03*
D10*
X239339841Y-90921379D03*
D11*
G36*
X223401474Y-98022292D02*
G01*
X223763325Y-95447595D01*
X226338022Y-95809446D01*
X225976171Y-98384143D01*
X223401474Y-98022292D01*
G37*
D12*
X232758035Y-100246116D03*
D13*
X233586115Y-94354021D03*
D12*
X228112876Y-97371661D03*
D11*
G36*
X234532889Y-101808331D02*
G01*
X234894740Y-99233634D01*
X237469437Y-99595485D01*
X237107586Y-102170182D01*
X234532889Y-101808331D01*
G37*
D14*
X239032589Y-95119473D03*
X228139641Y-93588569D03*
D15*
X236342137Y-98275751D03*
D10*
X241427438Y-76067357D03*
D11*
G36*
X225489071Y-83168270D02*
G01*
X225850922Y-80593573D01*
X228425619Y-80955424D01*
X228063768Y-83530121D01*
X225489071Y-83168270D01*
G37*
D12*
X234845632Y-85392094D03*
D13*
X235673712Y-79499999D03*
D12*
X230200473Y-82517639D03*
D11*
G36*
X236620486Y-86954309D02*
G01*
X236982337Y-84379612D01*
X239557034Y-84741463D01*
X239195183Y-87316160D01*
X236620486Y-86954309D01*
G37*
D14*
X241120186Y-80265451D03*
X230227238Y-78734547D03*
D15*
X238429734Y-83421729D03*
D10*
X261615685Y-73482602D03*
D11*
G36*
X244844172Y-78296218D02*
G01*
X245560829Y-75796937D01*
X248060110Y-76513594D01*
X247343453Y-79012875D01*
X244844172Y-78296218D01*
G37*
D12*
X253800180Y-81800581D03*
D13*
X255440222Y-76081074D03*
D12*
X249600273Y-78307619D03*
D11*
G36*
X255340343Y-83594605D02*
G01*
X256057000Y-81095324D01*
X258556281Y-81811981D01*
X257839624Y-84311262D01*
X255340343Y-83594605D01*
G37*
D14*
X260727161Y-77597079D03*
X250153283Y-74565069D03*
D15*
X257623623Y-80348202D03*
D10*
X202438671Y-53760370D03*
D11*
G36*
X189075007Y-64979416D02*
G01*
X188713156Y-62404719D01*
X191287853Y-62042868D01*
X191649704Y-64617565D01*
X189075007Y-64979416D01*
G37*
D12*
X198682079Y-64538074D03*
D13*
X197853999Y-58645979D03*
D12*
X193424558Y-63055350D03*
D11*
G36*
X200818784Y-65550556D02*
G01*
X200456933Y-62975859D01*
X203031630Y-62614008D01*
X203393481Y-65188705D01*
X200818784Y-65550556D01*
G37*
D14*
X203300473Y-57880527D03*
X192407525Y-59411431D03*
D15*
X201584233Y-61656125D03*
D10*
X204526267Y-68614392D03*
D11*
G36*
X191162603Y-79833438D02*
G01*
X190800752Y-77258741D01*
X193375449Y-76896890D01*
X193737300Y-79471587D01*
X191162603Y-79833438D01*
G37*
D12*
X200769675Y-79392096D03*
D13*
X199941595Y-73500001D03*
D12*
X195512154Y-77909372D03*
D11*
G36*
X202906380Y-80404578D02*
G01*
X202544529Y-77829881D01*
X205119226Y-77468030D01*
X205481077Y-80042727D01*
X202906380Y-80404578D01*
G37*
D14*
X205388069Y-72734549D03*
X194495121Y-74265453D03*
D15*
X203671829Y-76510147D03*
D10*
X206613864Y-83468412D03*
D11*
G36*
X193250200Y-94687458D02*
G01*
X192888349Y-92112761D01*
X195463046Y-91750910D01*
X195824897Y-94325607D01*
X193250200Y-94687458D01*
G37*
D12*
X202857272Y-94246116D03*
D13*
X202029192Y-88354021D03*
D12*
X197599751Y-92763392D03*
D11*
G36*
X204993977Y-95258598D02*
G01*
X204632126Y-92683901D01*
X207206823Y-92322050D01*
X207568674Y-94896747D01*
X204993977Y-95258598D01*
G37*
D14*
X207475666Y-87588569D03*
X196582718Y-89119473D03*
D15*
X205759426Y-91364167D03*
D11*
G36*
X196058801Y-53596682D02*
G01*
X196197974Y-54586950D01*
X194811599Y-54781792D01*
X194672426Y-53791524D01*
X196058801Y-53596682D01*
G37*
G36*
X199574253Y-53102618D02*
G01*
X199713426Y-54092886D01*
X198327051Y-54287728D01*
X198187878Y-53297460D01*
X199574253Y-53102618D01*
G37*
D10*
X204058439Y-104598980D03*
D11*
G36*
X187881962Y-111139326D02*
G01*
X188333448Y-108578826D01*
X190893948Y-109030312D01*
X190442462Y-111590812D01*
X187881962Y-111139326D01*
G37*
D12*
X197155213Y-113688335D03*
D13*
X198188420Y-107828729D03*
D12*
X192613201Y-110653517D03*
D11*
G36*
X198874466Y-115311540D02*
G01*
X199325952Y-112751040D01*
X201886452Y-113202526D01*
X201434966Y-115763026D01*
X198874466Y-115311540D01*
G37*
D14*
X203604863Y-108783794D03*
X192771977Y-106873664D03*
D15*
X200805897Y-111844254D03*
D10*
X191759843Y-85556008D03*
D11*
G36*
X178396179Y-96775054D02*
G01*
X178034328Y-94200357D01*
X180609025Y-93838506D01*
X180970876Y-96413203D01*
X178396179Y-96775054D01*
G37*
D12*
X188003251Y-96333712D03*
D13*
X187175171Y-90441617D03*
D12*
X182745730Y-94850988D03*
D11*
G36*
X190139956Y-97346194D02*
G01*
X189778105Y-94771497D01*
X192352802Y-94409646D01*
X192714653Y-96984343D01*
X190139956Y-97346194D01*
G37*
D14*
X192621645Y-89676165D03*
X181728697Y-91207069D03*
D15*
X190905405Y-93451763D03*
D10*
X223220000Y-86300000D03*
D16*
X209725000Y-94250000D03*
D12*
X218000000Y-96450000D03*
D13*
X218000000Y-90500000D03*
D12*
X213000000Y-94250000D03*
D16*
X221275000Y-96450000D03*
D14*
X223500000Y-90500000D03*
X212500000Y-90500000D03*
D15*
X221275000Y-94000000D03*
D11*
G36*
X198041404Y-102471816D02*
G01*
X197867755Y-103456624D01*
X196489024Y-103213516D01*
X196662673Y-102228708D01*
X198041404Y-102471816D01*
G37*
G36*
X201537472Y-103088268D02*
G01*
X201363823Y-104073076D01*
X199985092Y-103829968D01*
X200158741Y-102845160D01*
X201537472Y-103088268D01*
G37*
G36*
X163841259Y-102845160D02*
G01*
X164014908Y-103829968D01*
X162636177Y-104073076D01*
X162462528Y-103088268D01*
X163841259Y-102845160D01*
G37*
G36*
X167337327Y-102228708D02*
G01*
X167510976Y-103213516D01*
X166132245Y-103456624D01*
X165958596Y-102471816D01*
X167337327Y-102228708D01*
G37*
D17*
X155391400Y-55272000D03*
X155391400Y-57812000D03*
X155391400Y-60352000D03*
X155391400Y-62892000D03*
X155391400Y-65432000D03*
X155391400Y-67972000D03*
X155391400Y-70512000D03*
X155391400Y-73052000D03*
X155391400Y-75592000D03*
X155391400Y-78132000D03*
X155391400Y-80672000D03*
X155391400Y-83212000D03*
X170611400Y-83212000D03*
X170611400Y-80672000D03*
X170611400Y-78132000D03*
X170611400Y-75592000D03*
X170611400Y-73052000D03*
X170611400Y-70512000D03*
X170611400Y-67972000D03*
X170611400Y-65432000D03*
X170611400Y-62892000D03*
X170611400Y-60352000D03*
X170611400Y-57812000D03*
X170611400Y-55272000D03*
D18*
X263000000Y-115000000D03*
D19*
X216225000Y-70750000D03*
X219775000Y-70750000D03*
D18*
X228000000Y-60000000D03*
D20*
X155850000Y-93250000D03*
X155850000Y-99750000D03*
D18*
X222500000Y-100500000D03*
D19*
X180225000Y-101662426D03*
X183775000Y-101662426D03*
D11*
G36*
X233252235Y-89005502D02*
G01*
X233113062Y-89995770D01*
X231726687Y-89800928D01*
X231865860Y-88810660D01*
X233252235Y-89005502D01*
G37*
G36*
X236767687Y-89499566D02*
G01*
X236628514Y-90489834D01*
X235242139Y-90294992D01*
X235381312Y-89304724D01*
X236767687Y-89499566D01*
G37*
D19*
X216225000Y-55750000D03*
X219775000Y-55750000D03*
D10*
X187220000Y-102212426D03*
D16*
X173725000Y-110162426D03*
D12*
X182000000Y-112362426D03*
D13*
X182000000Y-106412426D03*
D12*
X177000000Y-110162426D03*
D16*
X185275000Y-112362426D03*
D14*
X187500000Y-106412426D03*
X176500000Y-106412426D03*
D15*
X185275000Y-109912426D03*
D11*
G36*
X181204780Y-55684279D02*
G01*
X181343953Y-56674547D01*
X179957578Y-56869389D01*
X179818405Y-55879121D01*
X181204780Y-55684279D01*
G37*
G36*
X184720232Y-55190215D02*
G01*
X184859405Y-56180483D01*
X183473030Y-56375325D01*
X183333857Y-55385057D01*
X184720232Y-55190215D01*
G37*
D18*
X174000000Y-52000000D03*
D11*
G36*
X185379973Y-85392320D02*
G01*
X185519146Y-86382588D01*
X184132771Y-86577430D01*
X183993598Y-85587162D01*
X185379973Y-85392320D01*
G37*
G36*
X188895425Y-84898256D02*
G01*
X189034598Y-85888524D01*
X187648223Y-86083366D01*
X187509050Y-85093098D01*
X188895425Y-84898256D01*
G37*
D18*
X263000000Y-52000000D03*
D11*
G36*
X200233994Y-83304724D02*
G01*
X200373167Y-84294992D01*
X198986792Y-84489834D01*
X198847619Y-83499566D01*
X200233994Y-83304724D01*
G37*
G36*
X203749446Y-82810660D02*
G01*
X203888619Y-83800928D01*
X202502244Y-83995770D01*
X202363071Y-83005502D01*
X203749446Y-82810660D01*
G37*
D19*
X216225000Y-85750000D03*
X219775000Y-85750000D03*
D18*
X155000000Y-115000000D03*
X174000000Y-96500000D03*
D21*
X165800000Y-90600000D03*
X164300000Y-86400000D03*
X160300000Y-86400000D03*
X157300000Y-86400000D03*
D22*
X162500000Y-88500000D03*
X155500000Y-88500000D03*
D11*
G36*
X247584840Y-99575990D02*
G01*
X247309203Y-100537252D01*
X245963436Y-100151360D01*
X246239073Y-99190098D01*
X247584840Y-99575990D01*
G37*
G36*
X250997320Y-100554502D02*
G01*
X250721683Y-101515764D01*
X249375916Y-101129872D01*
X249651553Y-100168610D01*
X250997320Y-100554502D01*
G37*
G36*
X183292376Y-70538299D02*
G01*
X183431549Y-71528567D01*
X182045174Y-71723409D01*
X181906001Y-70733141D01*
X183292376Y-70538299D01*
G37*
G36*
X186807828Y-70044235D02*
G01*
X186947001Y-71034503D01*
X185560626Y-71229345D01*
X185421453Y-70239077D01*
X186807828Y-70044235D01*
G37*
D10*
X223220000Y-56300000D03*
D16*
X209725000Y-64250000D03*
D12*
X218000000Y-66450000D03*
D13*
X218000000Y-60500000D03*
D12*
X213000000Y-64250000D03*
D16*
X221275000Y-66450000D03*
D14*
X223500000Y-60500000D03*
X212500000Y-60500000D03*
D15*
X221275000Y-64000000D03*
M02*
