G04 #@! TF.GenerationSoftware,KiCad,Pcbnew,(5.1.9)-1*
G04 #@! TF.CreationDate,2021-03-06T17:20:58-05:00*
G04 #@! TF.ProjectId,ya36,79613336-2e6b-4696-9361-645f70636258,rev?*
G04 #@! TF.SameCoordinates,Original*
G04 #@! TF.FileFunction,Legend,Top*
G04 #@! TF.FilePolarity,Positive*
%FSLAX46Y46*%
G04 Gerber Fmt 4.6, Leading zero omitted, Abs format (unit mm)*
G04 Created by KiCad (PCBNEW (5.1.9)-1) date 2021-03-06 17:20:58*
%MOMM*%
%LPD*%
G01*
G04 APERTURE LIST*
%ADD10C,0.150000*%
%ADD11C,0.100000*%
%ADD12C,0.125000*%
G04 APERTURE END LIST*
D10*
X154100000Y-51450000D02*
X154100000Y-52450000D01*
X171900000Y-51450000D02*
X171900000Y-52450000D01*
X154100000Y-51450000D02*
X155100000Y-51450000D01*
X171900000Y-51450000D02*
X170950000Y-51450000D01*
X154100000Y-83450000D02*
X154100000Y-84500000D01*
X171900000Y-83500000D02*
X171900000Y-84500000D01*
X154100000Y-84500000D02*
X155100000Y-84500000D01*
X171900000Y-84500000D02*
X170890000Y-84500000D01*
X133100000Y-51450000D02*
X133100000Y-52450000D01*
X150900000Y-51450000D02*
X150900000Y-52450000D01*
X133100000Y-51450000D02*
X134100000Y-51450000D01*
X150900000Y-51450000D02*
X149950000Y-51450000D01*
X133100000Y-83450000D02*
X133100000Y-84500000D01*
X150900000Y-83500000D02*
X150900000Y-84500000D01*
X133100000Y-84500000D02*
X134100000Y-84500000D01*
X150900000Y-84500000D02*
X149890000Y-84500000D01*
X94000000Y-83500000D02*
X93000000Y-83500000D01*
X94000000Y-83500000D02*
X94000000Y-84500000D01*
X93000000Y-97500000D02*
X94000000Y-97500000D01*
X94000000Y-97500000D02*
X93000000Y-97500000D01*
X94000000Y-96500000D02*
X94000000Y-97500000D01*
X80000000Y-97500000D02*
X80000000Y-96500000D01*
X81000000Y-83500000D02*
X80000000Y-83500000D01*
X80000000Y-97500000D02*
X81000000Y-97500000D01*
X80000000Y-84500000D02*
X80000000Y-83500000D01*
X77371550Y-86447933D02*
X76381282Y-86587106D01*
X77371550Y-86447933D02*
X77510723Y-87438201D01*
X78329705Y-100450859D02*
X79319973Y-100311686D01*
X79319973Y-100311686D02*
X78329705Y-100450859D01*
X79180800Y-99321418D02*
X79319973Y-100311686D01*
X65456220Y-102260109D02*
X65317047Y-101269841D01*
X64498065Y-88257183D02*
X63507797Y-88396356D01*
X65456220Y-102260109D02*
X66446488Y-102120936D01*
X63646970Y-89386624D02*
X63507797Y-88396356D01*
X110876897Y-82396356D02*
X109886629Y-82257183D01*
X110876897Y-82396356D02*
X110737724Y-83386624D01*
X107938206Y-96120936D02*
X108928474Y-96260109D01*
X108928474Y-96260109D02*
X107938206Y-96120936D01*
X109067647Y-95269841D02*
X108928474Y-96260109D01*
X95064721Y-94311686D02*
X95203894Y-93321418D01*
X98003412Y-80587106D02*
X97013144Y-80447933D01*
X95064721Y-94311686D02*
X96054989Y-94450859D01*
X96873971Y-81438201D02*
X97013144Y-80447933D01*
X54359148Y-67422781D02*
X53397887Y-67698418D01*
X54359148Y-67422781D02*
X54634786Y-68384042D01*
X57256810Y-81156082D02*
X58218071Y-80880444D01*
X58218071Y-80880444D02*
X57256810Y-81156082D01*
X57942434Y-79919183D02*
X58218071Y-80880444D01*
X44760408Y-84739367D02*
X44484770Y-83778106D01*
X41862746Y-71006066D02*
X40901485Y-71281704D01*
X44760408Y-84739367D02*
X45721669Y-84463730D01*
X41177122Y-72242965D02*
X40901485Y-71281704D01*
X73196357Y-56739891D02*
X72206089Y-56879064D01*
X73196357Y-56739891D02*
X73335530Y-57730159D01*
X74154512Y-70742817D02*
X75144780Y-70603644D01*
X75144780Y-70603644D02*
X74154512Y-70742817D01*
X75005607Y-69613376D02*
X75144780Y-70603644D01*
X61281027Y-72552067D02*
X61141854Y-71561799D01*
X60322872Y-58549141D02*
X59332604Y-58688314D01*
X61281027Y-72552067D02*
X62271295Y-72412894D01*
X59471777Y-59678582D02*
X59332604Y-58688314D01*
X94000000Y-53500000D02*
X93000000Y-53500000D01*
X94000000Y-53500000D02*
X94000000Y-54500000D01*
X93000000Y-67500000D02*
X94000000Y-67500000D01*
X94000000Y-67500000D02*
X93000000Y-67500000D01*
X94000000Y-66500000D02*
X94000000Y-67500000D01*
X80000000Y-67500000D02*
X80000000Y-66500000D01*
X81000000Y-53500000D02*
X80000000Y-53500000D01*
X80000000Y-67500000D02*
X81000000Y-67500000D01*
X80000000Y-54500000D02*
X80000000Y-53500000D01*
X115052090Y-52688314D02*
X114061822Y-52549141D01*
X115052090Y-52688314D02*
X114912917Y-53678582D01*
X112113399Y-66412894D02*
X113103667Y-66552067D01*
X113103667Y-66552067D02*
X112113399Y-66412894D01*
X113242840Y-65561799D02*
X113103667Y-66552067D01*
X99239914Y-64603644D02*
X99379087Y-63613376D01*
X102178605Y-50879064D02*
X101188337Y-50739891D01*
X99239914Y-64603644D02*
X100230182Y-64742817D01*
X101049164Y-51730159D02*
X101188337Y-50739891D01*
X129906111Y-54775911D02*
X128915843Y-54636738D01*
X129906111Y-54775911D02*
X129766938Y-55766179D01*
X126967420Y-68500491D02*
X127957688Y-68639664D01*
X127957688Y-68639664D02*
X126967420Y-68500491D01*
X128096861Y-67649396D02*
X127957688Y-68639664D01*
X114093935Y-66691241D02*
X114233108Y-65700973D01*
X117032626Y-52966661D02*
X116042358Y-52827488D01*
X114093935Y-66691241D02*
X115084203Y-66830414D01*
X115903185Y-53817756D02*
X116042358Y-52827488D01*
X58493709Y-81841706D02*
X57532448Y-82117343D01*
X58493709Y-81841706D02*
X58769347Y-82802967D01*
X61391371Y-95575007D02*
X62352632Y-95299369D01*
X62352632Y-95299369D02*
X61391371Y-95575007D01*
X62076995Y-94338108D02*
X62352632Y-95299369D01*
X48894969Y-99158292D02*
X48619331Y-98197031D01*
X45997307Y-85424991D02*
X45036046Y-85700629D01*
X48894969Y-99158292D02*
X49856230Y-98882655D01*
X45311683Y-86661890D02*
X45036046Y-85700629D01*
X75283953Y-71593911D02*
X74293685Y-71733084D01*
X75283953Y-71593911D02*
X75423126Y-72584179D01*
X76242108Y-85596837D02*
X77232376Y-85457664D01*
X77232376Y-85457664D02*
X76242108Y-85596837D01*
X77093203Y-84467396D02*
X77232376Y-85457664D01*
X63368623Y-87406087D02*
X63229450Y-86415819D01*
X62410468Y-73403161D02*
X61420200Y-73542334D01*
X63368623Y-87406087D02*
X64358891Y-87266914D01*
X61559373Y-74532602D02*
X61420200Y-73542334D01*
X94000000Y-68500000D02*
X93000000Y-68500000D01*
X94000000Y-68500000D02*
X94000000Y-69500000D01*
X93000000Y-82500000D02*
X94000000Y-82500000D01*
X94000000Y-82500000D02*
X93000000Y-82500000D01*
X94000000Y-81500000D02*
X94000000Y-82500000D01*
X80000000Y-82500000D02*
X80000000Y-81500000D01*
X81000000Y-68500000D02*
X80000000Y-68500000D01*
X80000000Y-82500000D02*
X81000000Y-82500000D01*
X80000000Y-69500000D02*
X80000000Y-68500000D01*
X112964494Y-67542336D02*
X111974226Y-67403163D01*
X112964494Y-67542336D02*
X112825321Y-68532604D01*
X110025803Y-81266916D02*
X111016071Y-81406089D01*
X111016071Y-81406089D02*
X110025803Y-81266916D01*
X111155244Y-80415821D02*
X111016071Y-81406089D01*
X97152318Y-79457666D02*
X97291491Y-78467398D01*
X100091009Y-65733086D02*
X99100741Y-65593913D01*
X97152318Y-79457666D02*
X98142586Y-79596839D01*
X98961568Y-66584181D02*
X99100741Y-65593913D01*
X127818515Y-69629931D02*
X126828247Y-69490758D01*
X127818515Y-69629931D02*
X127679342Y-70620199D01*
X124879824Y-83354511D02*
X125870092Y-83493684D01*
X125870092Y-83493684D02*
X124879824Y-83354511D01*
X126009265Y-82503416D02*
X125870092Y-83493684D01*
X112006339Y-81545261D02*
X112145512Y-80554993D01*
X114945030Y-67820681D02*
X113954762Y-67681508D01*
X112006339Y-81545261D02*
X112996607Y-81684434D01*
X113815589Y-68671776D02*
X113954762Y-67681508D01*
X62628269Y-96260632D02*
X61667008Y-96536269D01*
X62628269Y-96260632D02*
X62903907Y-97221893D01*
X65525931Y-109993933D02*
X66487192Y-109718295D01*
X66487192Y-109718295D02*
X65525931Y-109993933D01*
X66211555Y-108757034D02*
X66487192Y-109718295D01*
X53029529Y-113577218D02*
X52753891Y-112615957D01*
X50131867Y-99843917D02*
X49170606Y-100119555D01*
X53029529Y-113577218D02*
X53990790Y-113301581D01*
X49446243Y-101080816D02*
X49170606Y-100119555D01*
X125730918Y-84483952D02*
X124740650Y-84344779D01*
X125730918Y-84483952D02*
X125591745Y-85474220D01*
X122792227Y-98208532D02*
X123782495Y-98347705D01*
X123782495Y-98347705D02*
X122792227Y-98208532D01*
X123921668Y-97357437D02*
X123782495Y-98347705D01*
X109918742Y-96399282D02*
X110057915Y-95409014D01*
X112857433Y-82674702D02*
X111867165Y-82535529D01*
X109918742Y-96399282D02*
X110909010Y-96538455D01*
X111727992Y-83525797D02*
X111867165Y-82535529D01*
X112489698Y-99719537D02*
X111504890Y-99893186D01*
X112489698Y-99719537D02*
X112663346Y-100704345D01*
X113935965Y-113680494D02*
X114920773Y-113506846D01*
X114920773Y-113506846D02*
X113935965Y-113680494D01*
X114747124Y-112522038D02*
X114920773Y-113506846D01*
X101133464Y-115937921D02*
X100959816Y-114953113D01*
X99687197Y-101976964D02*
X98702389Y-102150612D01*
X101133464Y-115937921D02*
X102118272Y-115764272D01*
X98876038Y-103135420D02*
X98702389Y-102150612D01*
X130000000Y-99412426D02*
X129000000Y-99412426D01*
X130000000Y-99412426D02*
X130000000Y-100412426D01*
X129000000Y-113412426D02*
X130000000Y-113412426D01*
X130000000Y-113412426D02*
X129000000Y-113412426D01*
X130000000Y-112412426D02*
X130000000Y-113412426D01*
X116000000Y-113412426D02*
X116000000Y-112412426D01*
X117000000Y-99412426D02*
X116000000Y-99412426D01*
X116000000Y-113412426D02*
X117000000Y-113412426D01*
X116000000Y-100412426D02*
X116000000Y-99412426D01*
X147297612Y-102150612D02*
X146312804Y-101976964D01*
X147297612Y-102150612D02*
X147123963Y-103135420D01*
X143881729Y-115764272D02*
X144866537Y-115937921D01*
X144866537Y-115937921D02*
X143881729Y-115764272D01*
X145040185Y-114953113D02*
X144866537Y-115937921D01*
X131079228Y-113506846D02*
X131252877Y-112522038D01*
X134495111Y-99893186D02*
X133510303Y-99719537D01*
X131079228Y-113506846D02*
X132064036Y-113680494D01*
X133336655Y-100704345D02*
X133510303Y-99719537D01*
X264098515Y-71281704D02*
X263137254Y-71006066D01*
X264098515Y-71281704D02*
X263822878Y-72242965D01*
X259278331Y-84463730D02*
X260239592Y-84739367D01*
X260239592Y-84739367D02*
X259278331Y-84463730D01*
X260515230Y-83778106D02*
X260239592Y-84739367D01*
X246781929Y-80880444D02*
X247057566Y-79919183D01*
X251602113Y-67698418D02*
X250640852Y-67422781D01*
X246781929Y-80880444D02*
X247743190Y-81156082D01*
X250365214Y-68384042D02*
X250640852Y-67422781D01*
X245667396Y-58688314D02*
X244677128Y-58549141D01*
X245667396Y-58688314D02*
X245528223Y-59678582D01*
X242728705Y-72412894D02*
X243718973Y-72552067D01*
X243718973Y-72552067D02*
X242728705Y-72412894D01*
X243858146Y-71561799D02*
X243718973Y-72552067D01*
X229855220Y-70603644D02*
X229994393Y-69613376D01*
X232793911Y-56879064D02*
X231803643Y-56739891D01*
X229855220Y-70603644D02*
X230845488Y-70742817D01*
X231664470Y-57730159D02*
X231803643Y-56739891D01*
X225000000Y-53500000D02*
X224000000Y-53500000D01*
X225000000Y-53500000D02*
X225000000Y-54500000D01*
X224000000Y-67500000D02*
X225000000Y-67500000D01*
X225000000Y-67500000D02*
X224000000Y-67500000D01*
X225000000Y-66500000D02*
X225000000Y-67500000D01*
X211000000Y-67500000D02*
X211000000Y-66500000D01*
X212000000Y-53500000D02*
X211000000Y-53500000D01*
X211000000Y-67500000D02*
X212000000Y-67500000D01*
X211000000Y-54500000D02*
X211000000Y-53500000D01*
X203811664Y-50739891D02*
X202821396Y-50879064D01*
X203811664Y-50739891D02*
X203950837Y-51730159D01*
X204769819Y-64742817D02*
X205760087Y-64603644D01*
X205760087Y-64603644D02*
X204769819Y-64742817D01*
X205620914Y-63613376D02*
X205760087Y-64603644D01*
X191896334Y-66552067D02*
X191757161Y-65561799D01*
X190938179Y-52549141D02*
X189947911Y-52688314D01*
X191896334Y-66552067D02*
X192886602Y-66412894D01*
X190087084Y-53678582D02*
X189947911Y-52688314D01*
X188957643Y-52827488D02*
X187967375Y-52966661D01*
X188957643Y-52827488D02*
X189096816Y-53817756D01*
X189915798Y-66830414D02*
X190906066Y-66691241D01*
X190906066Y-66691241D02*
X189915798Y-66830414D01*
X190766893Y-65700973D02*
X190906066Y-66691241D01*
X177042313Y-68639664D02*
X176903140Y-67649396D01*
X176084158Y-54636738D02*
X175093890Y-54775911D01*
X177042313Y-68639664D02*
X178032581Y-68500491D01*
X175233063Y-55766179D02*
X175093890Y-54775911D01*
X259963954Y-85700629D02*
X259002693Y-85424991D01*
X259963954Y-85700629D02*
X259688317Y-86661890D01*
X255143770Y-98882655D02*
X256105031Y-99158292D01*
X256105031Y-99158292D02*
X255143770Y-98882655D01*
X256380669Y-98197031D02*
X256105031Y-99158292D01*
X242647368Y-95299369D02*
X242923005Y-94338108D01*
X247467552Y-82117343D02*
X246506291Y-81841706D01*
X242647368Y-95299369D02*
X243608629Y-95575007D01*
X246230653Y-82802967D02*
X246506291Y-81841706D01*
X243579800Y-73542334D02*
X242589532Y-73403161D01*
X243579800Y-73542334D02*
X243440627Y-74532602D01*
X240641109Y-87266914D02*
X241631377Y-87406087D01*
X241631377Y-87406087D02*
X240641109Y-87266914D01*
X241770550Y-86415819D02*
X241631377Y-87406087D01*
X227767624Y-85457664D02*
X227906797Y-84467396D01*
X230706315Y-71733084D02*
X229716047Y-71593911D01*
X227767624Y-85457664D02*
X228757892Y-85596837D01*
X229576874Y-72584179D02*
X229716047Y-71593911D01*
X225000000Y-68500000D02*
X224000000Y-68500000D01*
X225000000Y-68500000D02*
X225000000Y-69500000D01*
X224000000Y-82500000D02*
X225000000Y-82500000D01*
X225000000Y-82500000D02*
X224000000Y-82500000D01*
X225000000Y-81500000D02*
X225000000Y-82500000D01*
X211000000Y-82500000D02*
X211000000Y-81500000D01*
X212000000Y-68500000D02*
X211000000Y-68500000D01*
X211000000Y-82500000D02*
X212000000Y-82500000D01*
X211000000Y-69500000D02*
X211000000Y-68500000D01*
X205899260Y-65593913D02*
X204908992Y-65733086D01*
X205899260Y-65593913D02*
X206038433Y-66584181D01*
X206857415Y-79596839D02*
X207847683Y-79457666D01*
X207847683Y-79457666D02*
X206857415Y-79596839D01*
X207708510Y-78467398D02*
X207847683Y-79457666D01*
X193983930Y-81406089D02*
X193844757Y-80415821D01*
X193025775Y-67403163D02*
X192035507Y-67542336D01*
X193983930Y-81406089D02*
X194974198Y-81266916D01*
X192174680Y-68532604D02*
X192035507Y-67542336D01*
X191045239Y-67681508D02*
X190054971Y-67820681D01*
X191045239Y-67681508D02*
X191184412Y-68671776D01*
X192003394Y-81684434D02*
X192993662Y-81545261D01*
X192993662Y-81545261D02*
X192003394Y-81684434D01*
X192854489Y-80554993D02*
X192993662Y-81545261D01*
X179129909Y-83493684D02*
X178990736Y-82503416D01*
X178171754Y-69490758D02*
X177181486Y-69629931D01*
X179129909Y-83493684D02*
X180120177Y-83354511D01*
X177320659Y-70620199D02*
X177181486Y-69629931D01*
X255829394Y-100119555D02*
X254868133Y-99843917D01*
X255829394Y-100119555D02*
X255553757Y-101080816D01*
X251009210Y-113301581D02*
X251970471Y-113577218D01*
X251970471Y-113577218D02*
X251009210Y-113301581D01*
X252246109Y-112615957D02*
X251970471Y-113577218D01*
X238512808Y-109718295D02*
X238788445Y-108757034D01*
X243332992Y-96536269D02*
X242371731Y-96260632D01*
X238512808Y-109718295D02*
X239474069Y-109993933D01*
X242096093Y-97221893D02*
X242371731Y-96260632D01*
X241492203Y-88396356D02*
X240501935Y-88257183D01*
X241492203Y-88396356D02*
X241353030Y-89386624D01*
X238553512Y-102120936D02*
X239543780Y-102260109D01*
X239543780Y-102260109D02*
X238553512Y-102120936D01*
X239682953Y-101269841D02*
X239543780Y-102260109D01*
X225680027Y-100311686D02*
X225819200Y-99321418D01*
X228618718Y-86587106D02*
X227628450Y-86447933D01*
X225680027Y-100311686D02*
X226670295Y-100450859D01*
X227489277Y-87438201D02*
X227628450Y-86447933D01*
X225000000Y-83500000D02*
X224000000Y-83500000D01*
X225000000Y-83500000D02*
X225000000Y-84500000D01*
X224000000Y-97500000D02*
X225000000Y-97500000D01*
X225000000Y-97500000D02*
X224000000Y-97500000D01*
X225000000Y-96500000D02*
X225000000Y-97500000D01*
X211000000Y-97500000D02*
X211000000Y-96500000D01*
X212000000Y-83500000D02*
X211000000Y-83500000D01*
X211000000Y-97500000D02*
X212000000Y-97500000D01*
X211000000Y-84500000D02*
X211000000Y-83500000D01*
X207986857Y-80447933D02*
X206996589Y-80587106D01*
X207986857Y-80447933D02*
X208126030Y-81438201D01*
X208945012Y-94450859D02*
X209935280Y-94311686D01*
X209935280Y-94311686D02*
X208945012Y-94450859D01*
X209796107Y-93321418D02*
X209935280Y-94311686D01*
X196071527Y-96260109D02*
X195932354Y-95269841D01*
X195113372Y-82257183D02*
X194123104Y-82396356D01*
X196071527Y-96260109D02*
X197061795Y-96120936D01*
X194262277Y-83386624D02*
X194123104Y-82396356D01*
X193132836Y-82535529D02*
X192142568Y-82674702D01*
X193132836Y-82535529D02*
X193272009Y-83525797D01*
X194090991Y-96538455D02*
X195081259Y-96399282D01*
X195081259Y-96399282D02*
X194090991Y-96538455D01*
X194942086Y-95409014D02*
X195081259Y-96399282D01*
X181217506Y-98347705D02*
X181078333Y-97357437D01*
X180259351Y-84344779D02*
X179269083Y-84483952D01*
X181217506Y-98347705D02*
X182207774Y-98208532D01*
X179408256Y-85474220D02*
X179269083Y-84483952D01*
X206297612Y-102150612D02*
X205312804Y-101976964D01*
X206297612Y-102150612D02*
X206123963Y-103135420D01*
X202881729Y-115764272D02*
X203866537Y-115937921D01*
X203866537Y-115937921D02*
X202881729Y-115764272D01*
X204040185Y-114953113D02*
X203866537Y-115937921D01*
X190079228Y-113506846D02*
X190252877Y-112522038D01*
X193495111Y-99893186D02*
X192510303Y-99719537D01*
X190079228Y-113506846D02*
X191064036Y-113680494D01*
X192336655Y-100704345D02*
X192510303Y-99719537D01*
X189000000Y-99412426D02*
X188000000Y-99412426D01*
X189000000Y-99412426D02*
X189000000Y-100412426D01*
X188000000Y-113412426D02*
X189000000Y-113412426D01*
X189000000Y-113412426D02*
X188000000Y-113412426D01*
X189000000Y-112412426D02*
X189000000Y-113412426D01*
X175000000Y-113412426D02*
X175000000Y-112412426D01*
X176000000Y-99412426D02*
X175000000Y-99412426D01*
X175000000Y-113412426D02*
X176000000Y-113412426D01*
X175000000Y-100412426D02*
X175000000Y-99412426D01*
X171489698Y-99719537D02*
X170504890Y-99893186D01*
X171489698Y-99719537D02*
X171663346Y-100704345D01*
X172935965Y-113680494D02*
X173920773Y-113506846D01*
X173920773Y-113506846D02*
X172935965Y-113680494D01*
X173747124Y-112522038D02*
X173920773Y-113506846D01*
X160133464Y-115937921D02*
X159959816Y-114953113D01*
X158687197Y-101976964D02*
X157702389Y-102150612D01*
X160133464Y-115937921D02*
X161118272Y-115764272D01*
X157876038Y-103135420D02*
X157702389Y-102150612D01*
D11*
X156800000Y-93250000D02*
G75*
G03*
X156800000Y-93250000I-950000J0D01*
G01*
X156800000Y-99750000D02*
G75*
G03*
X156800000Y-99750000I-950000J0D01*
G01*
X150100000Y-99750000D02*
G75*
G03*
X150100000Y-99750000I-950000J0D01*
G01*
X150100000Y-93250000D02*
G75*
G03*
X150100000Y-93250000I-950000J0D01*
G01*
X156103400Y-55272000D02*
G75*
G03*
X156103400Y-55272000I-712000J0D01*
G01*
X156103400Y-57812000D02*
G75*
G03*
X156103400Y-57812000I-712000J0D01*
G01*
X156103400Y-60352000D02*
G75*
G03*
X156103400Y-60352000I-712000J0D01*
G01*
X156103400Y-62892000D02*
G75*
G03*
X156103400Y-62892000I-712000J0D01*
G01*
X156103400Y-65432000D02*
G75*
G03*
X156103400Y-65432000I-712000J0D01*
G01*
X156103400Y-67972000D02*
G75*
G03*
X156103400Y-67972000I-712000J0D01*
G01*
X156103400Y-70512000D02*
G75*
G03*
X156103400Y-70512000I-712000J0D01*
G01*
X156103400Y-73052000D02*
G75*
G03*
X156103400Y-73052000I-712000J0D01*
G01*
X156103400Y-75592000D02*
G75*
G03*
X156103400Y-75592000I-712000J0D01*
G01*
X156103400Y-78132000D02*
G75*
G03*
X156103400Y-78132000I-712000J0D01*
G01*
X156103400Y-80672000D02*
G75*
G03*
X156103400Y-80672000I-712000J0D01*
G01*
X156103400Y-83212000D02*
G75*
G03*
X156103400Y-83212000I-712000J0D01*
G01*
X171323400Y-83212000D02*
G75*
G03*
X171323400Y-83212000I-712000J0D01*
G01*
X171323400Y-80672000D02*
G75*
G03*
X171323400Y-80672000I-712000J0D01*
G01*
X171323400Y-78132000D02*
G75*
G03*
X171323400Y-78132000I-712000J0D01*
G01*
X171323400Y-75592000D02*
G75*
G03*
X171323400Y-75592000I-712000J0D01*
G01*
X171323400Y-73052000D02*
G75*
G03*
X171323400Y-73052000I-712000J0D01*
G01*
X171323400Y-70512000D02*
G75*
G03*
X171323400Y-70512000I-712000J0D01*
G01*
X171323400Y-67972000D02*
G75*
G03*
X171323400Y-67972000I-712000J0D01*
G01*
X171323400Y-65432000D02*
G75*
G03*
X171323400Y-65432000I-712000J0D01*
G01*
X171323400Y-62892000D02*
G75*
G03*
X171323400Y-62892000I-712000J0D01*
G01*
X171323400Y-60352000D02*
G75*
G03*
X171323400Y-60352000I-712000J0D01*
G01*
X171323400Y-57812000D02*
G75*
G03*
X171323400Y-57812000I-712000J0D01*
G01*
X171323400Y-55272000D02*
G75*
G03*
X171323400Y-55272000I-712000J0D01*
G01*
X135103400Y-55272000D02*
G75*
G03*
X135103400Y-55272000I-712000J0D01*
G01*
X135103400Y-57812000D02*
G75*
G03*
X135103400Y-57812000I-712000J0D01*
G01*
X135103400Y-60352000D02*
G75*
G03*
X135103400Y-60352000I-712000J0D01*
G01*
X135103400Y-62892000D02*
G75*
G03*
X135103400Y-62892000I-712000J0D01*
G01*
X135103400Y-65432000D02*
G75*
G03*
X135103400Y-65432000I-712000J0D01*
G01*
X135103400Y-67972000D02*
G75*
G03*
X135103400Y-67972000I-712000J0D01*
G01*
X135103400Y-70512000D02*
G75*
G03*
X135103400Y-70512000I-712000J0D01*
G01*
X135103400Y-73052000D02*
G75*
G03*
X135103400Y-73052000I-712000J0D01*
G01*
X135103400Y-75592000D02*
G75*
G03*
X135103400Y-75592000I-712000J0D01*
G01*
X135103400Y-78132000D02*
G75*
G03*
X135103400Y-78132000I-712000J0D01*
G01*
X135103400Y-80672000D02*
G75*
G03*
X135103400Y-80672000I-712000J0D01*
G01*
X135103400Y-83212000D02*
G75*
G03*
X135103400Y-83212000I-712000J0D01*
G01*
X150323400Y-83212000D02*
G75*
G03*
X150323400Y-83212000I-712000J0D01*
G01*
X150323400Y-80672000D02*
G75*
G03*
X150323400Y-80672000I-712000J0D01*
G01*
X150323400Y-78132000D02*
G75*
G03*
X150323400Y-78132000I-712000J0D01*
G01*
X150323400Y-75592000D02*
G75*
G03*
X150323400Y-75592000I-712000J0D01*
G01*
X150323400Y-73052000D02*
G75*
G03*
X150323400Y-73052000I-712000J0D01*
G01*
X150323400Y-70512000D02*
G75*
G03*
X150323400Y-70512000I-712000J0D01*
G01*
X150323400Y-67972000D02*
G75*
G03*
X150323400Y-67972000I-712000J0D01*
G01*
X150323400Y-65432000D02*
G75*
G03*
X150323400Y-65432000I-712000J0D01*
G01*
X150323400Y-62892000D02*
G75*
G03*
X150323400Y-62892000I-712000J0D01*
G01*
X150323400Y-60352000D02*
G75*
G03*
X150323400Y-60352000I-712000J0D01*
G01*
X150323400Y-57812000D02*
G75*
G03*
X150323400Y-57812000I-712000J0D01*
G01*
X150323400Y-55272000D02*
G75*
G03*
X150323400Y-55272000I-712000J0D01*
G01*
D10*
D12*
X157037380Y-55557535D02*
X156814047Y-55200392D01*
X156654523Y-55557535D02*
X156654523Y-54807535D01*
X156909761Y-54807535D01*
X156973571Y-54843250D01*
X157005476Y-54878964D01*
X157037380Y-54950392D01*
X157037380Y-55057535D01*
X157005476Y-55128964D01*
X156973571Y-55164678D01*
X156909761Y-55200392D01*
X156654523Y-55200392D01*
X157292619Y-55343250D02*
X157611666Y-55343250D01*
X157228809Y-55557535D02*
X157452142Y-54807535D01*
X157675476Y-55557535D01*
X157835000Y-54807535D02*
X157994523Y-55557535D01*
X158122142Y-55021821D01*
X158249761Y-55557535D01*
X158409285Y-54807535D01*
X157005475Y-57383250D02*
X156941666Y-57347535D01*
X156845952Y-57347535D01*
X156750237Y-57383250D01*
X156686428Y-57454678D01*
X156654523Y-57526107D01*
X156622618Y-57668964D01*
X156622618Y-57776107D01*
X156654523Y-57918964D01*
X156686428Y-57990392D01*
X156750237Y-58061821D01*
X156845952Y-58097535D01*
X156909761Y-58097535D01*
X157005475Y-58061821D01*
X157037380Y-58026107D01*
X157037380Y-57776107D01*
X156909761Y-57776107D01*
X157324523Y-58097535D02*
X157324523Y-57347535D01*
X157707380Y-58097535D01*
X157707380Y-57347535D01*
X158026428Y-58097535D02*
X158026428Y-57347535D01*
X158185952Y-57347535D01*
X158281666Y-57383250D01*
X158345475Y-57454678D01*
X158377380Y-57526107D01*
X158409285Y-57668964D01*
X158409285Y-57776107D01*
X158377380Y-57918964D01*
X158345475Y-57990392D01*
X158281666Y-58061821D01*
X158185952Y-58097535D01*
X158026428Y-58097535D01*
X157037380Y-60637535D02*
X156814046Y-60280392D01*
X156654523Y-60637535D02*
X156654523Y-59887535D01*
X156909761Y-59887535D01*
X156973570Y-59923250D01*
X157005475Y-59958964D01*
X157037380Y-60030392D01*
X157037380Y-60137535D01*
X157005475Y-60208964D01*
X156973570Y-60244678D01*
X156909761Y-60280392D01*
X156654523Y-60280392D01*
X157292618Y-60601821D02*
X157388332Y-60637535D01*
X157547856Y-60637535D01*
X157611665Y-60601821D01*
X157643570Y-60566107D01*
X157675475Y-60494678D01*
X157675475Y-60423250D01*
X157643570Y-60351821D01*
X157611665Y-60316107D01*
X157547856Y-60280392D01*
X157420237Y-60244678D01*
X157356427Y-60208964D01*
X157324523Y-60173250D01*
X157292618Y-60101821D01*
X157292618Y-60030392D01*
X157324523Y-59958964D01*
X157356427Y-59923250D01*
X157420237Y-59887535D01*
X157579761Y-59887535D01*
X157675475Y-59923250D01*
X157866904Y-59887535D02*
X158249761Y-59887535D01*
X158058332Y-60637535D02*
X158058332Y-59887535D01*
X156558809Y-62427535D02*
X156782143Y-63177535D01*
X157005476Y-62427535D01*
X157611666Y-63106107D02*
X157579762Y-63141821D01*
X157484047Y-63177535D01*
X157420238Y-63177535D01*
X157324523Y-63141821D01*
X157260714Y-63070392D01*
X157228809Y-62998964D01*
X157196904Y-62856107D01*
X157196904Y-62748964D01*
X157228809Y-62606107D01*
X157260714Y-62534678D01*
X157324523Y-62463250D01*
X157420238Y-62427535D01*
X157484047Y-62427535D01*
X157579762Y-62463250D01*
X157611666Y-62498964D01*
X158281666Y-63106107D02*
X158249762Y-63141821D01*
X158154047Y-63177535D01*
X158090238Y-63177535D01*
X157994523Y-63141821D01*
X157930714Y-63070392D01*
X157898809Y-62998964D01*
X157866904Y-62856107D01*
X157866904Y-62748964D01*
X157898809Y-62606107D01*
X157930714Y-62534678D01*
X157994523Y-62463250D01*
X158090238Y-62427535D01*
X158154047Y-62427535D01*
X158249762Y-62463250D01*
X158281666Y-62498964D01*
X156622618Y-65503250D02*
X156941666Y-65503250D01*
X156558809Y-65717535D02*
X156782142Y-64967535D01*
X157005475Y-65717535D01*
X157164999Y-64967535D02*
X157579761Y-64967535D01*
X157356428Y-65253250D01*
X157452142Y-65253250D01*
X157515952Y-65288964D01*
X157547856Y-65324678D01*
X157579761Y-65396107D01*
X157579761Y-65574678D01*
X157547856Y-65646107D01*
X157515952Y-65681821D01*
X157452142Y-65717535D01*
X157260713Y-65717535D01*
X157196904Y-65681821D01*
X157164999Y-65646107D01*
X158345475Y-64931821D02*
X157771190Y-65896107D01*
X158792142Y-65324678D02*
X158568809Y-65324678D01*
X158568809Y-65717535D02*
X158568809Y-64967535D01*
X158887856Y-64967535D01*
X159430237Y-65217535D02*
X159430237Y-65717535D01*
X159270713Y-64931821D02*
X159111190Y-65467535D01*
X159525952Y-65467535D01*
X156622618Y-68043250D02*
X156941666Y-68043250D01*
X156558809Y-68257535D02*
X156782142Y-67507535D01*
X157005475Y-68257535D01*
X157196904Y-67578964D02*
X157228809Y-67543250D01*
X157292618Y-67507535D01*
X157452142Y-67507535D01*
X157515952Y-67543250D01*
X157547856Y-67578964D01*
X157579761Y-67650392D01*
X157579761Y-67721821D01*
X157547856Y-67828964D01*
X157164999Y-68257535D01*
X157579761Y-68257535D01*
X158345475Y-67471821D02*
X157771190Y-68436107D01*
X158792142Y-67864678D02*
X158568809Y-67864678D01*
X158568809Y-68257535D02*
X158568809Y-67507535D01*
X158887856Y-67507535D01*
X159462142Y-67507535D02*
X159143094Y-67507535D01*
X159111190Y-67864678D01*
X159143094Y-67828964D01*
X159206904Y-67793250D01*
X159366428Y-67793250D01*
X159430237Y-67828964D01*
X159462142Y-67864678D01*
X159494047Y-67936107D01*
X159494047Y-68114678D01*
X159462142Y-68186107D01*
X159430237Y-68221821D01*
X159366428Y-68257535D01*
X159206904Y-68257535D01*
X159143094Y-68221821D01*
X159111190Y-68186107D01*
X156622618Y-70583250D02*
X156941666Y-70583250D01*
X156558809Y-70797535D02*
X156782142Y-70047535D01*
X157005475Y-70797535D01*
X157579761Y-70797535D02*
X157196904Y-70797535D01*
X157388333Y-70797535D02*
X157388333Y-70047535D01*
X157324523Y-70154678D01*
X157260713Y-70226107D01*
X157196904Y-70261821D01*
X158345475Y-70011821D02*
X157771190Y-70976107D01*
X158792142Y-70404678D02*
X158568809Y-70404678D01*
X158568809Y-70797535D02*
X158568809Y-70047535D01*
X158887856Y-70047535D01*
X159430237Y-70047535D02*
X159302618Y-70047535D01*
X159238809Y-70083250D01*
X159206904Y-70118964D01*
X159143094Y-70226107D01*
X159111190Y-70368964D01*
X159111190Y-70654678D01*
X159143094Y-70726107D01*
X159174999Y-70761821D01*
X159238809Y-70797535D01*
X159366428Y-70797535D01*
X159430237Y-70761821D01*
X159462142Y-70726107D01*
X159494047Y-70654678D01*
X159494047Y-70476107D01*
X159462142Y-70404678D01*
X159430237Y-70368964D01*
X159366428Y-70333250D01*
X159238809Y-70333250D01*
X159174999Y-70368964D01*
X159143094Y-70404678D01*
X159111190Y-70476107D01*
X156622618Y-73123250D02*
X156941666Y-73123250D01*
X156558809Y-73337535D02*
X156782142Y-72587535D01*
X157005475Y-73337535D01*
X157356428Y-72587535D02*
X157420237Y-72587535D01*
X157484047Y-72623250D01*
X157515952Y-72658964D01*
X157547856Y-72730392D01*
X157579761Y-72873250D01*
X157579761Y-73051821D01*
X157547856Y-73194678D01*
X157515952Y-73266107D01*
X157484047Y-73301821D01*
X157420237Y-73337535D01*
X157356428Y-73337535D01*
X157292618Y-73301821D01*
X157260713Y-73266107D01*
X157228809Y-73194678D01*
X157196904Y-73051821D01*
X157196904Y-72873250D01*
X157228809Y-72730392D01*
X157260713Y-72658964D01*
X157292618Y-72623250D01*
X157356428Y-72587535D01*
X158345475Y-72551821D02*
X157771190Y-73516107D01*
X158792142Y-72944678D02*
X158568809Y-72944678D01*
X158568809Y-73337535D02*
X158568809Y-72587535D01*
X158887856Y-72587535D01*
X159079285Y-72587535D02*
X159525952Y-72587535D01*
X159238809Y-73337535D01*
X157005475Y-75877535D02*
X156622618Y-75877535D01*
X156814047Y-75877535D02*
X156814047Y-75127535D01*
X156750237Y-75234678D01*
X156686428Y-75306107D01*
X156622618Y-75341821D01*
X157611666Y-75127535D02*
X157292618Y-75127535D01*
X157260714Y-75484678D01*
X157292618Y-75448964D01*
X157356428Y-75413250D01*
X157515952Y-75413250D01*
X157579761Y-75448964D01*
X157611666Y-75484678D01*
X157643571Y-75556107D01*
X157643571Y-75734678D01*
X157611666Y-75806107D01*
X157579761Y-75841821D01*
X157515952Y-75877535D01*
X157356428Y-75877535D01*
X157292618Y-75841821D01*
X157260714Y-75806107D01*
X158409285Y-75091821D02*
X157834999Y-76056107D01*
X158855952Y-75484678D02*
X158951666Y-75520392D01*
X158983571Y-75556107D01*
X159015475Y-75627535D01*
X159015475Y-75734678D01*
X158983571Y-75806107D01*
X158951666Y-75841821D01*
X158887856Y-75877535D01*
X158632618Y-75877535D01*
X158632618Y-75127535D01*
X158855952Y-75127535D01*
X158919761Y-75163250D01*
X158951666Y-75198964D01*
X158983571Y-75270392D01*
X158983571Y-75341821D01*
X158951666Y-75413250D01*
X158919761Y-75448964D01*
X158855952Y-75484678D01*
X158632618Y-75484678D01*
X159653571Y-75877535D02*
X159270714Y-75877535D01*
X159462142Y-75877535D02*
X159462142Y-75127535D01*
X159398333Y-75234678D01*
X159334523Y-75306107D01*
X159270714Y-75341821D01*
X157005475Y-78417535D02*
X156622618Y-78417535D01*
X156814047Y-78417535D02*
X156814047Y-77667535D01*
X156750237Y-77774678D01*
X156686428Y-77846107D01*
X156622618Y-77881821D01*
X157579761Y-77917535D02*
X157579761Y-78417535D01*
X157420237Y-77631821D02*
X157260714Y-78167535D01*
X157675475Y-78167535D01*
X158409285Y-77631821D02*
X157834999Y-78596107D01*
X158855952Y-78024678D02*
X158951666Y-78060392D01*
X158983571Y-78096107D01*
X159015475Y-78167535D01*
X159015475Y-78274678D01*
X158983571Y-78346107D01*
X158951666Y-78381821D01*
X158887856Y-78417535D01*
X158632618Y-78417535D01*
X158632618Y-77667535D01*
X158855952Y-77667535D01*
X158919761Y-77703250D01*
X158951666Y-77738964D01*
X158983571Y-77810392D01*
X158983571Y-77881821D01*
X158951666Y-77953250D01*
X158919761Y-77988964D01*
X158855952Y-78024678D01*
X158632618Y-78024678D01*
X159238809Y-77667535D02*
X159653571Y-77667535D01*
X159430237Y-77953250D01*
X159525952Y-77953250D01*
X159589761Y-77988964D01*
X159621666Y-78024678D01*
X159653571Y-78096107D01*
X159653571Y-78274678D01*
X159621666Y-78346107D01*
X159589761Y-78381821D01*
X159525952Y-78417535D01*
X159334523Y-78417535D01*
X159270714Y-78381821D01*
X159238809Y-78346107D01*
X157005475Y-83497535D02*
X156622618Y-83497535D01*
X156814047Y-83497535D02*
X156814047Y-82747535D01*
X156750237Y-82854678D01*
X156686428Y-82926107D01*
X156622618Y-82961821D01*
X157420237Y-82747535D02*
X157484047Y-82747535D01*
X157547856Y-82783250D01*
X157579761Y-82818964D01*
X157611666Y-82890392D01*
X157643571Y-83033250D01*
X157643571Y-83211821D01*
X157611666Y-83354678D01*
X157579761Y-83426107D01*
X157547856Y-83461821D01*
X157484047Y-83497535D01*
X157420237Y-83497535D01*
X157356428Y-83461821D01*
X157324523Y-83426107D01*
X157292618Y-83354678D01*
X157260714Y-83211821D01*
X157260714Y-83033250D01*
X157292618Y-82890392D01*
X157324523Y-82818964D01*
X157356428Y-82783250D01*
X157420237Y-82747535D01*
X158409285Y-82711821D02*
X157834999Y-83676107D01*
X158855952Y-83104678D02*
X158951666Y-83140392D01*
X158983571Y-83176107D01*
X159015475Y-83247535D01*
X159015475Y-83354678D01*
X158983571Y-83426107D01*
X158951666Y-83461821D01*
X158887856Y-83497535D01*
X158632618Y-83497535D01*
X158632618Y-82747535D01*
X158855952Y-82747535D01*
X158919761Y-82783250D01*
X158951666Y-82818964D01*
X158983571Y-82890392D01*
X158983571Y-82961821D01*
X158951666Y-83033250D01*
X158919761Y-83068964D01*
X158855952Y-83104678D01*
X158632618Y-83104678D01*
X159589761Y-82747535D02*
X159462142Y-82747535D01*
X159398333Y-82783250D01*
X159366428Y-82818964D01*
X159302618Y-82926107D01*
X159270714Y-83068964D01*
X159270714Y-83354678D01*
X159302618Y-83426107D01*
X159334523Y-83461821D01*
X159398333Y-83497535D01*
X159525952Y-83497535D01*
X159589761Y-83461821D01*
X159621666Y-83426107D01*
X159653571Y-83354678D01*
X159653571Y-83176107D01*
X159621666Y-83104678D01*
X159589761Y-83068964D01*
X159525952Y-83033250D01*
X159398333Y-83033250D01*
X159334523Y-83068964D01*
X159302618Y-83104678D01*
X159270714Y-83176107D01*
X157005475Y-80957535D02*
X156622618Y-80957535D01*
X156814047Y-80957535D02*
X156814047Y-80207535D01*
X156750237Y-80314678D01*
X156686428Y-80386107D01*
X156622618Y-80421821D01*
X157579761Y-80207535D02*
X157452142Y-80207535D01*
X157388333Y-80243250D01*
X157356428Y-80278964D01*
X157292618Y-80386107D01*
X157260714Y-80528964D01*
X157260714Y-80814678D01*
X157292618Y-80886107D01*
X157324523Y-80921821D01*
X157388333Y-80957535D01*
X157515952Y-80957535D01*
X157579761Y-80921821D01*
X157611666Y-80886107D01*
X157643571Y-80814678D01*
X157643571Y-80636107D01*
X157611666Y-80564678D01*
X157579761Y-80528964D01*
X157515952Y-80493250D01*
X157388333Y-80493250D01*
X157324523Y-80528964D01*
X157292618Y-80564678D01*
X157260714Y-80636107D01*
X158409285Y-80171821D02*
X157834999Y-81136107D01*
X158855952Y-80564678D02*
X158951666Y-80600392D01*
X158983571Y-80636107D01*
X159015475Y-80707535D01*
X159015475Y-80814678D01*
X158983571Y-80886107D01*
X158951666Y-80921821D01*
X158887856Y-80957535D01*
X158632618Y-80957535D01*
X158632618Y-80207535D01*
X158855952Y-80207535D01*
X158919761Y-80243250D01*
X158951666Y-80278964D01*
X158983571Y-80350392D01*
X158983571Y-80421821D01*
X158951666Y-80493250D01*
X158919761Y-80528964D01*
X158855952Y-80564678D01*
X158632618Y-80564678D01*
X159270714Y-80278964D02*
X159302618Y-80243250D01*
X159366428Y-80207535D01*
X159525952Y-80207535D01*
X159589761Y-80243250D01*
X159621666Y-80278964D01*
X159653571Y-80350392D01*
X159653571Y-80421821D01*
X159621666Y-80528964D01*
X159238809Y-80957535D01*
X159653571Y-80957535D01*
X167096190Y-78024678D02*
X167319524Y-78024678D01*
X167415238Y-78417535D02*
X167096190Y-78417535D01*
X167096190Y-77667535D01*
X167415238Y-77667535D01*
X167989524Y-77667535D02*
X167861905Y-77667535D01*
X167798095Y-77703250D01*
X167766190Y-77738964D01*
X167702381Y-77846107D01*
X167670476Y-77988964D01*
X167670476Y-78274678D01*
X167702381Y-78346107D01*
X167734286Y-78381821D01*
X167798095Y-78417535D01*
X167925714Y-78417535D01*
X167989524Y-78381821D01*
X168021429Y-78346107D01*
X168053333Y-78274678D01*
X168053333Y-78096107D01*
X168021429Y-78024678D01*
X167989524Y-77988964D01*
X167925714Y-77953250D01*
X167798095Y-77953250D01*
X167734286Y-77988964D01*
X167702381Y-78024678D01*
X167670476Y-78096107D01*
X168819048Y-77631821D02*
X168244762Y-78596107D01*
X168978571Y-77667535D02*
X169425238Y-77667535D01*
X169138095Y-78417535D01*
X167032381Y-75877535D02*
X167032381Y-75127535D01*
X167191905Y-75127535D01*
X167287619Y-75163250D01*
X167351428Y-75234678D01*
X167383333Y-75306107D01*
X167415238Y-75448964D01*
X167415238Y-75556107D01*
X167383333Y-75698964D01*
X167351428Y-75770392D01*
X167287619Y-75841821D01*
X167191905Y-75877535D01*
X167032381Y-75877535D01*
X167638571Y-75127535D02*
X168085238Y-75127535D01*
X167798095Y-75877535D01*
X168819047Y-75091821D02*
X168244762Y-76056107D01*
X169329524Y-75127535D02*
X169201905Y-75127535D01*
X169138095Y-75163250D01*
X169106190Y-75198964D01*
X169042381Y-75306107D01*
X169010476Y-75448964D01*
X169010476Y-75734678D01*
X169042381Y-75806107D01*
X169074285Y-75841821D01*
X169138095Y-75877535D01*
X169265714Y-75877535D01*
X169329524Y-75841821D01*
X169361428Y-75806107D01*
X169393333Y-75734678D01*
X169393333Y-75556107D01*
X169361428Y-75484678D01*
X169329524Y-75448964D01*
X169265714Y-75413250D01*
X169138095Y-75413250D01*
X169074285Y-75448964D01*
X169042381Y-75484678D01*
X169010476Y-75556107D01*
X167989523Y-59923250D02*
X167925714Y-59887535D01*
X167830000Y-59887535D01*
X167734285Y-59923250D01*
X167670476Y-59994678D01*
X167638571Y-60066107D01*
X167606666Y-60208964D01*
X167606666Y-60316107D01*
X167638571Y-60458964D01*
X167670476Y-60530392D01*
X167734285Y-60601821D01*
X167830000Y-60637535D01*
X167893809Y-60637535D01*
X167989523Y-60601821D01*
X168021428Y-60566107D01*
X168021428Y-60316107D01*
X167893809Y-60316107D01*
X168308571Y-60637535D02*
X168308571Y-59887535D01*
X168691428Y-60637535D01*
X168691428Y-59887535D01*
X169010476Y-60637535D02*
X169010476Y-59887535D01*
X169170000Y-59887535D01*
X169265714Y-59923250D01*
X169329523Y-59994678D01*
X169361428Y-60066107D01*
X169393333Y-60208964D01*
X169393333Y-60316107D01*
X169361428Y-60458964D01*
X169329523Y-60530392D01*
X169265714Y-60601821D01*
X169170000Y-60637535D01*
X169010476Y-60637535D01*
X167989523Y-62463250D02*
X167925714Y-62427535D01*
X167830000Y-62427535D01*
X167734285Y-62463250D01*
X167670476Y-62534678D01*
X167638571Y-62606107D01*
X167606666Y-62748964D01*
X167606666Y-62856107D01*
X167638571Y-62998964D01*
X167670476Y-63070392D01*
X167734285Y-63141821D01*
X167830000Y-63177535D01*
X167893809Y-63177535D01*
X167989523Y-63141821D01*
X168021428Y-63106107D01*
X168021428Y-62856107D01*
X167893809Y-62856107D01*
X168308571Y-63177535D02*
X168308571Y-62427535D01*
X168691428Y-63177535D01*
X168691428Y-62427535D01*
X169010476Y-63177535D02*
X169010476Y-62427535D01*
X169170000Y-62427535D01*
X169265714Y-62463250D01*
X169329523Y-62534678D01*
X169361428Y-62606107D01*
X169393333Y-62748964D01*
X169393333Y-62856107D01*
X169361428Y-62998964D01*
X169329523Y-63070392D01*
X169265714Y-63141821D01*
X169170000Y-63177535D01*
X169010476Y-63177535D01*
X165883809Y-55557535D02*
X165883809Y-54807535D01*
X166043333Y-54807535D01*
X166139047Y-54843250D01*
X166202857Y-54914678D01*
X166234761Y-54986107D01*
X166266666Y-55128964D01*
X166266666Y-55236107D01*
X166234761Y-55378964D01*
X166202857Y-55450392D01*
X166139047Y-55521821D01*
X166043333Y-55557535D01*
X165883809Y-55557535D01*
X166489999Y-54807535D02*
X166904761Y-54807535D01*
X166681428Y-55093250D01*
X166777142Y-55093250D01*
X166840952Y-55128964D01*
X166872857Y-55164678D01*
X166904761Y-55236107D01*
X166904761Y-55414678D01*
X166872857Y-55486107D01*
X166840952Y-55521821D01*
X166777142Y-55557535D01*
X166585714Y-55557535D01*
X166521904Y-55521821D01*
X166489999Y-55486107D01*
X167670476Y-54771821D02*
X167096190Y-55736107D01*
X167798095Y-54807535D02*
X168180952Y-54807535D01*
X167989523Y-55557535D02*
X167989523Y-54807535D01*
X168340476Y-54807535D02*
X168787142Y-55557535D01*
X168787142Y-54807535D02*
X168340476Y-55557535D01*
X169169999Y-54807535D02*
X169233809Y-54807535D01*
X169297619Y-54843250D01*
X169329523Y-54878964D01*
X169361428Y-54950392D01*
X169393333Y-55093250D01*
X169393333Y-55271821D01*
X169361428Y-55414678D01*
X169329523Y-55486107D01*
X169297619Y-55521821D01*
X169233809Y-55557535D01*
X169169999Y-55557535D01*
X169106190Y-55521821D01*
X169074285Y-55486107D01*
X169042380Y-55414678D01*
X169010476Y-55271821D01*
X169010476Y-55093250D01*
X169042380Y-54950392D01*
X169074285Y-54878964D01*
X169106190Y-54843250D01*
X169169999Y-54807535D01*
X167032381Y-70797535D02*
X167032381Y-70047535D01*
X167191905Y-70047535D01*
X167287619Y-70083250D01*
X167351428Y-70154678D01*
X167383333Y-70226107D01*
X167415238Y-70368964D01*
X167415238Y-70476107D01*
X167383333Y-70618964D01*
X167351428Y-70690392D01*
X167287619Y-70761821D01*
X167191905Y-70797535D01*
X167032381Y-70797535D01*
X167989524Y-70297535D02*
X167989524Y-70797535D01*
X167830000Y-70011821D02*
X167670476Y-70547535D01*
X168085238Y-70547535D01*
X168819047Y-70011821D02*
X168244762Y-70976107D01*
X169329524Y-70297535D02*
X169329524Y-70797535D01*
X169170000Y-70011821D02*
X169010476Y-70547535D01*
X169425238Y-70547535D01*
X164416190Y-65681821D02*
X164511904Y-65717535D01*
X164671428Y-65717535D01*
X164735238Y-65681821D01*
X164767142Y-65646107D01*
X164799047Y-65574678D01*
X164799047Y-65503250D01*
X164767142Y-65431821D01*
X164735238Y-65396107D01*
X164671428Y-65360392D01*
X164543809Y-65324678D01*
X164480000Y-65288964D01*
X164448095Y-65253250D01*
X164416190Y-65181821D01*
X164416190Y-65110392D01*
X164448095Y-65038964D01*
X164480000Y-65003250D01*
X164543809Y-64967535D01*
X164703333Y-64967535D01*
X164799047Y-65003250D01*
X165086190Y-65717535D02*
X165086190Y-64967535D01*
X165245714Y-64967535D01*
X165341428Y-65003250D01*
X165405238Y-65074678D01*
X165437142Y-65146107D01*
X165469047Y-65288964D01*
X165469047Y-65396107D01*
X165437142Y-65538964D01*
X165405238Y-65610392D01*
X165341428Y-65681821D01*
X165245714Y-65717535D01*
X165086190Y-65717535D01*
X165724285Y-65503250D02*
X166043333Y-65503250D01*
X165660476Y-65717535D02*
X165883809Y-64967535D01*
X166107142Y-65717535D01*
X166809047Y-64931821D02*
X166234762Y-65896107D01*
X167032381Y-65717535D02*
X167032381Y-64967535D01*
X167191904Y-64967535D01*
X167287619Y-65003250D01*
X167351428Y-65074678D01*
X167383333Y-65146107D01*
X167415238Y-65288964D01*
X167415238Y-65396107D01*
X167383333Y-65538964D01*
X167351428Y-65610392D01*
X167287619Y-65681821D01*
X167191904Y-65717535D01*
X167032381Y-65717535D01*
X168053333Y-65717535D02*
X167670476Y-65717535D01*
X167861904Y-65717535D02*
X167861904Y-64967535D01*
X167798095Y-65074678D01*
X167734285Y-65146107D01*
X167670476Y-65181821D01*
X168819047Y-64931821D02*
X168244762Y-65896107D01*
X169010476Y-65038964D02*
X169042381Y-65003250D01*
X169106190Y-64967535D01*
X169265714Y-64967535D01*
X169329523Y-65003250D01*
X169361428Y-65038964D01*
X169393333Y-65110392D01*
X169393333Y-65181821D01*
X169361428Y-65288964D01*
X168978571Y-65717535D01*
X169393333Y-65717535D01*
X164448095Y-68221821D02*
X164543810Y-68257535D01*
X164703334Y-68257535D01*
X164767143Y-68221821D01*
X164799048Y-68186107D01*
X164830953Y-68114678D01*
X164830953Y-68043250D01*
X164799048Y-67971821D01*
X164767143Y-67936107D01*
X164703334Y-67900392D01*
X164575715Y-67864678D01*
X164511905Y-67828964D01*
X164480000Y-67793250D01*
X164448095Y-67721821D01*
X164448095Y-67650392D01*
X164480000Y-67578964D01*
X164511905Y-67543250D01*
X164575715Y-67507535D01*
X164735238Y-67507535D01*
X164830953Y-67543250D01*
X165500953Y-68186107D02*
X165469048Y-68221821D01*
X165373334Y-68257535D01*
X165309524Y-68257535D01*
X165213810Y-68221821D01*
X165150000Y-68150392D01*
X165118095Y-68078964D01*
X165086191Y-67936107D01*
X165086191Y-67828964D01*
X165118095Y-67686107D01*
X165150000Y-67614678D01*
X165213810Y-67543250D01*
X165309524Y-67507535D01*
X165373334Y-67507535D01*
X165469048Y-67543250D01*
X165500953Y-67578964D01*
X166107143Y-68257535D02*
X165788095Y-68257535D01*
X165788095Y-67507535D01*
X166809048Y-67471821D02*
X166234762Y-68436107D01*
X167032381Y-68257535D02*
X167032381Y-67507535D01*
X167191905Y-67507535D01*
X167287619Y-67543250D01*
X167351429Y-67614678D01*
X167383334Y-67686107D01*
X167415238Y-67828964D01*
X167415238Y-67936107D01*
X167383334Y-68078964D01*
X167351429Y-68150392D01*
X167287619Y-68221821D01*
X167191905Y-68257535D01*
X167032381Y-68257535D01*
X167830000Y-67507535D02*
X167893810Y-67507535D01*
X167957619Y-67543250D01*
X167989524Y-67578964D01*
X168021429Y-67650392D01*
X168053334Y-67793250D01*
X168053334Y-67971821D01*
X168021429Y-68114678D01*
X167989524Y-68186107D01*
X167957619Y-68221821D01*
X167893810Y-68257535D01*
X167830000Y-68257535D01*
X167766191Y-68221821D01*
X167734286Y-68186107D01*
X167702381Y-68114678D01*
X167670476Y-67971821D01*
X167670476Y-67793250D01*
X167702381Y-67650392D01*
X167734286Y-67578964D01*
X167766191Y-67543250D01*
X167830000Y-67507535D01*
X168819048Y-67471821D02*
X168244762Y-68436107D01*
X168978572Y-67507535D02*
X169393334Y-67507535D01*
X169170000Y-67793250D01*
X169265715Y-67793250D01*
X169329524Y-67828964D01*
X169361429Y-67864678D01*
X169393334Y-67936107D01*
X169393334Y-68114678D01*
X169361429Y-68186107D01*
X169329524Y-68221821D01*
X169265715Y-68257535D01*
X169074286Y-68257535D01*
X169010476Y-68221821D01*
X168978572Y-68186107D01*
X167415238Y-73266107D02*
X167383333Y-73301821D01*
X167287619Y-73337535D01*
X167223809Y-73337535D01*
X167128095Y-73301821D01*
X167064285Y-73230392D01*
X167032381Y-73158964D01*
X167000476Y-73016107D01*
X167000476Y-72908964D01*
X167032381Y-72766107D01*
X167064285Y-72694678D01*
X167128095Y-72623250D01*
X167223809Y-72587535D01*
X167287619Y-72587535D01*
X167383333Y-72623250D01*
X167415238Y-72658964D01*
X167989524Y-72587535D02*
X167861905Y-72587535D01*
X167798095Y-72623250D01*
X167766190Y-72658964D01*
X167702381Y-72766107D01*
X167670476Y-72908964D01*
X167670476Y-73194678D01*
X167702381Y-73266107D01*
X167734285Y-73301821D01*
X167798095Y-73337535D01*
X167925714Y-73337535D01*
X167989524Y-73301821D01*
X168021428Y-73266107D01*
X168053333Y-73194678D01*
X168053333Y-73016107D01*
X168021428Y-72944678D01*
X167989524Y-72908964D01*
X167925714Y-72873250D01*
X167798095Y-72873250D01*
X167734285Y-72908964D01*
X167702381Y-72944678D01*
X167670476Y-73016107D01*
X168819047Y-72551821D02*
X168244762Y-73516107D01*
X169361428Y-72587535D02*
X169042381Y-72587535D01*
X169010476Y-72944678D01*
X169042381Y-72908964D01*
X169106190Y-72873250D01*
X169265714Y-72873250D01*
X169329524Y-72908964D01*
X169361428Y-72944678D01*
X169393333Y-73016107D01*
X169393333Y-73194678D01*
X169361428Y-73266107D01*
X169329524Y-73301821D01*
X169265714Y-73337535D01*
X169106190Y-73337535D01*
X169042381Y-73301821D01*
X169010476Y-73266107D01*
X167255714Y-83104678D02*
X167351428Y-83140392D01*
X167383333Y-83176107D01*
X167415238Y-83247535D01*
X167415238Y-83354678D01*
X167383333Y-83426107D01*
X167351428Y-83461821D01*
X167287619Y-83497535D01*
X167032381Y-83497535D01*
X167032381Y-82747535D01*
X167255714Y-82747535D01*
X167319524Y-82783250D01*
X167351428Y-82818964D01*
X167383333Y-82890392D01*
X167383333Y-82961821D01*
X167351428Y-83033250D01*
X167319524Y-83068964D01*
X167255714Y-83104678D01*
X167032381Y-83104678D01*
X168021428Y-82747535D02*
X167702381Y-82747535D01*
X167670476Y-83104678D01*
X167702381Y-83068964D01*
X167766190Y-83033250D01*
X167925714Y-83033250D01*
X167989524Y-83068964D01*
X168021428Y-83104678D01*
X168053333Y-83176107D01*
X168053333Y-83354678D01*
X168021428Y-83426107D01*
X167989524Y-83461821D01*
X167925714Y-83497535D01*
X167766190Y-83497535D01*
X167702381Y-83461821D01*
X167670476Y-83426107D01*
X168819047Y-82711821D02*
X168244762Y-83676107D01*
X169074285Y-83497535D02*
X169201905Y-83497535D01*
X169265714Y-83461821D01*
X169297619Y-83426107D01*
X169361428Y-83318964D01*
X169393333Y-83176107D01*
X169393333Y-82890392D01*
X169361428Y-82818964D01*
X169329524Y-82783250D01*
X169265714Y-82747535D01*
X169138095Y-82747535D01*
X169074285Y-82783250D01*
X169042381Y-82818964D01*
X169010476Y-82890392D01*
X169010476Y-83068964D01*
X169042381Y-83140392D01*
X169074285Y-83176107D01*
X169138095Y-83211821D01*
X169265714Y-83211821D01*
X169329524Y-83176107D01*
X169361428Y-83140392D01*
X169393333Y-83068964D01*
X165724286Y-58097535D02*
X165724286Y-57347535D01*
X165883810Y-57347535D01*
X165979524Y-57383250D01*
X166043334Y-57454678D01*
X166075238Y-57526107D01*
X166107143Y-57668964D01*
X166107143Y-57776107D01*
X166075238Y-57918964D01*
X166043334Y-57990392D01*
X165979524Y-58061821D01*
X165883810Y-58097535D01*
X165724286Y-58097535D01*
X166362381Y-57418964D02*
X166394286Y-57383250D01*
X166458096Y-57347535D01*
X166617619Y-57347535D01*
X166681429Y-57383250D01*
X166713334Y-57418964D01*
X166745238Y-57490392D01*
X166745238Y-57561821D01*
X166713334Y-57668964D01*
X166330477Y-58097535D01*
X166745238Y-58097535D01*
X167510953Y-57311821D02*
X166936667Y-58276107D01*
X168117143Y-58097535D02*
X167893810Y-57740392D01*
X167734286Y-58097535D02*
X167734286Y-57347535D01*
X167989524Y-57347535D01*
X168053334Y-57383250D01*
X168085238Y-57418964D01*
X168117143Y-57490392D01*
X168117143Y-57597535D01*
X168085238Y-57668964D01*
X168053334Y-57704678D01*
X167989524Y-57740392D01*
X167734286Y-57740392D01*
X168340477Y-57347535D02*
X168787143Y-58097535D01*
X168787143Y-57347535D02*
X168340477Y-58097535D01*
X169393334Y-58097535D02*
X169010477Y-58097535D01*
X169201905Y-58097535D02*
X169201905Y-57347535D01*
X169138096Y-57454678D01*
X169074286Y-57526107D01*
X169010477Y-57561821D01*
X167255714Y-80564678D02*
X167351428Y-80600392D01*
X167383333Y-80636107D01*
X167415238Y-80707535D01*
X167415238Y-80814678D01*
X167383333Y-80886107D01*
X167351428Y-80921821D01*
X167287619Y-80957535D01*
X167032381Y-80957535D01*
X167032381Y-80207535D01*
X167255714Y-80207535D01*
X167319524Y-80243250D01*
X167351428Y-80278964D01*
X167383333Y-80350392D01*
X167383333Y-80421821D01*
X167351428Y-80493250D01*
X167319524Y-80528964D01*
X167255714Y-80564678D01*
X167032381Y-80564678D01*
X167989524Y-80457535D02*
X167989524Y-80957535D01*
X167830000Y-80171821D02*
X167670476Y-80707535D01*
X168085238Y-80707535D01*
X168819047Y-80171821D02*
X168244762Y-81136107D01*
X169138095Y-80528964D02*
X169074285Y-80493250D01*
X169042381Y-80457535D01*
X169010476Y-80386107D01*
X169010476Y-80350392D01*
X169042381Y-80278964D01*
X169074285Y-80243250D01*
X169138095Y-80207535D01*
X169265714Y-80207535D01*
X169329524Y-80243250D01*
X169361428Y-80278964D01*
X169393333Y-80350392D01*
X169393333Y-80386107D01*
X169361428Y-80457535D01*
X169329524Y-80493250D01*
X169265714Y-80528964D01*
X169138095Y-80528964D01*
X169074285Y-80564678D01*
X169042381Y-80600392D01*
X169010476Y-80671821D01*
X169010476Y-80814678D01*
X169042381Y-80886107D01*
X169074285Y-80921821D01*
X169138095Y-80957535D01*
X169265714Y-80957535D01*
X169329524Y-80921821D01*
X169361428Y-80886107D01*
X169393333Y-80814678D01*
X169393333Y-80671821D01*
X169361428Y-80600392D01*
X169329524Y-80564678D01*
X169265714Y-80528964D01*
D10*
D12*
X136037380Y-55557535D02*
X135814047Y-55200392D01*
X135654523Y-55557535D02*
X135654523Y-54807535D01*
X135909761Y-54807535D01*
X135973571Y-54843250D01*
X136005476Y-54878964D01*
X136037380Y-54950392D01*
X136037380Y-55057535D01*
X136005476Y-55128964D01*
X135973571Y-55164678D01*
X135909761Y-55200392D01*
X135654523Y-55200392D01*
X136292619Y-55343250D02*
X136611666Y-55343250D01*
X136228809Y-55557535D02*
X136452142Y-54807535D01*
X136675476Y-55557535D01*
X136835000Y-54807535D02*
X136994523Y-55557535D01*
X137122142Y-55021821D01*
X137249761Y-55557535D01*
X137409285Y-54807535D01*
X136005475Y-57383250D02*
X135941666Y-57347535D01*
X135845952Y-57347535D01*
X135750237Y-57383250D01*
X135686428Y-57454678D01*
X135654523Y-57526107D01*
X135622618Y-57668964D01*
X135622618Y-57776107D01*
X135654523Y-57918964D01*
X135686428Y-57990392D01*
X135750237Y-58061821D01*
X135845952Y-58097535D01*
X135909761Y-58097535D01*
X136005475Y-58061821D01*
X136037380Y-58026107D01*
X136037380Y-57776107D01*
X135909761Y-57776107D01*
X136324523Y-58097535D02*
X136324523Y-57347535D01*
X136707380Y-58097535D01*
X136707380Y-57347535D01*
X137026428Y-58097535D02*
X137026428Y-57347535D01*
X137185952Y-57347535D01*
X137281666Y-57383250D01*
X137345475Y-57454678D01*
X137377380Y-57526107D01*
X137409285Y-57668964D01*
X137409285Y-57776107D01*
X137377380Y-57918964D01*
X137345475Y-57990392D01*
X137281666Y-58061821D01*
X137185952Y-58097535D01*
X137026428Y-58097535D01*
X136037380Y-60637535D02*
X135814046Y-60280392D01*
X135654523Y-60637535D02*
X135654523Y-59887535D01*
X135909761Y-59887535D01*
X135973570Y-59923250D01*
X136005475Y-59958964D01*
X136037380Y-60030392D01*
X136037380Y-60137535D01*
X136005475Y-60208964D01*
X135973570Y-60244678D01*
X135909761Y-60280392D01*
X135654523Y-60280392D01*
X136292618Y-60601821D02*
X136388332Y-60637535D01*
X136547856Y-60637535D01*
X136611665Y-60601821D01*
X136643570Y-60566107D01*
X136675475Y-60494678D01*
X136675475Y-60423250D01*
X136643570Y-60351821D01*
X136611665Y-60316107D01*
X136547856Y-60280392D01*
X136420237Y-60244678D01*
X136356427Y-60208964D01*
X136324523Y-60173250D01*
X136292618Y-60101821D01*
X136292618Y-60030392D01*
X136324523Y-59958964D01*
X136356427Y-59923250D01*
X136420237Y-59887535D01*
X136579761Y-59887535D01*
X136675475Y-59923250D01*
X136866904Y-59887535D02*
X137249761Y-59887535D01*
X137058332Y-60637535D02*
X137058332Y-59887535D01*
X135558809Y-62427535D02*
X135782143Y-63177535D01*
X136005476Y-62427535D01*
X136611666Y-63106107D02*
X136579762Y-63141821D01*
X136484047Y-63177535D01*
X136420238Y-63177535D01*
X136324523Y-63141821D01*
X136260714Y-63070392D01*
X136228809Y-62998964D01*
X136196904Y-62856107D01*
X136196904Y-62748964D01*
X136228809Y-62606107D01*
X136260714Y-62534678D01*
X136324523Y-62463250D01*
X136420238Y-62427535D01*
X136484047Y-62427535D01*
X136579762Y-62463250D01*
X136611666Y-62498964D01*
X137281666Y-63106107D02*
X137249762Y-63141821D01*
X137154047Y-63177535D01*
X137090238Y-63177535D01*
X136994523Y-63141821D01*
X136930714Y-63070392D01*
X136898809Y-62998964D01*
X136866904Y-62856107D01*
X136866904Y-62748964D01*
X136898809Y-62606107D01*
X136930714Y-62534678D01*
X136994523Y-62463250D01*
X137090238Y-62427535D01*
X137154047Y-62427535D01*
X137249762Y-62463250D01*
X137281666Y-62498964D01*
X135622618Y-65503250D02*
X135941666Y-65503250D01*
X135558809Y-65717535D02*
X135782142Y-64967535D01*
X136005475Y-65717535D01*
X136164999Y-64967535D02*
X136579761Y-64967535D01*
X136356428Y-65253250D01*
X136452142Y-65253250D01*
X136515952Y-65288964D01*
X136547856Y-65324678D01*
X136579761Y-65396107D01*
X136579761Y-65574678D01*
X136547856Y-65646107D01*
X136515952Y-65681821D01*
X136452142Y-65717535D01*
X136260713Y-65717535D01*
X136196904Y-65681821D01*
X136164999Y-65646107D01*
X137345475Y-64931821D02*
X136771190Y-65896107D01*
X137792142Y-65324678D02*
X137568809Y-65324678D01*
X137568809Y-65717535D02*
X137568809Y-64967535D01*
X137887856Y-64967535D01*
X138430237Y-65217535D02*
X138430237Y-65717535D01*
X138270713Y-64931821D02*
X138111190Y-65467535D01*
X138525952Y-65467535D01*
X135622618Y-68043250D02*
X135941666Y-68043250D01*
X135558809Y-68257535D02*
X135782142Y-67507535D01*
X136005475Y-68257535D01*
X136196904Y-67578964D02*
X136228809Y-67543250D01*
X136292618Y-67507535D01*
X136452142Y-67507535D01*
X136515952Y-67543250D01*
X136547856Y-67578964D01*
X136579761Y-67650392D01*
X136579761Y-67721821D01*
X136547856Y-67828964D01*
X136164999Y-68257535D01*
X136579761Y-68257535D01*
X137345475Y-67471821D02*
X136771190Y-68436107D01*
X137792142Y-67864678D02*
X137568809Y-67864678D01*
X137568809Y-68257535D02*
X137568809Y-67507535D01*
X137887856Y-67507535D01*
X138462142Y-67507535D02*
X138143094Y-67507535D01*
X138111190Y-67864678D01*
X138143094Y-67828964D01*
X138206904Y-67793250D01*
X138366428Y-67793250D01*
X138430237Y-67828964D01*
X138462142Y-67864678D01*
X138494047Y-67936107D01*
X138494047Y-68114678D01*
X138462142Y-68186107D01*
X138430237Y-68221821D01*
X138366428Y-68257535D01*
X138206904Y-68257535D01*
X138143094Y-68221821D01*
X138111190Y-68186107D01*
X135622618Y-70583250D02*
X135941666Y-70583250D01*
X135558809Y-70797535D02*
X135782142Y-70047535D01*
X136005475Y-70797535D01*
X136579761Y-70797535D02*
X136196904Y-70797535D01*
X136388333Y-70797535D02*
X136388333Y-70047535D01*
X136324523Y-70154678D01*
X136260713Y-70226107D01*
X136196904Y-70261821D01*
X137345475Y-70011821D02*
X136771190Y-70976107D01*
X137792142Y-70404678D02*
X137568809Y-70404678D01*
X137568809Y-70797535D02*
X137568809Y-70047535D01*
X137887856Y-70047535D01*
X138430237Y-70047535D02*
X138302618Y-70047535D01*
X138238809Y-70083250D01*
X138206904Y-70118964D01*
X138143094Y-70226107D01*
X138111190Y-70368964D01*
X138111190Y-70654678D01*
X138143094Y-70726107D01*
X138174999Y-70761821D01*
X138238809Y-70797535D01*
X138366428Y-70797535D01*
X138430237Y-70761821D01*
X138462142Y-70726107D01*
X138494047Y-70654678D01*
X138494047Y-70476107D01*
X138462142Y-70404678D01*
X138430237Y-70368964D01*
X138366428Y-70333250D01*
X138238809Y-70333250D01*
X138174999Y-70368964D01*
X138143094Y-70404678D01*
X138111190Y-70476107D01*
X135622618Y-73123250D02*
X135941666Y-73123250D01*
X135558809Y-73337535D02*
X135782142Y-72587535D01*
X136005475Y-73337535D01*
X136356428Y-72587535D02*
X136420237Y-72587535D01*
X136484047Y-72623250D01*
X136515952Y-72658964D01*
X136547856Y-72730392D01*
X136579761Y-72873250D01*
X136579761Y-73051821D01*
X136547856Y-73194678D01*
X136515952Y-73266107D01*
X136484047Y-73301821D01*
X136420237Y-73337535D01*
X136356428Y-73337535D01*
X136292618Y-73301821D01*
X136260713Y-73266107D01*
X136228809Y-73194678D01*
X136196904Y-73051821D01*
X136196904Y-72873250D01*
X136228809Y-72730392D01*
X136260713Y-72658964D01*
X136292618Y-72623250D01*
X136356428Y-72587535D01*
X137345475Y-72551821D02*
X136771190Y-73516107D01*
X137792142Y-72944678D02*
X137568809Y-72944678D01*
X137568809Y-73337535D02*
X137568809Y-72587535D01*
X137887856Y-72587535D01*
X138079285Y-72587535D02*
X138525952Y-72587535D01*
X138238809Y-73337535D01*
X136005475Y-75877535D02*
X135622618Y-75877535D01*
X135814047Y-75877535D02*
X135814047Y-75127535D01*
X135750237Y-75234678D01*
X135686428Y-75306107D01*
X135622618Y-75341821D01*
X136611666Y-75127535D02*
X136292618Y-75127535D01*
X136260714Y-75484678D01*
X136292618Y-75448964D01*
X136356428Y-75413250D01*
X136515952Y-75413250D01*
X136579761Y-75448964D01*
X136611666Y-75484678D01*
X136643571Y-75556107D01*
X136643571Y-75734678D01*
X136611666Y-75806107D01*
X136579761Y-75841821D01*
X136515952Y-75877535D01*
X136356428Y-75877535D01*
X136292618Y-75841821D01*
X136260714Y-75806107D01*
X137409285Y-75091821D02*
X136834999Y-76056107D01*
X137855952Y-75484678D02*
X137951666Y-75520392D01*
X137983571Y-75556107D01*
X138015475Y-75627535D01*
X138015475Y-75734678D01*
X137983571Y-75806107D01*
X137951666Y-75841821D01*
X137887856Y-75877535D01*
X137632618Y-75877535D01*
X137632618Y-75127535D01*
X137855952Y-75127535D01*
X137919761Y-75163250D01*
X137951666Y-75198964D01*
X137983571Y-75270392D01*
X137983571Y-75341821D01*
X137951666Y-75413250D01*
X137919761Y-75448964D01*
X137855952Y-75484678D01*
X137632618Y-75484678D01*
X138653571Y-75877535D02*
X138270714Y-75877535D01*
X138462142Y-75877535D02*
X138462142Y-75127535D01*
X138398333Y-75234678D01*
X138334523Y-75306107D01*
X138270714Y-75341821D01*
X136005475Y-78417535D02*
X135622618Y-78417535D01*
X135814047Y-78417535D02*
X135814047Y-77667535D01*
X135750237Y-77774678D01*
X135686428Y-77846107D01*
X135622618Y-77881821D01*
X136579761Y-77917535D02*
X136579761Y-78417535D01*
X136420237Y-77631821D02*
X136260714Y-78167535D01*
X136675475Y-78167535D01*
X137409285Y-77631821D02*
X136834999Y-78596107D01*
X137855952Y-78024678D02*
X137951666Y-78060392D01*
X137983571Y-78096107D01*
X138015475Y-78167535D01*
X138015475Y-78274678D01*
X137983571Y-78346107D01*
X137951666Y-78381821D01*
X137887856Y-78417535D01*
X137632618Y-78417535D01*
X137632618Y-77667535D01*
X137855952Y-77667535D01*
X137919761Y-77703250D01*
X137951666Y-77738964D01*
X137983571Y-77810392D01*
X137983571Y-77881821D01*
X137951666Y-77953250D01*
X137919761Y-77988964D01*
X137855952Y-78024678D01*
X137632618Y-78024678D01*
X138238809Y-77667535D02*
X138653571Y-77667535D01*
X138430237Y-77953250D01*
X138525952Y-77953250D01*
X138589761Y-77988964D01*
X138621666Y-78024678D01*
X138653571Y-78096107D01*
X138653571Y-78274678D01*
X138621666Y-78346107D01*
X138589761Y-78381821D01*
X138525952Y-78417535D01*
X138334523Y-78417535D01*
X138270714Y-78381821D01*
X138238809Y-78346107D01*
X136005475Y-83497535D02*
X135622618Y-83497535D01*
X135814047Y-83497535D02*
X135814047Y-82747535D01*
X135750237Y-82854678D01*
X135686428Y-82926107D01*
X135622618Y-82961821D01*
X136420237Y-82747535D02*
X136484047Y-82747535D01*
X136547856Y-82783250D01*
X136579761Y-82818964D01*
X136611666Y-82890392D01*
X136643571Y-83033250D01*
X136643571Y-83211821D01*
X136611666Y-83354678D01*
X136579761Y-83426107D01*
X136547856Y-83461821D01*
X136484047Y-83497535D01*
X136420237Y-83497535D01*
X136356428Y-83461821D01*
X136324523Y-83426107D01*
X136292618Y-83354678D01*
X136260714Y-83211821D01*
X136260714Y-83033250D01*
X136292618Y-82890392D01*
X136324523Y-82818964D01*
X136356428Y-82783250D01*
X136420237Y-82747535D01*
X137409285Y-82711821D02*
X136834999Y-83676107D01*
X137855952Y-83104678D02*
X137951666Y-83140392D01*
X137983571Y-83176107D01*
X138015475Y-83247535D01*
X138015475Y-83354678D01*
X137983571Y-83426107D01*
X137951666Y-83461821D01*
X137887856Y-83497535D01*
X137632618Y-83497535D01*
X137632618Y-82747535D01*
X137855952Y-82747535D01*
X137919761Y-82783250D01*
X137951666Y-82818964D01*
X137983571Y-82890392D01*
X137983571Y-82961821D01*
X137951666Y-83033250D01*
X137919761Y-83068964D01*
X137855952Y-83104678D01*
X137632618Y-83104678D01*
X138589761Y-82747535D02*
X138462142Y-82747535D01*
X138398333Y-82783250D01*
X138366428Y-82818964D01*
X138302618Y-82926107D01*
X138270714Y-83068964D01*
X138270714Y-83354678D01*
X138302618Y-83426107D01*
X138334523Y-83461821D01*
X138398333Y-83497535D01*
X138525952Y-83497535D01*
X138589761Y-83461821D01*
X138621666Y-83426107D01*
X138653571Y-83354678D01*
X138653571Y-83176107D01*
X138621666Y-83104678D01*
X138589761Y-83068964D01*
X138525952Y-83033250D01*
X138398333Y-83033250D01*
X138334523Y-83068964D01*
X138302618Y-83104678D01*
X138270714Y-83176107D01*
X136005475Y-80957535D02*
X135622618Y-80957535D01*
X135814047Y-80957535D02*
X135814047Y-80207535D01*
X135750237Y-80314678D01*
X135686428Y-80386107D01*
X135622618Y-80421821D01*
X136579761Y-80207535D02*
X136452142Y-80207535D01*
X136388333Y-80243250D01*
X136356428Y-80278964D01*
X136292618Y-80386107D01*
X136260714Y-80528964D01*
X136260714Y-80814678D01*
X136292618Y-80886107D01*
X136324523Y-80921821D01*
X136388333Y-80957535D01*
X136515952Y-80957535D01*
X136579761Y-80921821D01*
X136611666Y-80886107D01*
X136643571Y-80814678D01*
X136643571Y-80636107D01*
X136611666Y-80564678D01*
X136579761Y-80528964D01*
X136515952Y-80493250D01*
X136388333Y-80493250D01*
X136324523Y-80528964D01*
X136292618Y-80564678D01*
X136260714Y-80636107D01*
X137409285Y-80171821D02*
X136834999Y-81136107D01*
X137855952Y-80564678D02*
X137951666Y-80600392D01*
X137983571Y-80636107D01*
X138015475Y-80707535D01*
X138015475Y-80814678D01*
X137983571Y-80886107D01*
X137951666Y-80921821D01*
X137887856Y-80957535D01*
X137632618Y-80957535D01*
X137632618Y-80207535D01*
X137855952Y-80207535D01*
X137919761Y-80243250D01*
X137951666Y-80278964D01*
X137983571Y-80350392D01*
X137983571Y-80421821D01*
X137951666Y-80493250D01*
X137919761Y-80528964D01*
X137855952Y-80564678D01*
X137632618Y-80564678D01*
X138270714Y-80278964D02*
X138302618Y-80243250D01*
X138366428Y-80207535D01*
X138525952Y-80207535D01*
X138589761Y-80243250D01*
X138621666Y-80278964D01*
X138653571Y-80350392D01*
X138653571Y-80421821D01*
X138621666Y-80528964D01*
X138238809Y-80957535D01*
X138653571Y-80957535D01*
X146096190Y-78024678D02*
X146319524Y-78024678D01*
X146415238Y-78417535D02*
X146096190Y-78417535D01*
X146096190Y-77667535D01*
X146415238Y-77667535D01*
X146989524Y-77667535D02*
X146861905Y-77667535D01*
X146798095Y-77703250D01*
X146766190Y-77738964D01*
X146702381Y-77846107D01*
X146670476Y-77988964D01*
X146670476Y-78274678D01*
X146702381Y-78346107D01*
X146734286Y-78381821D01*
X146798095Y-78417535D01*
X146925714Y-78417535D01*
X146989524Y-78381821D01*
X147021429Y-78346107D01*
X147053333Y-78274678D01*
X147053333Y-78096107D01*
X147021429Y-78024678D01*
X146989524Y-77988964D01*
X146925714Y-77953250D01*
X146798095Y-77953250D01*
X146734286Y-77988964D01*
X146702381Y-78024678D01*
X146670476Y-78096107D01*
X147819048Y-77631821D02*
X147244762Y-78596107D01*
X147978571Y-77667535D02*
X148425238Y-77667535D01*
X148138095Y-78417535D01*
X146032381Y-75877535D02*
X146032381Y-75127535D01*
X146191905Y-75127535D01*
X146287619Y-75163250D01*
X146351428Y-75234678D01*
X146383333Y-75306107D01*
X146415238Y-75448964D01*
X146415238Y-75556107D01*
X146383333Y-75698964D01*
X146351428Y-75770392D01*
X146287619Y-75841821D01*
X146191905Y-75877535D01*
X146032381Y-75877535D01*
X146638571Y-75127535D02*
X147085238Y-75127535D01*
X146798095Y-75877535D01*
X147819047Y-75091821D02*
X147244762Y-76056107D01*
X148329524Y-75127535D02*
X148201905Y-75127535D01*
X148138095Y-75163250D01*
X148106190Y-75198964D01*
X148042381Y-75306107D01*
X148010476Y-75448964D01*
X148010476Y-75734678D01*
X148042381Y-75806107D01*
X148074285Y-75841821D01*
X148138095Y-75877535D01*
X148265714Y-75877535D01*
X148329524Y-75841821D01*
X148361428Y-75806107D01*
X148393333Y-75734678D01*
X148393333Y-75556107D01*
X148361428Y-75484678D01*
X148329524Y-75448964D01*
X148265714Y-75413250D01*
X148138095Y-75413250D01*
X148074285Y-75448964D01*
X148042381Y-75484678D01*
X148010476Y-75556107D01*
X146989523Y-59923250D02*
X146925714Y-59887535D01*
X146830000Y-59887535D01*
X146734285Y-59923250D01*
X146670476Y-59994678D01*
X146638571Y-60066107D01*
X146606666Y-60208964D01*
X146606666Y-60316107D01*
X146638571Y-60458964D01*
X146670476Y-60530392D01*
X146734285Y-60601821D01*
X146830000Y-60637535D01*
X146893809Y-60637535D01*
X146989523Y-60601821D01*
X147021428Y-60566107D01*
X147021428Y-60316107D01*
X146893809Y-60316107D01*
X147308571Y-60637535D02*
X147308571Y-59887535D01*
X147691428Y-60637535D01*
X147691428Y-59887535D01*
X148010476Y-60637535D02*
X148010476Y-59887535D01*
X148170000Y-59887535D01*
X148265714Y-59923250D01*
X148329523Y-59994678D01*
X148361428Y-60066107D01*
X148393333Y-60208964D01*
X148393333Y-60316107D01*
X148361428Y-60458964D01*
X148329523Y-60530392D01*
X148265714Y-60601821D01*
X148170000Y-60637535D01*
X148010476Y-60637535D01*
X146989523Y-62463250D02*
X146925714Y-62427535D01*
X146830000Y-62427535D01*
X146734285Y-62463250D01*
X146670476Y-62534678D01*
X146638571Y-62606107D01*
X146606666Y-62748964D01*
X146606666Y-62856107D01*
X146638571Y-62998964D01*
X146670476Y-63070392D01*
X146734285Y-63141821D01*
X146830000Y-63177535D01*
X146893809Y-63177535D01*
X146989523Y-63141821D01*
X147021428Y-63106107D01*
X147021428Y-62856107D01*
X146893809Y-62856107D01*
X147308571Y-63177535D02*
X147308571Y-62427535D01*
X147691428Y-63177535D01*
X147691428Y-62427535D01*
X148010476Y-63177535D02*
X148010476Y-62427535D01*
X148170000Y-62427535D01*
X148265714Y-62463250D01*
X148329523Y-62534678D01*
X148361428Y-62606107D01*
X148393333Y-62748964D01*
X148393333Y-62856107D01*
X148361428Y-62998964D01*
X148329523Y-63070392D01*
X148265714Y-63141821D01*
X148170000Y-63177535D01*
X148010476Y-63177535D01*
X144883809Y-55557535D02*
X144883809Y-54807535D01*
X145043333Y-54807535D01*
X145139047Y-54843250D01*
X145202857Y-54914678D01*
X145234761Y-54986107D01*
X145266666Y-55128964D01*
X145266666Y-55236107D01*
X145234761Y-55378964D01*
X145202857Y-55450392D01*
X145139047Y-55521821D01*
X145043333Y-55557535D01*
X144883809Y-55557535D01*
X145489999Y-54807535D02*
X145904761Y-54807535D01*
X145681428Y-55093250D01*
X145777142Y-55093250D01*
X145840952Y-55128964D01*
X145872857Y-55164678D01*
X145904761Y-55236107D01*
X145904761Y-55414678D01*
X145872857Y-55486107D01*
X145840952Y-55521821D01*
X145777142Y-55557535D01*
X145585714Y-55557535D01*
X145521904Y-55521821D01*
X145489999Y-55486107D01*
X146670476Y-54771821D02*
X146096190Y-55736107D01*
X146798095Y-54807535D02*
X147180952Y-54807535D01*
X146989523Y-55557535D02*
X146989523Y-54807535D01*
X147340476Y-54807535D02*
X147787142Y-55557535D01*
X147787142Y-54807535D02*
X147340476Y-55557535D01*
X148169999Y-54807535D02*
X148233809Y-54807535D01*
X148297619Y-54843250D01*
X148329523Y-54878964D01*
X148361428Y-54950392D01*
X148393333Y-55093250D01*
X148393333Y-55271821D01*
X148361428Y-55414678D01*
X148329523Y-55486107D01*
X148297619Y-55521821D01*
X148233809Y-55557535D01*
X148169999Y-55557535D01*
X148106190Y-55521821D01*
X148074285Y-55486107D01*
X148042380Y-55414678D01*
X148010476Y-55271821D01*
X148010476Y-55093250D01*
X148042380Y-54950392D01*
X148074285Y-54878964D01*
X148106190Y-54843250D01*
X148169999Y-54807535D01*
X146032381Y-70797535D02*
X146032381Y-70047535D01*
X146191905Y-70047535D01*
X146287619Y-70083250D01*
X146351428Y-70154678D01*
X146383333Y-70226107D01*
X146415238Y-70368964D01*
X146415238Y-70476107D01*
X146383333Y-70618964D01*
X146351428Y-70690392D01*
X146287619Y-70761821D01*
X146191905Y-70797535D01*
X146032381Y-70797535D01*
X146989524Y-70297535D02*
X146989524Y-70797535D01*
X146830000Y-70011821D02*
X146670476Y-70547535D01*
X147085238Y-70547535D01*
X147819047Y-70011821D02*
X147244762Y-70976107D01*
X148329524Y-70297535D02*
X148329524Y-70797535D01*
X148170000Y-70011821D02*
X148010476Y-70547535D01*
X148425238Y-70547535D01*
X143416190Y-65681821D02*
X143511904Y-65717535D01*
X143671428Y-65717535D01*
X143735238Y-65681821D01*
X143767142Y-65646107D01*
X143799047Y-65574678D01*
X143799047Y-65503250D01*
X143767142Y-65431821D01*
X143735238Y-65396107D01*
X143671428Y-65360392D01*
X143543809Y-65324678D01*
X143480000Y-65288964D01*
X143448095Y-65253250D01*
X143416190Y-65181821D01*
X143416190Y-65110392D01*
X143448095Y-65038964D01*
X143480000Y-65003250D01*
X143543809Y-64967535D01*
X143703333Y-64967535D01*
X143799047Y-65003250D01*
X144086190Y-65717535D02*
X144086190Y-64967535D01*
X144245714Y-64967535D01*
X144341428Y-65003250D01*
X144405238Y-65074678D01*
X144437142Y-65146107D01*
X144469047Y-65288964D01*
X144469047Y-65396107D01*
X144437142Y-65538964D01*
X144405238Y-65610392D01*
X144341428Y-65681821D01*
X144245714Y-65717535D01*
X144086190Y-65717535D01*
X144724285Y-65503250D02*
X145043333Y-65503250D01*
X144660476Y-65717535D02*
X144883809Y-64967535D01*
X145107142Y-65717535D01*
X145809047Y-64931821D02*
X145234762Y-65896107D01*
X146032381Y-65717535D02*
X146032381Y-64967535D01*
X146191904Y-64967535D01*
X146287619Y-65003250D01*
X146351428Y-65074678D01*
X146383333Y-65146107D01*
X146415238Y-65288964D01*
X146415238Y-65396107D01*
X146383333Y-65538964D01*
X146351428Y-65610392D01*
X146287619Y-65681821D01*
X146191904Y-65717535D01*
X146032381Y-65717535D01*
X147053333Y-65717535D02*
X146670476Y-65717535D01*
X146861904Y-65717535D02*
X146861904Y-64967535D01*
X146798095Y-65074678D01*
X146734285Y-65146107D01*
X146670476Y-65181821D01*
X147819047Y-64931821D02*
X147244762Y-65896107D01*
X148010476Y-65038964D02*
X148042381Y-65003250D01*
X148106190Y-64967535D01*
X148265714Y-64967535D01*
X148329523Y-65003250D01*
X148361428Y-65038964D01*
X148393333Y-65110392D01*
X148393333Y-65181821D01*
X148361428Y-65288964D01*
X147978571Y-65717535D01*
X148393333Y-65717535D01*
X143448095Y-68221821D02*
X143543810Y-68257535D01*
X143703334Y-68257535D01*
X143767143Y-68221821D01*
X143799048Y-68186107D01*
X143830953Y-68114678D01*
X143830953Y-68043250D01*
X143799048Y-67971821D01*
X143767143Y-67936107D01*
X143703334Y-67900392D01*
X143575715Y-67864678D01*
X143511905Y-67828964D01*
X143480000Y-67793250D01*
X143448095Y-67721821D01*
X143448095Y-67650392D01*
X143480000Y-67578964D01*
X143511905Y-67543250D01*
X143575715Y-67507535D01*
X143735238Y-67507535D01*
X143830953Y-67543250D01*
X144500953Y-68186107D02*
X144469048Y-68221821D01*
X144373334Y-68257535D01*
X144309524Y-68257535D01*
X144213810Y-68221821D01*
X144150000Y-68150392D01*
X144118095Y-68078964D01*
X144086191Y-67936107D01*
X144086191Y-67828964D01*
X144118095Y-67686107D01*
X144150000Y-67614678D01*
X144213810Y-67543250D01*
X144309524Y-67507535D01*
X144373334Y-67507535D01*
X144469048Y-67543250D01*
X144500953Y-67578964D01*
X145107143Y-68257535D02*
X144788095Y-68257535D01*
X144788095Y-67507535D01*
X145809048Y-67471821D02*
X145234762Y-68436107D01*
X146032381Y-68257535D02*
X146032381Y-67507535D01*
X146191905Y-67507535D01*
X146287619Y-67543250D01*
X146351429Y-67614678D01*
X146383334Y-67686107D01*
X146415238Y-67828964D01*
X146415238Y-67936107D01*
X146383334Y-68078964D01*
X146351429Y-68150392D01*
X146287619Y-68221821D01*
X146191905Y-68257535D01*
X146032381Y-68257535D01*
X146830000Y-67507535D02*
X146893810Y-67507535D01*
X146957619Y-67543250D01*
X146989524Y-67578964D01*
X147021429Y-67650392D01*
X147053334Y-67793250D01*
X147053334Y-67971821D01*
X147021429Y-68114678D01*
X146989524Y-68186107D01*
X146957619Y-68221821D01*
X146893810Y-68257535D01*
X146830000Y-68257535D01*
X146766191Y-68221821D01*
X146734286Y-68186107D01*
X146702381Y-68114678D01*
X146670476Y-67971821D01*
X146670476Y-67793250D01*
X146702381Y-67650392D01*
X146734286Y-67578964D01*
X146766191Y-67543250D01*
X146830000Y-67507535D01*
X147819048Y-67471821D02*
X147244762Y-68436107D01*
X147978572Y-67507535D02*
X148393334Y-67507535D01*
X148170000Y-67793250D01*
X148265715Y-67793250D01*
X148329524Y-67828964D01*
X148361429Y-67864678D01*
X148393334Y-67936107D01*
X148393334Y-68114678D01*
X148361429Y-68186107D01*
X148329524Y-68221821D01*
X148265715Y-68257535D01*
X148074286Y-68257535D01*
X148010476Y-68221821D01*
X147978572Y-68186107D01*
X146415238Y-73266107D02*
X146383333Y-73301821D01*
X146287619Y-73337535D01*
X146223809Y-73337535D01*
X146128095Y-73301821D01*
X146064285Y-73230392D01*
X146032381Y-73158964D01*
X146000476Y-73016107D01*
X146000476Y-72908964D01*
X146032381Y-72766107D01*
X146064285Y-72694678D01*
X146128095Y-72623250D01*
X146223809Y-72587535D01*
X146287619Y-72587535D01*
X146383333Y-72623250D01*
X146415238Y-72658964D01*
X146989524Y-72587535D02*
X146861905Y-72587535D01*
X146798095Y-72623250D01*
X146766190Y-72658964D01*
X146702381Y-72766107D01*
X146670476Y-72908964D01*
X146670476Y-73194678D01*
X146702381Y-73266107D01*
X146734285Y-73301821D01*
X146798095Y-73337535D01*
X146925714Y-73337535D01*
X146989524Y-73301821D01*
X147021428Y-73266107D01*
X147053333Y-73194678D01*
X147053333Y-73016107D01*
X147021428Y-72944678D01*
X146989524Y-72908964D01*
X146925714Y-72873250D01*
X146798095Y-72873250D01*
X146734285Y-72908964D01*
X146702381Y-72944678D01*
X146670476Y-73016107D01*
X147819047Y-72551821D02*
X147244762Y-73516107D01*
X148361428Y-72587535D02*
X148042381Y-72587535D01*
X148010476Y-72944678D01*
X148042381Y-72908964D01*
X148106190Y-72873250D01*
X148265714Y-72873250D01*
X148329524Y-72908964D01*
X148361428Y-72944678D01*
X148393333Y-73016107D01*
X148393333Y-73194678D01*
X148361428Y-73266107D01*
X148329524Y-73301821D01*
X148265714Y-73337535D01*
X148106190Y-73337535D01*
X148042381Y-73301821D01*
X148010476Y-73266107D01*
X146255714Y-83104678D02*
X146351428Y-83140392D01*
X146383333Y-83176107D01*
X146415238Y-83247535D01*
X146415238Y-83354678D01*
X146383333Y-83426107D01*
X146351428Y-83461821D01*
X146287619Y-83497535D01*
X146032381Y-83497535D01*
X146032381Y-82747535D01*
X146255714Y-82747535D01*
X146319524Y-82783250D01*
X146351428Y-82818964D01*
X146383333Y-82890392D01*
X146383333Y-82961821D01*
X146351428Y-83033250D01*
X146319524Y-83068964D01*
X146255714Y-83104678D01*
X146032381Y-83104678D01*
X147021428Y-82747535D02*
X146702381Y-82747535D01*
X146670476Y-83104678D01*
X146702381Y-83068964D01*
X146766190Y-83033250D01*
X146925714Y-83033250D01*
X146989524Y-83068964D01*
X147021428Y-83104678D01*
X147053333Y-83176107D01*
X147053333Y-83354678D01*
X147021428Y-83426107D01*
X146989524Y-83461821D01*
X146925714Y-83497535D01*
X146766190Y-83497535D01*
X146702381Y-83461821D01*
X146670476Y-83426107D01*
X147819047Y-82711821D02*
X147244762Y-83676107D01*
X148074285Y-83497535D02*
X148201905Y-83497535D01*
X148265714Y-83461821D01*
X148297619Y-83426107D01*
X148361428Y-83318964D01*
X148393333Y-83176107D01*
X148393333Y-82890392D01*
X148361428Y-82818964D01*
X148329524Y-82783250D01*
X148265714Y-82747535D01*
X148138095Y-82747535D01*
X148074285Y-82783250D01*
X148042381Y-82818964D01*
X148010476Y-82890392D01*
X148010476Y-83068964D01*
X148042381Y-83140392D01*
X148074285Y-83176107D01*
X148138095Y-83211821D01*
X148265714Y-83211821D01*
X148329524Y-83176107D01*
X148361428Y-83140392D01*
X148393333Y-83068964D01*
X144724286Y-58097535D02*
X144724286Y-57347535D01*
X144883810Y-57347535D01*
X144979524Y-57383250D01*
X145043334Y-57454678D01*
X145075238Y-57526107D01*
X145107143Y-57668964D01*
X145107143Y-57776107D01*
X145075238Y-57918964D01*
X145043334Y-57990392D01*
X144979524Y-58061821D01*
X144883810Y-58097535D01*
X144724286Y-58097535D01*
X145362381Y-57418964D02*
X145394286Y-57383250D01*
X145458096Y-57347535D01*
X145617619Y-57347535D01*
X145681429Y-57383250D01*
X145713334Y-57418964D01*
X145745238Y-57490392D01*
X145745238Y-57561821D01*
X145713334Y-57668964D01*
X145330477Y-58097535D01*
X145745238Y-58097535D01*
X146510953Y-57311821D02*
X145936667Y-58276107D01*
X147117143Y-58097535D02*
X146893810Y-57740392D01*
X146734286Y-58097535D02*
X146734286Y-57347535D01*
X146989524Y-57347535D01*
X147053334Y-57383250D01*
X147085238Y-57418964D01*
X147117143Y-57490392D01*
X147117143Y-57597535D01*
X147085238Y-57668964D01*
X147053334Y-57704678D01*
X146989524Y-57740392D01*
X146734286Y-57740392D01*
X147340477Y-57347535D02*
X147787143Y-58097535D01*
X147787143Y-57347535D02*
X147340477Y-58097535D01*
X148393334Y-58097535D02*
X148010477Y-58097535D01*
X148201905Y-58097535D02*
X148201905Y-57347535D01*
X148138096Y-57454678D01*
X148074286Y-57526107D01*
X148010477Y-57561821D01*
X146255714Y-80564678D02*
X146351428Y-80600392D01*
X146383333Y-80636107D01*
X146415238Y-80707535D01*
X146415238Y-80814678D01*
X146383333Y-80886107D01*
X146351428Y-80921821D01*
X146287619Y-80957535D01*
X146032381Y-80957535D01*
X146032381Y-80207535D01*
X146255714Y-80207535D01*
X146319524Y-80243250D01*
X146351428Y-80278964D01*
X146383333Y-80350392D01*
X146383333Y-80421821D01*
X146351428Y-80493250D01*
X146319524Y-80528964D01*
X146255714Y-80564678D01*
X146032381Y-80564678D01*
X146989524Y-80457535D02*
X146989524Y-80957535D01*
X146830000Y-80171821D02*
X146670476Y-80707535D01*
X147085238Y-80707535D01*
X147819047Y-80171821D02*
X147244762Y-81136107D01*
X148138095Y-80528964D02*
X148074285Y-80493250D01*
X148042381Y-80457535D01*
X148010476Y-80386107D01*
X148010476Y-80350392D01*
X148042381Y-80278964D01*
X148074285Y-80243250D01*
X148138095Y-80207535D01*
X148265714Y-80207535D01*
X148329524Y-80243250D01*
X148361428Y-80278964D01*
X148393333Y-80350392D01*
X148393333Y-80386107D01*
X148361428Y-80457535D01*
X148329524Y-80493250D01*
X148265714Y-80528964D01*
X148138095Y-80528964D01*
X148074285Y-80564678D01*
X148042381Y-80600392D01*
X148010476Y-80671821D01*
X148010476Y-80814678D01*
X148042381Y-80886107D01*
X148074285Y-80921821D01*
X148138095Y-80957535D01*
X148265714Y-80957535D01*
X148329524Y-80921821D01*
X148361428Y-80886107D01*
X148393333Y-80814678D01*
X148393333Y-80671821D01*
X148361428Y-80600392D01*
X148329524Y-80564678D01*
X148265714Y-80528964D01*
M02*
