G04 #@! TF.GenerationSoftware,KiCad,Pcbnew,(5.1.9)-1*
G04 #@! TF.CreationDate,2021-03-06T20:59:53-05:00*
G04 #@! TF.ProjectId,ya36,79613336-2e6b-4696-9361-645f70636258,rev?*
G04 #@! TF.SameCoordinates,Original*
G04 #@! TF.FileFunction,Copper,L1,Top*
G04 #@! TF.FilePolarity,Positive*
%FSLAX46Y46*%
G04 Gerber Fmt 4.6, Leading zero omitted, Abs format (unit mm)*
G04 Created by KiCad (PCBNEW (5.1.9)-1) date 2021-03-06 20:59:53*
%MOMM*%
%LPD*%
G01*
G04 APERTURE LIST*
G04 #@! TA.AperFunction,ComponentPad*
%ADD10C,0.800000*%
G04 #@! TD*
G04 #@! TA.AperFunction,ComponentPad*
%ADD11C,2.000000*%
G04 #@! TD*
G04 #@! TA.AperFunction,ComponentPad*
%ADD12C,1.524000*%
G04 #@! TD*
G04 #@! TA.AperFunction,ComponentPad*
%ADD13C,2.300000*%
G04 #@! TD*
G04 #@! TA.AperFunction,ComponentPad*
%ADD14O,2.500000X1.700000*%
G04 #@! TD*
G04 #@! TA.AperFunction,Conductor*
%ADD15C,0.500000*%
G04 #@! TD*
G04 #@! TA.AperFunction,Conductor*
%ADD16C,0.250000*%
G04 #@! TD*
G04 APERTURE END LIST*
D10*
X188817808Y-78597742D03*
X221275000Y-79000000D03*
X236342137Y-98275751D03*
X240517330Y-68567709D03*
X253489062Y-94767127D03*
X201584233Y-61656125D03*
X186730212Y-63743722D03*
X238429734Y-83421729D03*
X257623623Y-80348202D03*
X203671829Y-76510147D03*
X249354502Y-109186053D03*
X169644595Y-110706858D03*
X190905405Y-93451763D03*
X185275000Y-109912426D03*
X205759426Y-91364167D03*
X221275000Y-94000000D03*
X200805897Y-111844254D03*
D11*
X155850000Y-93250000D03*
X155850000Y-99750000D03*
D12*
X155391400Y-55272000D03*
X155391400Y-57812000D03*
X155391400Y-60352000D03*
X155391400Y-62892000D03*
X155391400Y-65432000D03*
X155391400Y-67972000D03*
X155391400Y-70512000D03*
X155391400Y-73052000D03*
X155391400Y-75592000D03*
X155391400Y-78132000D03*
X155391400Y-80672000D03*
X155391400Y-83212000D03*
X170611400Y-83212000D03*
X170611400Y-80672000D03*
X170611400Y-78132000D03*
X170611400Y-75592000D03*
X170611400Y-73052000D03*
X170611400Y-70512000D03*
X170611400Y-67972000D03*
X170611400Y-65432000D03*
X170611400Y-62892000D03*
X170611400Y-60352000D03*
X170611400Y-57812000D03*
X170611400Y-55272000D03*
D13*
X263000000Y-115000000D03*
X228000000Y-60000000D03*
X222500000Y-100500000D03*
X263000000Y-52000000D03*
X174000000Y-96500000D03*
D10*
X221275000Y-64000000D03*
D13*
X155000000Y-115000000D03*
X174000000Y-52000000D03*
D14*
X165800000Y-90600000D03*
X164300000Y-86400000D03*
X160300000Y-86400000D03*
X157300000Y-86400000D03*
D15*
X154179399Y-73749759D02*
X154179399Y-59024001D01*
X170611400Y-62892000D02*
X167278214Y-62892000D01*
X154179399Y-59024001D02*
X155391400Y-57812000D01*
X154399999Y-98299999D02*
X155850000Y-99750000D01*
X170611400Y-60352000D02*
X170611400Y-62892000D01*
X154809639Y-74379999D02*
X154179399Y-73749759D01*
X154809639Y-74379999D02*
X154179399Y-75010239D01*
X167278214Y-62892000D02*
X155790215Y-74379999D01*
X154179399Y-75010239D02*
X154179399Y-85029399D01*
X154179399Y-85029399D02*
X155550000Y-86400000D01*
X155790215Y-74379999D02*
X154809639Y-74379999D01*
X154399999Y-87100001D02*
X154399999Y-98299999D01*
X155550000Y-86400000D02*
X157300000Y-86400000D01*
X155100000Y-86400000D02*
X154399999Y-87100001D01*
X155550000Y-86400000D02*
X155100000Y-86400000D01*
D16*
X169178401Y-54184999D02*
X155391400Y-67972000D01*
X257623623Y-74107880D02*
X236455812Y-52940069D01*
X249354502Y-105098469D02*
X249354502Y-109186053D01*
X175315001Y-54184999D02*
X169178401Y-54184999D01*
X257623623Y-80348202D02*
X257623623Y-86544982D01*
X253489062Y-94767127D02*
X253489062Y-100963909D01*
X253489062Y-100963909D02*
X249354502Y-105098469D01*
X257623623Y-80348202D02*
X257623623Y-74107880D01*
X257623623Y-86544982D02*
X253489062Y-90679543D01*
X253489062Y-90679543D02*
X253489062Y-94767127D01*
X236455812Y-52940069D02*
X176559931Y-52940069D01*
X176559931Y-52940069D02*
X175315001Y-54184999D01*
X172697334Y-55027666D02*
X171000001Y-56724999D01*
X237856688Y-96761200D02*
X236342137Y-98275751D01*
X169178401Y-56724999D02*
X155391400Y-70512000D01*
X238429734Y-83421729D02*
X237856688Y-83994775D01*
X239944285Y-81907178D02*
X238429734Y-83421729D01*
X231161457Y-55027666D02*
X172697334Y-55027666D01*
X240517330Y-64383539D02*
X231161457Y-55027666D01*
X237856688Y-83994775D02*
X237856688Y-96761200D01*
X240517330Y-68567709D02*
X239944285Y-69140754D01*
X240517330Y-68567709D02*
X240517330Y-64383539D01*
X171000001Y-56724999D02*
X169178401Y-56724999D01*
X239944285Y-69140754D02*
X239944285Y-81907178D01*
X170767163Y-59264999D02*
X169178401Y-59264999D01*
X188040185Y-56606478D02*
X186196663Y-58450000D01*
X221275000Y-64000000D02*
X221275000Y-79000000D01*
X200805897Y-109065568D02*
X200805897Y-111844254D01*
X217124940Y-56606478D02*
X188040185Y-56606478D01*
X215871465Y-94000000D02*
X200805897Y-109065568D01*
X221275000Y-79000000D02*
X221275000Y-94000000D01*
X221275000Y-60756538D02*
X217124940Y-56606478D01*
X221275000Y-94000000D02*
X215871465Y-94000000D01*
X169178401Y-59264999D02*
X155391400Y-73052000D01*
X186196663Y-58450000D02*
X171582162Y-58450000D01*
X171582162Y-58450000D02*
X170767163Y-59264999D01*
X221275000Y-64000000D02*
X221275000Y-60756538D01*
X201158457Y-61230349D02*
X185521667Y-61230349D01*
X185275000Y-106897092D02*
X197583699Y-94588393D01*
X201981096Y-62052988D02*
X201981096Y-74819414D01*
X185275000Y-109912426D02*
X185275000Y-106897092D01*
X199813993Y-94588393D02*
X203038219Y-91364167D01*
X183434070Y-63317946D02*
X171907054Y-63317946D01*
X204071828Y-89676569D02*
X205759426Y-91364167D01*
X201584233Y-61656125D02*
X201158457Y-61230349D01*
X204071828Y-76910146D02*
X204071828Y-89676569D01*
X201981096Y-74819414D02*
X203671829Y-76510147D01*
X203671829Y-76510147D02*
X204071828Y-76910146D01*
X197583699Y-94588393D02*
X199813993Y-94588393D01*
X185521667Y-61230349D02*
X183434070Y-63317946D01*
X201584233Y-61656125D02*
X201981096Y-62052988D01*
X203038219Y-91364167D02*
X205759426Y-91364167D01*
X166638401Y-64344999D02*
X155391400Y-75592000D01*
X171907054Y-63317946D02*
X170880001Y-64344999D01*
X170880001Y-64344999D02*
X166638401Y-64344999D01*
X189217807Y-78997741D02*
X189217807Y-91764165D01*
X187130211Y-76910145D02*
X188817808Y-78597742D01*
X188817808Y-78597742D02*
X189217807Y-78997741D01*
X186730212Y-63743722D02*
X187130211Y-64143721D01*
X164098401Y-69424999D02*
X155391400Y-78132000D01*
X190905405Y-93451763D02*
X186845957Y-93451763D01*
X189217807Y-91764165D02*
X190905405Y-93451763D01*
X169644595Y-110653125D02*
X169644595Y-110706858D01*
X186730212Y-63743722D02*
X184009005Y-63743722D01*
X187130211Y-64143721D02*
X187130211Y-76910145D01*
X178327728Y-69424999D02*
X164098401Y-69424999D01*
X186845957Y-93451763D02*
X169644595Y-110653125D01*
X184009005Y-63743722D02*
X178327728Y-69424999D01*
M02*
