M48
; DRILL file {KiCad (5.1.9)-1} date 03/06/21 20:59:22
; FORMAT={-:-/ absolute / inch / decimal}
; #@! TF.CreationDate,2021-03-06T20:59:22-05:00
; #@! TF.GenerationSoftware,Kicad,Pcbnew,(5.1.9)-1
; #@! TF.FileFunction,Plated,1,2,PTH
FMAT,2
INCH
T1C0.0157
T2C0.0320
T3C0.0394
T4C0.0512
T5C0.0906
%
G90
G05
T1
X2.1131Y-3.0922
X2.2759Y-3.6599
X2.4387Y-4.2276
X2.7941Y-2.6636
X2.8762Y-3.2484
X2.9584Y-3.8332
X3.5541Y-2.5197
X3.5541Y-3.1102
X3.5541Y-3.7008
X4.1625Y-3.6329
X4.2447Y-3.0481
X4.3269Y-2.4633
X4.3561Y-4.3585
X4.7473Y-3.7151
X4.8295Y-3.1303
X4.9117Y-2.5455
X4.9715Y-4.3273
X5.5829Y-4.4033
T2
X5.291Y-2.1761
X5.291Y-2.2761
X5.291Y-2.3761
X5.291Y-2.4761
X5.291Y-2.5761
X5.291Y-2.6761
X5.291Y-2.7761
X5.291Y-2.8761
X5.291Y-2.9761
X5.291Y-3.0761
X5.291Y-3.1761
X5.291Y-3.2761
X5.8902Y-2.1761
X5.8902Y-2.2761
X5.8902Y-2.3761
X5.8902Y-2.4761
X5.8902Y-2.5761
X5.8902Y-2.6761
X5.8902Y-2.7761
X5.8902Y-2.8761
X5.8902Y-2.9761
X5.8902Y-3.0761
X5.8902Y-3.1761
X5.8902Y-3.2761
T4
X5.872Y-3.6713
X5.872Y-3.9272
T5
X1.6535Y-2.0472
X1.6535Y-4.5276
X3.0315Y-2.3622
X3.248Y-3.9567
X5.1575Y-2.0472
X5.1575Y-3.7992
X5.9055Y-4.5276
T3
G00X5.4902Y-3.4016
M15
G01X5.4705Y-3.4016
M16
G05
G00X5.5492Y-3.5669
M15
G01X5.5295Y-3.5669
M16
G05
G00X5.7067Y-3.5669
M15
G01X5.687Y-3.5669
M16
G05
G00X5.8248Y-3.5669
M15
G01X5.8051Y-3.5669
M16
G05
T0
M30
