G04 #@! TF.GenerationSoftware,KiCad,Pcbnew,(5.1.9)-1*
G04 #@! TF.CreationDate,2021-03-06T20:59:11-05:00*
G04 #@! TF.ProjectId,ya36,79613336-2e6b-4696-9361-645f70636258,rev?*
G04 #@! TF.SameCoordinates,Original*
G04 #@! TF.FileFunction,Soldermask,Bot*
G04 #@! TF.FilePolarity,Negative*
%FSLAX46Y46*%
G04 Gerber Fmt 4.6, Leading zero omitted, Abs format (unit mm)*
G04 Created by KiCad (PCBNEW (5.1.9)-1) date 2021-03-06 20:59:11*
%MOMM*%
%LPD*%
G01*
G04 APERTURE LIST*
%ADD10C,0.100000*%
%ADD11C,0.990600*%
%ADD12R,2.600000X2.600000*%
%ADD13C,3.000000*%
%ADD14C,3.429000*%
%ADD15C,1.701800*%
%ADD16C,0.800000*%
%ADD17R,1.400000X1.000000*%
%ADD18C,2.300000*%
%ADD19C,1.524000*%
%ADD20O,2.500000X1.700000*%
%ADD21C,1.200000*%
%ADD22C,2.000000*%
G04 APERTURE END LIST*
D10*
G36*
X102636929Y-83005502D02*
G01*
X102497756Y-83995770D01*
X101111381Y-83800928D01*
X101250554Y-82810660D01*
X102636929Y-83005502D01*
G37*
G36*
X106152381Y-83499566D02*
G01*
X106013208Y-84489834D01*
X104626833Y-84294992D01*
X104766006Y-83304724D01*
X106152381Y-83499566D01*
G37*
D11*
X92220000Y-86300000D03*
D12*
X78725000Y-94250000D03*
D13*
X87000000Y-96450000D03*
D14*
X87000000Y-90500000D03*
D13*
X82000000Y-94250000D03*
D12*
X90275000Y-96450000D03*
D15*
X81500000Y-90500000D03*
D16*
X90275000Y-94000000D03*
D10*
G36*
X119578547Y-70239077D02*
G01*
X119439374Y-71229345D01*
X118052999Y-71034503D01*
X118192172Y-70044235D01*
X119578547Y-70239077D01*
G37*
G36*
X123093999Y-70733141D02*
G01*
X122954826Y-71723409D01*
X121568451Y-71528567D01*
X121707624Y-70538299D01*
X123093999Y-70733141D01*
G37*
D16*
X75144119Y-97364167D03*
D15*
X65967411Y-95119473D03*
D10*
G36*
X74378670Y-101258598D02*
G01*
X74016819Y-98683901D01*
X76591516Y-98322050D01*
X76953367Y-100896747D01*
X74378670Y-101258598D01*
G37*
D13*
X66984444Y-98763392D03*
D14*
X71413885Y-94354021D03*
D13*
X72241965Y-100246116D03*
D10*
G36*
X62634893Y-100687458D02*
G01*
X62273042Y-98112761D01*
X64847739Y-97750910D01*
X65209590Y-100325607D01*
X62634893Y-100687458D01*
G37*
D11*
X75998557Y-89468412D03*
D17*
X85225000Y-70750000D03*
X88775000Y-70750000D03*
D18*
X42000000Y-115000000D03*
D17*
X85225000Y-55750000D03*
X88775000Y-55750000D03*
D18*
X131000000Y-52000000D03*
D10*
G36*
X55348446Y-100168610D02*
G01*
X55624083Y-101129872D01*
X54278316Y-101515764D01*
X54002679Y-100554502D01*
X55348446Y-100168610D01*
G37*
G36*
X58760926Y-99190098D02*
G01*
X59036563Y-100151360D01*
X57690796Y-100537252D01*
X57415159Y-99575990D01*
X58760926Y-99190098D01*
G37*
G36*
X139041404Y-102471816D02*
G01*
X138867755Y-103456624D01*
X137489024Y-103213516D01*
X137662673Y-102228708D01*
X139041404Y-102471816D01*
G37*
G36*
X142537472Y-103088268D02*
G01*
X142363823Y-104073076D01*
X140985092Y-103829968D01*
X141158741Y-102845160D01*
X142537472Y-103088268D01*
G37*
G36*
X104724526Y-68151482D02*
G01*
X104585353Y-69141750D01*
X103198978Y-68946908D01*
X103338151Y-67956640D01*
X104724526Y-68151482D01*
G37*
G36*
X108239978Y-68645546D02*
G01*
X108100805Y-69635814D01*
X106714430Y-69440972D01*
X106853603Y-68450704D01*
X108239978Y-68645546D01*
G37*
G36*
X67531090Y-74450702D02*
G01*
X67670263Y-75440970D01*
X66283888Y-75635812D01*
X66144715Y-74645544D01*
X67531090Y-74450702D01*
G37*
G36*
X71046542Y-73956638D02*
G01*
X71185715Y-74946906D01*
X69799340Y-75141748D01*
X69660167Y-74151480D01*
X71046542Y-73956638D01*
G37*
D18*
X150000000Y-115000000D03*
D17*
X121225000Y-101662426D03*
X124775000Y-101662426D03*
D18*
X131000000Y-96500000D03*
D10*
G36*
X69618687Y-89304724D02*
G01*
X69757860Y-90294992D01*
X68371485Y-90489834D01*
X68232312Y-89499566D01*
X69618687Y-89304724D01*
G37*
G36*
X73134139Y-88810660D02*
G01*
X73273312Y-89800928D01*
X71886937Y-89995770D01*
X71747764Y-89005502D01*
X73134139Y-88810660D01*
G37*
G36*
X104841259Y-102845160D02*
G01*
X105014908Y-103829968D01*
X103636177Y-104073076D01*
X103462528Y-103088268D01*
X104841259Y-102845160D01*
G37*
G36*
X108337327Y-102228708D02*
G01*
X108510976Y-103213516D01*
X107132245Y-103456624D01*
X106958596Y-102471816D01*
X108337327Y-102228708D01*
G37*
D17*
X85225000Y-85750000D03*
X88775000Y-85750000D03*
D10*
G36*
X117490950Y-85093098D02*
G01*
X117351777Y-86083366D01*
X115965402Y-85888524D01*
X116104575Y-84898256D01*
X117490950Y-85093098D01*
G37*
G36*
X121006402Y-85587162D02*
G01*
X120867229Y-86577430D01*
X119480854Y-86382588D01*
X119620027Y-85392320D01*
X121006402Y-85587162D01*
G37*
G36*
X121666143Y-55385057D02*
G01*
X121526970Y-56375325D01*
X120140595Y-56180483D01*
X120279768Y-55190215D01*
X121666143Y-55385057D01*
G37*
G36*
X125181595Y-55879121D02*
G01*
X125042422Y-56869389D01*
X123656047Y-56674547D01*
X123795220Y-55684279D01*
X125181595Y-55879121D01*
G37*
G36*
X47079325Y-71330759D02*
G01*
X47354962Y-72292021D01*
X46009195Y-72677913D01*
X45733558Y-71716651D01*
X47079325Y-71330759D01*
G37*
G36*
X50491805Y-70352247D02*
G01*
X50767442Y-71313509D01*
X49421675Y-71699401D01*
X49146038Y-70738139D01*
X50491805Y-70352247D01*
G37*
D18*
X42000000Y-52000000D03*
D10*
G36*
X51213886Y-85749684D02*
G01*
X51489523Y-86710946D01*
X50143756Y-87096838D01*
X49868119Y-86135576D01*
X51213886Y-85749684D01*
G37*
G36*
X54626366Y-84771172D02*
G01*
X54902003Y-85732434D01*
X53556236Y-86118326D01*
X53280599Y-85157064D01*
X54626366Y-84771172D01*
G37*
G36*
X65443494Y-59596682D02*
G01*
X65582667Y-60586950D01*
X64196292Y-60781792D01*
X64057119Y-59791524D01*
X65443494Y-59596682D01*
G37*
G36*
X68958946Y-59102618D02*
G01*
X69098119Y-60092886D01*
X67711744Y-60287728D01*
X67572571Y-59297460D01*
X68958946Y-59102618D01*
G37*
D11*
X108724535Y-84921379D03*
D10*
G36*
X92786168Y-92022292D02*
G01*
X93148019Y-89447595D01*
X95722716Y-89809446D01*
X95360865Y-92384143D01*
X92786168Y-92022292D01*
G37*
D13*
X102142729Y-94246116D03*
D14*
X102970809Y-88354021D03*
D13*
X97497570Y-91371661D03*
D10*
G36*
X103917583Y-95808331D02*
G01*
X104279434Y-93233634D01*
X106854131Y-93595485D01*
X106492280Y-96170182D01*
X103917583Y-95808331D01*
G37*
D15*
X108417283Y-89119473D03*
X97524335Y-87588569D03*
D16*
X105726831Y-92275751D03*
D18*
X82500000Y-100500000D03*
D11*
X57554448Y-85023873D03*
D10*
G36*
X45882227Y-97993598D02*
G01*
X45165570Y-95494317D01*
X47664851Y-94777660D01*
X48381508Y-97276941D01*
X45882227Y-97993598D01*
G37*
D13*
X55334381Y-96219506D03*
D14*
X53694339Y-90499999D03*
D13*
X49921671Y-95482917D03*
D10*
G36*
X57591201Y-96924763D02*
G01*
X56874544Y-94425482D01*
X59373825Y-93708825D01*
X60090482Y-96208106D01*
X57591201Y-96924763D01*
G37*
D15*
X58981278Y-88983994D03*
X48407400Y-92016004D03*
D16*
X57807202Y-92961703D03*
D11*
X53419887Y-70604948D03*
D10*
G36*
X41747666Y-83574673D02*
G01*
X41031009Y-81075392D01*
X43530290Y-80358735D01*
X44246947Y-82858016D01*
X41747666Y-83574673D01*
G37*
D13*
X51199820Y-81800581D03*
D14*
X49559778Y-76081074D03*
D13*
X45787110Y-81063992D03*
D10*
G36*
X53456640Y-82505838D02*
G01*
X52739983Y-80006557D01*
X55239264Y-79289900D01*
X55955921Y-81789181D01*
X53456640Y-82505838D01*
G37*
D15*
X54846717Y-74565069D03*
X44272839Y-77597079D03*
D16*
X53672641Y-78542778D03*
D11*
X71823364Y-59760370D03*
D10*
G36*
X58459700Y-70979416D02*
G01*
X58097849Y-68404719D01*
X60672546Y-68042868D01*
X61034397Y-70617565D01*
X58459700Y-70979416D01*
G37*
D13*
X68066772Y-70538074D03*
D14*
X67238692Y-64645979D03*
D13*
X62809251Y-69055350D03*
D10*
G36*
X70203477Y-71550556D02*
G01*
X69841626Y-68975859D01*
X72416323Y-68614008D01*
X72778174Y-71188705D01*
X70203477Y-71550556D01*
G37*
D15*
X72685166Y-63880527D03*
X61792218Y-65411431D03*
D16*
X70968926Y-67656125D03*
D11*
X73910960Y-74614390D03*
D10*
G36*
X60547296Y-85833436D02*
G01*
X60185445Y-83258739D01*
X62760142Y-82896888D01*
X63121993Y-85471585D01*
X60547296Y-85833436D01*
G37*
D13*
X70154368Y-85392094D03*
D14*
X69326288Y-79499999D03*
D13*
X64896847Y-83909370D03*
D10*
G36*
X72291073Y-86404576D02*
G01*
X71929222Y-83829879D01*
X74503919Y-83468028D01*
X74865770Y-86042725D01*
X72291073Y-86404576D01*
G37*
D15*
X74772762Y-78734547D03*
X63879814Y-80265451D03*
D16*
X73056522Y-82510145D03*
D11*
X112899728Y-55213337D03*
D10*
G36*
X96961361Y-62314250D02*
G01*
X97323212Y-59739553D01*
X99897909Y-60101404D01*
X99536058Y-62676101D01*
X96961361Y-62314250D01*
G37*
D13*
X106317922Y-64538074D03*
D14*
X107146002Y-58645979D03*
D13*
X101672763Y-61663619D03*
D10*
G36*
X108092776Y-66100289D02*
G01*
X108454627Y-63525592D01*
X111029324Y-63887443D01*
X110667473Y-66462140D01*
X108092776Y-66100289D01*
G37*
D15*
X112592476Y-59411431D03*
X101699528Y-57880527D03*
D16*
X109902024Y-62567709D03*
D10*
G36*
X106812122Y-53297460D02*
G01*
X106672949Y-54287728D01*
X105286574Y-54092886D01*
X105425747Y-53102618D01*
X106812122Y-53297460D01*
G37*
G36*
X110327574Y-53791524D02*
G01*
X110188401Y-54781792D01*
X108802026Y-54586950D01*
X108941199Y-53596682D01*
X110327574Y-53791524D01*
G37*
D19*
X134391400Y-55272000D03*
X134391400Y-57812000D03*
X134391400Y-60352000D03*
X134391400Y-62892000D03*
X134391400Y-65432000D03*
X134391400Y-67972000D03*
X134391400Y-70512000D03*
X134391400Y-73052000D03*
X134391400Y-75592000D03*
X134391400Y-78132000D03*
X134391400Y-80672000D03*
X134391400Y-83212000D03*
X149611400Y-83212000D03*
X149611400Y-80672000D03*
X149611400Y-78132000D03*
X149611400Y-75592000D03*
X149611400Y-73052000D03*
X149611400Y-70512000D03*
X149611400Y-67972000D03*
X149611400Y-65432000D03*
X149611400Y-62892000D03*
X149611400Y-60352000D03*
X149611400Y-57812000D03*
X149611400Y-55272000D03*
D11*
X92220000Y-71300000D03*
D12*
X78725000Y-79250000D03*
D13*
X87000000Y-81450000D03*
D14*
X87000000Y-75500000D03*
D13*
X82000000Y-79250000D03*
D12*
X90275000Y-81450000D03*
D15*
X92500000Y-75500000D03*
X81500000Y-75500000D03*
D16*
X90275000Y-79000000D03*
D18*
X77000000Y-60000000D03*
D20*
X139200000Y-86400000D03*
X140700000Y-90600000D03*
X144700000Y-90600000D03*
X147700000Y-90600000D03*
D21*
X142500000Y-88500000D03*
X149500000Y-88500000D03*
D22*
X149150000Y-93250000D03*
X149150000Y-99750000D03*
D11*
X110812132Y-70067359D03*
D10*
G36*
X94873765Y-77168272D02*
G01*
X95235616Y-74593575D01*
X97810313Y-74955426D01*
X97448462Y-77530123D01*
X94873765Y-77168272D01*
G37*
D13*
X104230326Y-79392096D03*
D14*
X105058406Y-73500001D03*
D13*
X99585167Y-76517641D03*
D10*
G36*
X106005180Y-80954311D02*
G01*
X106367031Y-78379614D01*
X108941728Y-78741465D01*
X108579877Y-81316162D01*
X106005180Y-80954311D01*
G37*
D15*
X110504880Y-74265453D03*
X99611932Y-72734549D03*
D16*
X107814428Y-77421731D03*
D11*
X127753749Y-57300934D03*
D10*
G36*
X111815382Y-64401847D02*
G01*
X112177233Y-61827150D01*
X114751930Y-62189001D01*
X114390079Y-64763698D01*
X111815382Y-64401847D01*
G37*
D13*
X121171943Y-66625671D03*
D14*
X122000023Y-60733576D03*
D13*
X116526784Y-63751216D03*
D10*
G36*
X122946797Y-68187886D02*
G01*
X123308648Y-65613189D01*
X125883345Y-65975040D01*
X125521494Y-68549737D01*
X122946797Y-68187886D01*
G37*
D15*
X127446497Y-61499028D03*
X116553549Y-59968124D03*
D16*
X124756045Y-64655306D03*
D11*
X125666153Y-72154954D03*
D10*
G36*
X109727786Y-79255867D02*
G01*
X110089637Y-76681170D01*
X112664334Y-77043021D01*
X112302483Y-79617718D01*
X109727786Y-79255867D01*
G37*
D13*
X119084347Y-81479691D03*
D14*
X119912427Y-75587596D03*
D13*
X114439188Y-78605236D03*
D10*
G36*
X120859201Y-83041906D02*
G01*
X121221052Y-80467209D01*
X123795749Y-80829060D01*
X123433898Y-83403757D01*
X120859201Y-83041906D01*
G37*
D15*
X125358901Y-76353048D03*
X114465953Y-74822144D03*
D16*
X122668449Y-79509326D03*
D11*
X92220000Y-56300000D03*
D12*
X78725000Y-64250000D03*
D13*
X87000000Y-66450000D03*
D14*
X87000000Y-60500000D03*
D13*
X82000000Y-64250000D03*
D12*
X90275000Y-66450000D03*
D15*
X92500000Y-60500000D03*
X81500000Y-60500000D03*
D16*
X90275000Y-64000000D03*
D11*
X61689008Y-99442799D03*
D10*
G36*
X50016787Y-112412524D02*
G01*
X49300130Y-109913243D01*
X51799411Y-109196586D01*
X52516068Y-111695867D01*
X50016787Y-112412524D01*
G37*
D13*
X59468941Y-110638432D03*
D14*
X57828899Y-104918925D03*
D13*
X54056231Y-109901843D03*
D10*
G36*
X61725761Y-111343689D02*
G01*
X61009104Y-108844408D01*
X63508385Y-108127751D01*
X64225042Y-110627032D01*
X61725761Y-111343689D01*
G37*
D15*
X63115838Y-103402920D03*
X52541960Y-106434930D03*
D16*
X61941762Y-107380629D03*
D11*
X111222955Y-102786093D03*
D10*
G36*
X98258971Y-114464690D02*
G01*
X97807485Y-111904190D01*
X100367985Y-111452704D01*
X100819471Y-114013204D01*
X98258971Y-114464690D01*
G37*
D13*
X107844788Y-113688335D03*
D14*
X106811581Y-107828729D03*
D13*
X102538723Y-112389999D03*
D10*
G36*
X110015526Y-114625630D02*
G01*
X109564040Y-112065130D01*
X112124540Y-111613644D01*
X112576026Y-114174144D01*
X110015526Y-114625630D01*
G37*
D15*
X112228024Y-106873664D03*
X101395138Y-108783794D03*
D16*
X110644595Y-110706858D03*
D11*
X123578556Y-87008975D03*
D10*
G36*
X107640189Y-94109888D02*
G01*
X108002040Y-91535191D01*
X110576737Y-91897042D01*
X110214886Y-94471739D01*
X107640189Y-94109888D01*
G37*
D13*
X116996750Y-96333712D03*
D14*
X117824830Y-90441617D03*
D13*
X112351591Y-93459257D03*
D10*
G36*
X118771604Y-97895927D02*
G01*
X119133455Y-95321230D01*
X121708152Y-95683081D01*
X121346301Y-98257778D01*
X118771604Y-97895927D01*
G37*
D15*
X123271304Y-91207069D03*
X112378356Y-89676165D03*
D16*
X120580852Y-94363347D03*
D11*
X128220000Y-102212426D03*
D12*
X114725000Y-110162426D03*
D13*
X123000000Y-112362426D03*
D14*
X123000000Y-106412426D03*
D13*
X118000000Y-110162426D03*
D12*
X126275000Y-112362426D03*
D15*
X128500000Y-106412426D03*
X117500000Y-106412426D03*
D16*
X126275000Y-109912426D03*
D11*
X145058439Y-104598980D03*
D10*
G36*
X128881962Y-111139326D02*
G01*
X129333448Y-108578826D01*
X131893948Y-109030312D01*
X131442462Y-111590812D01*
X128881962Y-111139326D01*
G37*
D13*
X138155213Y-113688335D03*
D14*
X139188420Y-107828729D03*
D13*
X133613201Y-110653517D03*
D10*
G36*
X139874466Y-115311540D02*
G01*
X140325952Y-112751040D01*
X142886452Y-113202526D01*
X142434966Y-115763026D01*
X139874466Y-115311540D01*
G37*
D15*
X144604863Y-108783794D03*
X133771977Y-106873664D03*
D16*
X141805897Y-111844254D03*
M02*
